{"glyphs":{"0":{"ha":578,"x_min":34,"x_max":544,"o":"m 34 250 q 36 308 34 274 q 42 380 38 342 q 55 458 46 419 q 78 533 64 498 q 113 597 92 568 q 163 642 133 627 q 212 665 182 652 q 276 678 241 677 q 347 663 311 680 q 415 600 384 647 q 406 600 414 600 l 396 598 q 366 606 378 598 q 338 621 353 613 q 310 636 324 629 q 277 643 296 643 q 203 610 233 632 q 153 557 174 587 q 121 492 133 528 q 104 422 110 457 q 98 353 99 387 q 96 294 96 320 l 96 269 q 96 231 96 251 q 97 194 96 212 q 99 170 98 176 q 131 109 114 136 q 172 63 148 81 q 226 35 195 45 q 298 26 256 26 q 399 50 359 26 q 461 113 438 73 q 494 201 484 152 q 503 304 503 251 q 492 372 503 339 q 469 435 481 404 q 446 496 457 467 q 435 557 435 526 q 436 570 435 562 q 437 579 437 578 q 488 524 468 556 q 521 456 509 492 q 538 382 533 420 q 544 308 544 343 q 531 182 544 240 q 488 80 518 123 q 406 12 457 37 q 277 -14 354 -14 q 178 9 224 -14 q 101 68 133 31 q 52 153 69 106 q 34 250 34 201 z "},"1":{"ha":148,"x_min":47,"x_max":119,"o":"m 75 38 q 69 97 72 54 q 65 195 66 140 q 62 311 64 250 q 58 427 60 372 q 54 526 56 483 q 50 586 53 568 l 50 593 q 50 608 50 600 q 49 623 49 616 l 49 635 q 48 649 49 639 q 49 669 47 659 q 54 686 50 678 q 69 697 58 694 q 74 686 71 693 q 79 669 77 678 q 84 652 81 661 q 88 640 87 644 q 106 488 100 571 q 115 318 113 404 q 119 148 118 232 q 119 -7 119 64 q 75 38 79 -7 z "},"2":{"ha":677,"x_min":27,"x_max":647,"o":"m 269 90 q 232 79 250 90 q 197 55 214 68 q 159 31 179 42 q 111 20 138 20 l 98 20 q 79 21 90 20 q 59 22 68 22 q 46 23 50 23 q 37 39 41 31 q 31 54 33 46 q 28 70 28 61 q 27 88 27 79 q 41 146 27 123 q 75 182 54 170 q 123 201 96 195 q 176 207 149 206 q 227 204 202 208 q 269 199 251 201 q 343 334 323 256 q 363 494 363 411 q 361 557 363 522 q 351 620 359 591 q 323 667 342 648 q 273 686 305 686 q 195 673 232 686 q 129 635 159 661 q 77 573 99 610 q 46 484 56 536 l 46 494 q 45 507 46 499 q 45 519 45 514 l 45 529 q 45 559 45 545 q 48 585 46 572 q 54 610 50 597 q 66 639 58 624 q 120 684 98 666 q 163 712 142 701 q 205 726 184 723 q 258 730 227 730 q 332 709 301 730 q 383 652 363 688 q 412 571 403 616 q 420 479 420 526 l 420 463 q 420 443 420 453 q 419 427 419 433 q 419 419 419 420 q 402 370 415 404 q 374 296 389 335 q 346 223 359 258 q 324 176 332 189 q 324 171 324 175 l 323 165 q 343 110 323 133 q 392 71 363 87 q 451 49 420 56 q 503 42 481 42 q 541 58 525 42 q 574 92 557 73 q 608 125 591 110 q 647 140 625 140 q 630 80 647 106 q 588 36 613 54 q 534 8 563 18 q 481 -1 506 -1 q 426 13 452 -1 q 374 44 400 27 q 323 75 349 61 q 269 90 298 90 m 129 157 q 90 153 103 157 q 69 137 76 148 q 61 104 62 126 q 60 50 60 83 l 91 50 q 144 56 115 50 q 194 77 172 62 q 216 122 216 91 q 205 144 216 137 q 179 155 194 152 q 151 157 164 157 l 129 157 z "},"3":{"ha":518,"x_min":30,"x_max":494,"o":"m 75 129 q 115 118 96 129 q 155 93 134 107 q 203 68 176 79 q 264 57 229 57 q 336 71 304 57 q 390 111 368 85 q 425 171 412 136 q 438 250 438 206 q 432 323 438 289 q 411 383 426 358 q 370 422 396 408 q 305 437 345 437 q 255 429 275 437 q 216 411 235 420 q 178 393 197 401 q 134 385 159 385 q 149 467 134 429 q 182 543 164 506 q 216 618 201 579 q 232 697 232 656 q 220 699 228 697 q 204 702 213 701 q 188 703 195 703 q 176 704 180 704 q 151 696 170 701 q 113 685 133 692 q 74 671 92 678 q 49 663 56 665 l 30 682 q 56 694 38 686 q 94 709 73 701 q 140 726 115 718 q 186 743 164 735 q 226 758 209 751 q 251 766 243 764 q 260 769 254 768 q 273 772 266 770 q 287 774 281 773 q 296 774 293 774 q 289 702 296 741 q 272 625 282 663 q 252 553 262 587 q 233 496 241 519 q 347 484 298 494 q 429 450 396 475 q 477 379 461 425 q 494 258 494 334 q 475 159 494 202 q 427 83 457 115 q 354 34 396 52 q 264 16 312 16 q 209 20 241 16 q 146 35 176 23 q 95 68 115 46 q 75 129 75 91 z "},"4":{"ha":538,"x_min":30,"x_max":519,"o":"m 298 454 l 50 454 q 35 465 41 454 q 30 484 30 476 q 31 490 30 486 q 33 494 31 494 q 144 603 96 556 q 223 680 191 650 q 274 728 255 711 q 298 750 293 745 l 302 751 q 308 751 305 751 q 321 743 316 751 q 330 723 327 734 q 334 702 332 712 q 335 690 335 692 q 338 655 335 681 q 343 602 340 629 q 348 549 346 574 q 350 514 350 524 q 359 498 353 503 q 374 492 365 494 q 390 492 382 491 q 404 492 397 492 q 463 506 438 492 q 510 552 488 519 q 511 543 510 551 q 513 533 513 536 q 511 479 519 498 q 486 452 503 460 q 444 443 468 444 q 399 444 420 442 q 362 444 378 445 q 343 434 346 444 l 343 41 l 316 0 l 298 19 l 298 454 m 174 514 l 279 514 l 279 651 l 262 651 l 174 552 l 174 514 z "},"5":{"ha":566,"x_min":27,"x_max":530,"o":"m 27 129 q 27 139 27 132 q 28 148 27 146 q 126 79 76 104 q 241 53 176 53 q 344 73 300 53 q 417 128 388 92 q 461 213 446 164 q 476 316 476 262 q 475 334 476 320 q 474 361 475 347 q 473 389 473 376 q 473 408 473 403 q 457 430 469 415 q 431 459 445 445 q 402 486 416 473 q 381 502 388 499 l 374 502 q 362 503 370 503 q 346 503 354 503 l 335 503 q 256 490 290 503 q 193 463 221 477 q 140 435 164 448 q 95 422 115 422 q 96 463 95 433 q 98 526 96 492 q 101 590 100 560 q 103 631 102 620 q 105 659 103 642 q 113 690 107 675 q 129 714 118 704 q 159 724 140 724 l 437 724 l 437 697 l 195 697 q 174 675 182 697 q 163 625 167 652 q 159 574 160 598 q 159 547 159 551 q 161 531 159 536 q 176 518 164 526 q 218 530 199 526 q 254 537 236 534 q 290 540 271 540 q 330 540 308 540 q 368 540 351 540 q 401 536 385 540 q 435 524 418 532 q 473 502 452 517 q 477 491 472 500 q 488 469 481 481 q 500 439 494 456 q 514 410 507 423 q 526 385 521 396 q 530 372 530 374 l 530 361 q 530 344 530 354 q 530 323 530 334 l 530 307 q 511 191 530 244 q 456 96 492 137 q 368 31 420 56 q 250 0 316 5 q 213 1 236 -3 q 165 14 190 5 q 115 35 140 23 q 71 63 91 47 q 39 95 52 79 q 27 129 27 111 z "},"6":{"ha":547,"x_min":34,"x_max":513,"o":"m 34 342 q 39 430 34 382 q 56 526 45 477 q 87 618 68 574 q 132 697 106 663 q 191 752 157 731 q 266 773 225 773 q 294 772 275 773 q 333 766 313 770 q 368 753 353 762 q 382 726 382 743 l 382 701 q 357 705 369 701 q 334 715 346 709 q 310 724 323 720 q 282 728 297 728 q 215 711 243 728 q 168 663 187 693 q 136 595 148 633 q 117 514 123 556 q 109 430 111 472 q 106 351 106 388 q 108 300 106 328 q 115 242 110 271 q 129 185 119 213 q 153 136 138 157 q 188 102 167 115 q 237 88 209 88 q 245 89 239 88 q 255 90 252 90 q 283 167 267 127 q 323 239 300 206 q 378 292 347 271 q 446 312 408 312 q 481 300 469 312 q 500 271 494 289 q 510 231 507 254 q 513 187 513 209 q 505 117 513 149 q 482 61 498 85 q 442 21 467 37 q 382 3 418 5 q 251 15 313 -5 q 140 79 189 35 q 62 190 91 123 q 34 342 34 256 m 437 269 q 387 247 408 269 q 351 193 365 225 q 330 125 338 160 q 323 60 323 90 q 387 67 359 60 q 435 91 415 75 q 465 136 454 107 q 475 212 475 165 q 467 253 475 237 q 437 269 460 269 z "},"7":{"ha":502,"x_min":49,"x_max":481,"o":"m 258 62 q 266 184 258 125 q 274 302 274 243 q 271 321 274 316 q 258 335 269 327 q 227 331 250 335 q 178 323 203 327 q 131 317 153 320 q 100 312 109 313 q 92 312 98 312 q 83 312 85 312 l 83 358 q 91 361 83 359 q 110 368 99 363 q 132 375 121 372 q 152 381 144 378 q 177 386 159 382 q 214 393 195 389 q 250 398 233 396 q 274 401 267 400 q 300 533 296 469 q 305 667 305 597 q 241 660 273 667 q 178 644 210 652 q 114 629 146 636 q 49 621 81 621 l 49 650 q 73 661 49 652 q 130 679 96 669 q 199 700 163 689 q 258 715 235 711 q 279 719 263 716 q 311 724 294 722 q 342 726 327 726 q 362 727 357 727 q 355 583 362 656 q 345 446 349 510 q 344 431 343 441 q 346 412 345 422 q 346 392 346 403 l 481 392 q 472 359 481 370 q 448 345 463 349 q 417 342 434 342 q 385 342 400 343 q 359 334 370 340 q 345 312 347 328 l 290 23 l 274 0 q 261 10 264 3 q 256 27 258 18 q 256 46 255 37 q 258 62 258 56 z "},"8":{"ha":426,"x_min":14,"x_max":400,"o":"m 71 122 q 71 140 71 127 q 71 168 71 153 q 70 196 71 183 q 69 213 69 209 q 73 267 69 241 q 80 318 76 293 q 87 369 84 343 q 91 420 91 395 q 79 469 91 448 q 52 512 66 491 q 26 557 38 533 q 14 613 14 582 q 23 686 14 658 q 51 730 33 715 q 98 752 69 746 q 163 758 126 758 q 213 757 179 758 q 279 747 247 755 q 338 721 312 738 q 363 674 363 704 q 362 666 363 671 q 363 656 363 662 q 352 634 363 650 q 323 600 340 618 q 284 560 305 581 q 245 517 263 540 q 216 475 228 495 q 205 439 205 456 q 206 434 205 437 l 206 430 q 261 380 228 410 q 326 313 294 350 q 378 236 357 277 q 400 155 400 195 q 387 98 400 126 q 351 48 373 69 q 300 14 328 27 q 245 0 273 0 q 190 9 214 0 q 144 36 165 19 q 106 75 123 53 q 71 122 88 96 m 107 210 q 148 98 107 136 q 258 60 189 60 q 322 77 300 60 q 345 140 345 94 q 328 214 345 175 q 284 288 311 254 q 224 345 258 323 q 159 368 191 368 q 154 368 157 368 q 149 368 151 368 q 124 330 133 349 q 111 293 115 312 q 107 254 107 274 q 107 210 107 233 m 313 689 q 271 708 293 701 q 228 717 250 715 q 176 719 206 719 q 163 718 174 719 q 143 717 153 718 q 124 715 133 716 q 111 715 115 715 q 79 675 88 700 q 69 623 69 650 q 74 581 69 604 q 90 537 79 557 q 115 503 100 517 q 152 488 129 488 q 159 489 153 488 q 167 491 165 490 l 332 677 q 313 689 323 684 z "},"9":{"ha":419,"x_min":24,"x_max":389,"o":"m 279 66 q 288 246 279 159 q 296 423 296 334 q 262 420 278 423 l 195 408 q 163 404 179 404 q 114 412 138 404 q 69 433 90 419 q 37 471 49 448 q 24 525 24 494 q 39 598 24 562 q 77 664 53 635 q 132 711 100 693 q 199 730 164 730 q 250 724 217 730 q 313 703 282 718 q 367 665 345 689 q 389 609 389 642 q 387 599 389 605 q 382 586 385 593 q 376 574 380 579 q 372 567 373 568 q 369 511 372 549 q 363 425 366 473 q 355 324 359 377 q 348 223 351 271 q 341 137 345 175 q 335 80 338 99 q 333 64 335 76 q 328 40 331 53 q 322 16 324 27 q 317 0 320 5 l 281 20 l 279 27 q 279 39 279 31 q 279 54 279 46 l 279 66 m 80 538 q 86 492 80 510 q 104 463 92 473 q 132 448 115 452 q 170 445 148 445 q 235 459 205 445 q 288 500 266 473 q 323 563 311 528 q 336 640 336 598 q 320 663 336 656 q 283 672 304 670 q 245 673 263 674 q 227 671 228 671 q 169 669 195 678 q 123 640 142 661 q 92 593 103 620 q 80 538 81 567 z "}," ":{"ha":703,"x_min":0,"x_max":0,"o":""},"!":{"ha":190,"x_min":64,"x_max":163,"o":"m 65 335 l 65 349 q 64 371 65 359 q 64 393 64 382 l 64 408 q 67 537 64 475 q 75 662 71 600 q 87 789 80 724 q 103 928 94 854 q 106 928 103 928 q 111 929 110 929 q 127 925 121 929 q 140 909 133 921 l 140 884 q 140 850 140 869 q 140 812 140 830 l 140 758 q 140 720 140 738 q 140 686 140 701 l 140 667 q 138 627 138 655 q 135 565 137 600 q 130 492 133 530 q 126 418 127 453 q 123 356 125 384 q 119 316 121 328 q 111 315 118 316 q 103 315 103 315 q 79 317 90 315 q 65 335 69 319 m 103 18 q 112 33 104 27 q 128 40 119 38 q 146 42 137 42 q 163 42 155 42 q 155 14 163 28 q 129 -1 148 -1 q 113 3 118 -1 q 103 18 107 7 z "},"\"":{"ha":481,"x_min":79,"x_max":400,"o":"m 343 480 q 332 557 342 518 q 312 633 323 595 q 294 709 301 671 q 286 785 286 747 q 334 769 315 785 q 367 728 354 753 q 387 674 380 704 q 396 614 393 644 q 399 557 399 583 q 400 514 400 530 q 395 484 400 495 q 361 461 389 473 l 343 480 m 121 461 q 111 537 118 499 q 98 613 104 575 q 85 688 91 651 q 79 764 79 726 q 120 751 103 764 q 148 718 137 738 q 165 670 159 697 q 174 617 171 643 q 177 567 176 591 q 178 525 178 543 l 178 513 q 177 492 178 503 q 176 473 176 481 q 176 461 176 465 q 164 445 170 449 q 148 441 159 441 q 132 445 138 441 q 121 461 126 449 z "},"#":{"ha":928,"x_min":8,"x_max":891,"o":"m 353 298 q 350 260 353 286 q 345 205 347 235 q 339 149 342 175 q 335 111 336 122 q 278 64 326 64 l 278 307 l 38 307 l 8 349 l 298 389 l 298 393 q 298 404 298 397 l 298 415 q 300 426 300 422 q 299 439 300 431 q 298 457 298 448 q 298 474 298 467 q 298 481 298 481 q 290 500 297 490 q 278 510 282 510 l 75 510 q 82 549 72 540 q 110 558 92 559 q 151 552 127 557 q 197 544 174 547 q 241 547 220 541 q 277 575 262 552 q 298 642 292 598 q 298 761 304 686 l 327 792 l 374 576 l 576 576 q 591 590 587 576 q 595 625 594 604 q 597 669 597 646 q 604 711 598 693 q 622 740 609 730 q 659 742 635 750 l 659 547 l 891 547 l 891 492 l 667 492 q 658 481 665 492 q 650 464 651 469 q 650 456 650 463 q 648 441 650 449 l 647 425 q 647 411 647 416 q 659 378 647 392 q 688 355 670 363 q 730 344 707 347 q 776 338 753 340 q 819 336 799 336 q 854 335 840 335 l 854 286 l 650 286 l 647 277 q 642 256 644 269 q 635 228 639 243 q 631 203 632 213 l 631 195 q 646 103 631 151 q 688 18 661 56 q 672 1 682 3 q 650 -1 662 -1 q 640 -1 648 -1 q 631 0 632 0 q 591 75 604 42 q 574 137 579 107 q 566 200 568 167 q 556 278 564 233 q 549 290 555 282 q 538 298 543 297 l 372 316 l 353 298 m 369 435 q 368 425 369 434 q 369 403 368 415 q 374 381 370 391 q 389 372 378 372 l 556 372 l 579 502 l 389 502 q 374 492 378 502 q 369 469 370 481 q 368 447 368 457 q 369 435 369 437 z "},"$":{"ha":704,"x_min":-5,"x_max":647,"o":"m 274 117 q 262 157 274 141 q 229 185 250 174 q 182 205 208 197 q 132 224 156 213 q 85 248 107 235 q 50 281 64 262 q 33 310 42 292 q 14 346 23 328 q -1 377 5 363 q -5 392 -7 391 l 14 411 q 54 347 28 381 q 113 286 80 313 q 182 241 145 259 q 255 224 218 224 q 288 235 275 224 q 306 264 300 247 q 314 304 312 282 q 316 350 316 327 q 314 394 316 373 q 312 430 312 415 l 312 441 q 312 452 312 446 q 311 463 312 458 l 311 467 l 107 503 q 81 517 90 506 q 69 541 72 528 q 66 569 66 555 q 66 594 66 583 q 92 696 66 658 q 158 754 117 734 q 251 783 199 774 q 357 799 302 792 l 357 949 l 414 949 l 414 799 l 441 819 l 477 1005 l 496 1005 l 496 799 q 528 787 511 796 q 558 765 544 777 q 582 739 572 753 q 591 708 591 724 q 591 698 591 705 q 590 689 591 690 l 496 745 q 486 698 490 719 q 479 658 481 677 q 477 618 477 639 q 477 575 477 598 q 490 523 477 543 q 522 489 503 503 q 562 465 540 475 q 602 439 583 454 q 634 403 621 425 q 647 346 647 381 q 635 286 647 309 q 606 246 624 262 q 568 220 589 231 q 528 199 547 210 q 495 172 509 189 q 477 132 481 156 l 441 -165 q 433 -192 438 -182 q 415 -202 427 -202 q 405 -201 410 -202 q 395 -199 400 -201 q 387 -193 391 -197 q 385 -183 384 -190 l 422 132 q 418 139 422 136 q 409 146 415 142 q 396 151 403 149 q 385 152 389 152 q 376 145 382 151 q 363 134 369 140 q 352 121 357 127 q 347 114 347 115 l 311 -202 q 302 -216 311 -212 q 283 -224 294 -221 q 263 -227 273 -227 q 250 -227 254 -227 q 254 -139 250 -182 q 262 -54 258 -96 q 271 32 267 -11 q 274 117 274 75 m 125 586 q 140 543 125 556 q 180 525 156 530 q 232 520 203 519 q 283 521 260 521 l 292 521 q 300 525 294 522 q 311 530 305 528 q 321 536 316 533 q 328 541 327 540 q 344 648 338 594 q 350 755 350 701 q 269 747 309 755 q 196 718 228 738 q 144 665 164 697 q 125 586 125 632 m 477 239 q 522 246 500 239 q 557 267 543 254 q 582 300 572 281 q 591 345 591 320 q 506 430 591 430 q 492 430 503 430 q 477 430 481 430 l 477 239 m 366 232 q 374 213 366 221 q 395 205 382 205 q 412 209 401 205 q 422 225 422 213 l 422 448 l 404 467 l 385 448 l 382 423 q 378 368 381 400 q 371 300 374 335 q 366 243 368 266 l 366 232 m 422 745 q 416 699 420 726 q 410 640 412 671 q 404 578 407 609 q 401 521 401 547 l 422 521 l 441 726 l 422 745 z "},"%":{"ha":697,"x_min":28,"x_max":677,"o":"m 213 100 q 220 168 213 123 q 241 272 228 213 q 273 399 254 331 q 313 534 292 467 q 360 664 335 602 q 410 773 385 726 q 461 848 435 821 q 510 876 487 876 l 510 817 q 412 620 456 719 q 336 419 368 521 q 287 212 304 317 q 270 -7 270 106 q 240 5 251 -7 q 223 34 229 18 q 215 68 217 50 q 213 100 213 87 m 28 761 q 43 811 28 787 q 79 854 57 836 q 127 883 102 872 q 176 894 153 894 q 218 887 202 894 q 241 867 233 880 q 253 835 250 853 q 256 795 256 817 q 245 744 256 762 q 216 717 235 726 q 174 705 198 708 q 122 703 149 703 q 92 703 109 703 q 62 709 76 704 q 38 727 47 715 q 28 761 28 739 m 492 231 q 491 270 492 248 q 492 311 490 292 q 507 342 495 330 q 543 355 518 355 q 583 351 560 355 q 627 339 606 347 q 663 315 648 331 q 677 278 677 300 q 663 231 677 251 q 629 195 650 210 q 585 173 609 180 q 538 165 560 165 q 511 170 519 165 q 497 181 502 174 q 492 201 492 189 q 492 231 492 213 m 83 780 q 90 772 85 777 q 101 760 95 766 q 113 749 107 754 q 121 742 118 745 q 125 741 122 741 l 129 741 q 153 745 140 741 q 175 758 165 750 q 191 776 184 765 q 197 798 197 787 q 157 836 197 836 q 115 823 129 836 q 83 780 102 810 m 575 317 q 557 308 563 317 q 549 284 551 298 q 547 255 547 270 l 547 232 q 547 217 547 228 q 547 203 547 206 q 568 214 555 206 q 595 231 582 221 q 617 253 609 241 q 623 278 625 264 q 618 285 623 279 q 608 296 613 290 q 595 307 602 301 q 585 316 589 312 q 580 317 583 316 q 575 317 576 317 z "},"&":{"ha":704,"x_min":16,"x_max":693,"o":"m 16 323 q 31 368 16 349 q 64 404 45 387 q 98 437 83 420 q 114 473 114 454 q 107 496 114 488 q 91 509 100 505 q 71 515 81 513 q 52 525 60 518 q 39 543 43 532 q 38 576 34 555 q 73 649 43 623 q 144 688 103 675 q 229 704 184 701 q 307 707 273 707 l 327 707 q 358 706 342 707 q 389 705 374 705 q 408 704 403 704 q 427 699 418 704 q 446 686 437 693 q 459 669 454 678 q 464 650 464 661 q 456 638 464 646 q 445 631 449 631 q 415 658 433 650 q 378 669 397 666 q 337 671 358 671 q 298 670 316 670 q 234 669 270 670 q 166 659 198 667 q 113 628 134 650 q 91 566 91 606 q 96 543 91 555 q 108 523 100 532 q 126 508 115 514 q 149 502 137 502 l 353 502 l 389 481 l 372 464 q 319 460 349 463 q 256 454 289 458 q 190 441 222 450 q 131 416 157 433 q 89 374 104 399 q 73 315 73 350 q 84 285 73 296 q 112 268 95 274 q 151 260 129 262 q 193 258 174 258 q 230 258 213 258 q 255 259 247 259 q 334 260 298 259 q 403 262 369 260 q 473 267 437 263 q 556 278 510 271 q 593 290 576 281 q 627 311 610 300 q 660 330 643 323 q 693 338 677 338 q 667 279 693 301 q 597 243 640 256 q 503 226 555 231 q 402 220 452 221 q 309 221 353 220 q 241 222 266 222 l 216 222 q 176 223 198 222 q 137 224 155 224 l 111 224 q 77 237 94 227 q 46 260 60 247 q 24 289 33 273 q 16 323 16 305 m 237 822 q 252 822 243 822 q 271 819 262 822 q 287 812 279 817 q 298 798 294 807 q 285 783 290 787 q 269 779 279 779 q 244 793 251 779 q 237 822 237 807 m 278 54 q 283 55 279 54 q 286 56 286 56 q 309 47 300 56 q 317 27 317 39 q 307 7 317 12 q 278 0 296 1 l 278 54 z "},"'":{"ha":236,"x_min":75,"x_max":152,"o":"m 75 982 q 79 983 76 982 q 84 983 81 983 q 127 966 114 983 q 146 924 140 949 q 151 873 152 899 q 151 826 151 846 l 151 810 q 150 789 151 799 q 149 770 149 779 l 149 761 q 145 730 148 749 q 140 693 142 711 q 134 663 137 675 q 129 650 130 650 l 75 650 l 75 982 z "},"(":{"ha":335,"x_min":18,"x_max":304,"o":"m 18 377 q 28 464 18 411 q 56 576 38 517 q 100 695 75 635 q 157 803 126 755 q 225 881 189 850 q 304 911 262 911 q 292 878 304 895 q 262 845 279 861 q 229 812 245 829 q 203 780 213 796 q 159 683 180 730 q 123 588 138 636 q 99 490 107 540 q 91 385 91 441 q 96 298 91 335 q 111 226 100 260 q 140 155 122 191 q 186 75 159 119 q 193 67 187 72 q 205 56 198 62 q 217 44 212 49 q 224 38 222 39 q 225 33 225 37 q 225 28 225 30 q 220 14 225 19 q 208 5 214 8 q 192 0 201 1 q 176 -1 183 -1 q 136 25 156 -1 q 99 91 117 52 q 66 178 81 130 q 41 267 52 225 q 24 340 30 309 q 18 377 18 372 z "},")":{"ha":298,"x_min":16,"x_max":262,"o":"m 16 28 q 17 33 16 30 q 18 38 18 37 q 107 127 71 79 q 166 230 144 176 q 197 343 189 283 q 206 468 206 403 q 199 574 206 521 q 176 679 193 628 q 130 774 159 730 q 56 854 100 818 q 60 854 56 854 q 66 854 64 854 q 135 831 104 854 q 187 771 165 808 q 223 688 209 734 q 245 596 237 642 q 258 511 254 551 q 262 446 262 471 q 258 376 262 416 q 245 289 254 335 q 221 196 236 243 q 185 110 206 149 q 137 41 164 71 q 75 0 110 12 q 64 1 72 -1 q 48 5 57 3 q 31 12 39 8 q 18 18 23 16 q 17 22 18 18 q 16 28 16 27 z "},"*":{"ha":781,"x_min":79,"x_max":792,"o":"m 433 208 q 420 184 433 193 q 394 178 408 176 q 368 191 380 180 q 355 225 355 202 l 355 484 l 129 324 q 104 322 118 316 q 84 341 91 328 q 79 370 77 354 q 99 400 80 387 l 283 530 l 133 530 q 137 543 134 537 q 143 555 140 549 q 152 566 146 560 q 205 585 179 582 q 256 586 232 587 q 299 585 279 585 q 332 597 319 585 l 218 757 q 232 762 225 760 q 245 762 239 762 q 259 761 251 762 q 294 739 279 751 q 319 712 309 726 q 338 684 330 699 q 355 659 347 670 q 357 697 357 671 q 357 750 357 723 q 357 802 357 777 q 355 836 357 826 q 368 854 357 850 q 394 857 380 859 q 420 850 408 854 q 433 842 433 845 l 433 640 q 441 644 437 642 q 450 648 445 646 q 480 667 458 652 q 525 699 502 682 q 569 730 548 715 q 598 753 590 746 q 618 752 609 760 q 635 732 628 745 q 646 707 642 719 q 648 692 650 694 l 524 604 l 765 604 l 792 570 q 757 555 780 560 q 703 548 734 551 q 638 546 673 545 q 572 547 604 547 q 511 547 540 547 q 463 543 481 547 l 646 283 l 633 243 q 587 277 613 248 q 533 342 560 305 q 481 417 506 378 q 433 481 456 456 l 433 208 z "},"+":{"ha":464,"x_min":5,"x_max":445,"o":"m 5 286 q 8 298 5 293 q 18 316 12 311 q 48 331 33 327 q 77 334 64 335 q 103 332 91 334 q 125 334 115 331 q 140 351 134 338 q 149 389 146 363 q 151 419 151 397 l 151 509 q 149 538 151 530 q 160 554 155 551 q 176 557 165 557 q 181 557 178 557 q 186 556 184 556 q 202 547 191 555 q 213 538 213 540 l 213 343 l 427 343 l 445 316 q 414 302 435 305 q 368 297 393 298 q 314 297 342 296 q 264 297 286 298 q 228 292 243 296 q 213 278 213 288 l 213 18 q 209 9 213 14 q 199 3 205 5 q 186 0 193 1 q 175 -1 179 -1 q 149 38 149 -1 l 149 286 l 5 286 z "},",":{"ha":232,"x_min":1,"x_max":189,"o":"m 1 -206 q 60 -157 38 -182 q 95 -106 83 -133 q 111 -47 107 -79 q 115 26 115 -15 q 111 68 115 47 q 103 108 107 88 q 96 148 99 127 q 92 189 92 168 q 144 170 126 189 q 172 122 163 151 q 185 62 182 94 q 189 7 189 30 q 181 -46 189 -18 q 161 -102 174 -75 q 132 -152 149 -129 q 94 -189 115 -175 q 75 -199 87 -193 q 51 -212 62 -206 q 31 -222 39 -218 q 20 -227 22 -227 l 1 -206 z "},"-":{"ha":481,"x_min":50,"x_max":460,"o":"m 69 316 l 441 316 q 456 307 452 316 q 460 289 460 298 q 452 270 460 278 q 433 262 445 262 l 422 262 q 362 264 396 262 q 291 269 328 267 q 217 273 254 271 q 152 276 180 274 q 104 279 123 278 l 88 279 l 50 298 l 69 316 z "},".":{"ha":121,"x_min":18,"x_max":79,"o":"m 18 18 q 24 41 18 31 q 39 56 30 50 q 58 64 47 62 q 79 66 69 66 l 79 56 q 77 33 79 45 q 70 10 75 20 q 56 0 65 0 q 47 3 53 0 q 36 7 42 5 q 24 13 30 9 q 18 18 19 16 z "},"/":{"ha":529,"x_min":8,"x_max":510,"o":"m 8 28 q 8 33 8 30 q 8 38 8 37 q 57 100 24 57 q 130 199 90 144 q 214 314 170 254 q 298 430 258 374 q 370 529 338 486 q 419 594 403 572 q 429 612 422 600 q 446 640 437 625 q 463 668 456 654 q 473 688 469 682 l 510 688 q 470 578 498 635 q 405 463 442 521 q 323 345 368 404 q 234 230 279 286 q 145 120 189 174 q 65 18 102 66 q 52 3 56 7 q 38 -1 49 -1 q 17 7 26 -1 q 8 28 8 16 z "},":":{"ha":217,"x_min":66,"x_max":133,"o":"m 66 28 q 75 48 66 41 q 96 56 84 56 q 117 48 109 56 q 125 28 125 41 q 117 7 125 16 q 96 -1 109 -1 q 75 7 84 -1 q 66 28 66 16 m 76 305 q 84 325 76 316 q 104 334 92 334 q 125 325 117 334 q 133 305 133 316 q 125 283 133 292 q 104 275 117 275 q 84 283 92 275 q 76 305 76 292 z "},";":{"ha":210,"x_min":-5,"x_max":153,"o":"m 115 92 q 137 90 129 92 q 149 81 145 87 q 153 66 152 75 q 153 49 153 58 q 140 -14 153 19 q 105 -75 127 -46 q 55 -123 83 -104 q -5 -141 27 -141 q 7 -90 -5 -118 q 37 -33 19 -62 q 71 24 54 -4 q 96 75 88 53 q 105 85 98 79 q 115 92 113 92 m 79 372 l 87 373 q 96 374 94 374 q 127 363 115 374 q 140 335 140 353 l 79 335 l 79 372 z "},"<":{"ha":594,"x_min":8,"x_max":556,"o":"m 8 203 q 26 220 16 213 q 45 235 35 228 q 66 249 56 243 q 83 260 77 255 q 120 296 95 271 q 176 351 145 320 q 241 415 208 382 l 308 481 q 362 538 338 513 q 399 576 387 563 q 420 602 404 581 q 455 650 437 624 q 490 697 473 675 q 510 724 506 719 q 529 743 521 738 q 556 747 537 747 q 551 701 556 726 q 536 653 545 677 q 516 609 528 629 q 492 576 505 589 l 140 203 q 184 185 152 195 q 258 161 217 175 q 345 133 300 148 q 426 102 389 118 q 487 66 463 85 q 511 28 511 47 q 503 7 511 16 q 481 -1 495 -1 l 477 0 l 473 0 q 401 25 444 12 q 314 53 359 38 q 222 85 269 68 q 134 121 176 102 q 60 160 92 140 q 8 203 27 180 z "},"=":{"ha":510,"x_min":27,"x_max":461,"o":"m 435 107 l 45 107 q 55 119 47 111 q 65 126 62 126 q 83 130 71 127 q 111 136 96 133 q 139 142 126 140 q 157 144 152 144 q 189 146 167 145 q 239 147 212 146 q 296 149 266 148 q 355 150 327 149 q 404 151 382 151 q 435 152 425 152 l 435 107 m 81 330 l 461 330 q 456 316 461 323 q 445 304 452 309 q 431 296 438 298 q 418 294 423 294 l 45 294 l 27 312 l 81 330 z "},">":{"ha":566,"x_min":23,"x_max":549,"o":"m 66 18 q 127 76 90 46 q 209 136 165 106 q 296 197 252 165 q 376 259 340 228 q 434 323 411 290 q 457 389 457 357 q 454 412 457 404 q 437 426 452 419 l 46 650 q 30 666 37 656 q 23 688 23 675 l 83 688 q 105 677 84 688 q 158 651 126 667 q 231 614 190 635 q 313 574 273 594 q 391 535 353 555 q 456 502 429 515 q 482 486 467 495 q 513 465 498 477 q 539 437 529 452 q 549 408 549 422 q 532 353 549 382 q 492 294 515 323 q 442 241 468 264 q 399 203 416 217 q 376 188 393 201 q 335 157 359 175 q 283 120 311 140 q 228 81 255 100 q 177 45 201 61 q 140 18 153 28 q 131 13 137 16 q 119 7 125 9 q 109 3 113 5 l 103 0 q 95 3 100 0 q 84 7 90 5 q 73 13 79 9 q 66 18 66 16 z "},"?":{"ha":553,"x_min":33,"x_max":518,"o":"m 90 481 q 87 492 88 484 q 85 502 85 499 q 113 560 85 534 q 183 608 141 586 q 274 654 225 631 q 365 704 323 677 q 435 765 407 731 q 463 844 463 799 q 448 899 463 878 q 412 930 434 920 q 363 945 391 941 q 307 948 335 948 q 233 930 269 948 q 164 891 197 913 q 105 852 132 869 q 62 834 79 834 q 41 842 49 834 q 33 864 33 850 q 50 905 33 887 q 96 940 68 924 q 158 968 125 956 q 225 987 191 979 q 287 998 259 994 q 331 1002 315 1002 q 469 963 419 1002 q 518 836 518 924 q 518 825 518 833 q 518 808 518 817 q 517 791 518 799 q 517 780 517 783 q 467 731 500 758 q 392 677 433 704 q 307 623 351 650 q 227 573 263 595 q 167 534 190 551 q 144 510 144 518 q 157 483 144 495 q 182 464 171 471 l 210 445 q 256 416 232 431 q 301 389 279 401 q 331 372 323 376 q 331 367 331 370 q 331 361 331 363 q 323 341 331 349 q 304 334 316 334 q 241 349 273 334 q 182 388 210 365 q 130 437 153 411 q 90 481 106 463 m 391 38 q 382 12 391 24 q 359 -1 373 -1 q 335 12 345 -1 q 326 38 326 24 l 391 38 z "},"@":{"ha":1290,"x_min":27,"x_max":1255,"o":"m 27 510 q 42 663 27 587 q 87 806 57 738 q 163 930 118 873 q 266 1029 208 987 q 397 1093 324 1070 q 556 1116 469 1116 q 648 1107 598 1116 q 749 1080 699 1099 q 847 1035 799 1062 q 932 973 895 1008 q 991 895 968 939 q 1013 802 1013 852 q 1001 712 1013 760 q 964 626 989 665 q 901 562 939 587 q 814 536 864 536 q 792 543 800 536 q 777 557 784 549 q 762 570 770 564 q 742 576 754 576 q 695 565 719 576 q 646 539 671 553 q 594 513 621 525 q 538 500 567 500 q 433 539 469 500 q 396 642 396 578 q 411 720 396 686 q 450 775 426 753 q 509 808 475 798 q 586 818 544 818 q 661 800 628 818 q 717 755 693 783 q 758 696 741 728 q 787 638 774 665 q 808 594 799 612 q 825 576 818 576 q 867 589 848 576 q 904 622 887 602 q 934 667 921 642 q 956 719 947 693 q 970 768 964 745 q 975 807 975 792 q 952 897 975 859 q 892 962 929 935 q 807 1009 854 990 q 710 1040 760 1028 q 614 1055 661 1051 q 530 1059 567 1059 q 388 1038 452 1059 q 276 977 324 1016 q 195 886 228 939 q 141 771 163 833 q 110 641 119 709 q 100 503 100 572 q 133 298 100 384 q 229 158 165 213 q 381 78 292 103 q 585 53 471 53 q 684 58 624 53 q 811 73 745 62 q 946 103 878 84 q 1072 151 1015 122 q 1167 221 1128 180 q 1215 316 1206 262 q 1201 359 1219 338 q 1157 397 1183 380 q 1105 431 1131 415 q 1067 464 1080 448 l 1086 481 q 1107 484 1092 488 q 1142 466 1123 479 q 1181 434 1161 453 q 1217 396 1200 415 q 1244 358 1234 377 q 1255 327 1255 339 q 1217 213 1255 262 q 1120 127 1180 164 q 985 66 1059 91 q 837 27 911 42 q 697 5 762 12 q 591 -1 632 -1 q 351 27 456 -1 q 175 117 247 56 q 65 275 103 178 q 27 510 27 372 m 454 620 q 462 591 454 605 q 481 564 469 576 q 507 543 492 551 q 537 536 521 536 q 604 545 570 536 q 665 572 639 553 q 705 618 690 590 q 715 688 720 646 q 702 733 712 715 q 676 762 692 751 q 640 776 661 772 q 594 780 618 780 q 532 768 557 780 q 488 734 506 755 q 463 684 471 713 q 454 620 454 655 z "},"A":{"ha":891,"x_min":11,"x_max":856,"o":"m 11 12 q 20 55 11 34 q 41 96 28 76 q 67 133 53 115 q 92 165 81 151 q 210 355 159 262 q 305 543 262 448 q 387 739 349 639 q 464 945 425 838 q 475 962 469 958 q 492 967 481 967 q 515 954 506 967 q 530 925 525 941 q 536 893 534 909 q 538 872 538 878 q 541 836 540 863 q 544 774 543 810 q 547 696 545 738 q 551 618 549 654 q 554 555 553 582 q 556 518 555 529 q 559 503 556 514 q 564 481 562 492 q 570 458 567 469 q 576 445 574 448 q 583 438 576 444 q 595 427 589 433 q 608 415 602 420 q 613 408 613 410 q 614 395 614 406 q 614 372 614 384 q 613 348 613 359 q 613 335 613 336 q 640 279 620 311 q 688 214 661 248 q 745 148 715 180 q 799 90 774 115 q 840 47 823 64 q 856 27 856 30 q 844 7 856 14 q 817 0 833 0 q 752 24 785 0 q 688 86 719 49 q 627 167 656 123 q 576 248 598 210 q 539 310 555 285 q 519 335 524 335 l 298 335 q 237 311 262 335 q 194 250 213 286 q 159 173 175 214 q 123 96 144 132 q 77 36 103 60 q 11 12 52 12 m 464 798 q 460 791 463 796 q 454 780 457 785 q 448 768 452 774 q 445 761 445 762 q 421 703 434 738 q 393 631 408 667 l 365 557 q 340 492 351 521 q 323 446 330 464 q 316 426 316 427 l 316 408 l 503 408 l 464 798 z "},"B":{"ha":640,"x_min":38,"x_max":616,"o":"m 56 724 q 79 805 57 777 q 134 844 100 833 q 209 855 167 854 q 296 856 251 856 q 363 850 335 856 q 411 827 392 844 q 439 785 430 811 q 448 719 448 760 q 421 628 448 665 q 353 556 395 591 q 414 522 382 532 q 474 507 445 513 q 529 495 503 502 q 574 471 555 488 q 604 420 593 454 q 616 328 616 387 q 585 195 616 255 q 505 91 555 134 q 389 23 456 47 q 250 -1 323 -1 q 235 -1 244 -1 q 224 0 225 0 q 176 13 205 5 q 121 30 148 20 q 75 46 94 39 q 56 54 56 53 l 38 148 l 56 724 m 346 484 l 320 484 q 277 483 301 484 q 227 477 254 481 q 180 467 201 473 q 144 451 159 461 q 129 426 129 441 l 129 75 q 134 69 129 72 q 145 63 138 66 q 157 58 152 60 q 167 54 163 56 l 175 54 q 189 54 180 54 q 206 54 198 54 l 221 54 q 340 68 283 54 q 443 114 397 83 q 515 194 488 145 q 541 312 541 243 q 530 397 541 363 q 494 450 518 431 q 432 477 469 469 q 346 484 395 484 m 283 799 q 242 800 269 799 q 191 796 216 800 q 147 780 165 792 q 129 742 129 768 l 129 515 q 203 532 161 515 q 284 577 245 549 q 349 640 323 605 q 374 712 374 675 q 354 781 374 762 q 283 799 334 799 z "},"C":{"ha":734,"x_min":27,"x_max":700,"o":"m 27 342 q 60 547 27 450 q 140 742 92 644 q 179 787 163 769 q 214 815 195 804 q 254 831 232 826 q 309 836 277 836 q 380 827 340 836 q 456 799 420 818 q 517 751 492 780 q 541 681 541 722 q 486 699 514 681 q 429 739 458 718 q 366 779 400 761 q 286 798 331 798 q 232 772 258 798 q 185 707 206 747 q 149 618 164 667 q 123 522 133 570 q 107 434 113 475 q 102 370 102 393 q 125 237 102 296 q 190 138 148 178 q 292 76 232 98 q 427 54 353 54 q 519 66 479 54 q 589 93 559 79 q 638 119 618 107 q 667 130 658 130 q 685 125 678 130 q 694 113 692 121 q 699 97 697 106 q 700 79 700 88 q 681 39 700 54 q 633 14 662 23 q 567 1 604 5 q 496 -3 530 -3 q 431 -2 461 -3 q 385 -1 401 -1 q 243 24 309 -1 q 130 94 178 49 q 54 202 81 140 q 27 342 27 264 z "},"D":{"ha":761,"x_min":38,"x_max":728,"o":"m 56 75 l 56 780 q 67 811 56 799 q 96 829 79 823 q 134 838 113 836 q 178 839 156 840 q 218 837 199 838 q 248 836 236 836 q 364 824 307 836 q 476 789 422 812 q 576 734 530 766 q 655 656 621 701 q 709 557 689 612 q 728 438 728 503 q 702 317 728 374 q 630 210 675 259 q 526 122 585 161 q 402 56 467 83 q 272 14 338 28 q 149 -1 206 -1 q 91 10 119 -1 q 38 38 62 22 l 56 75 m 129 680 q 131 523 129 604 q 136 361 133 442 q 142 202 138 279 q 149 54 145 125 q 153 54 151 54 q 159 54 156 54 q 262 66 206 54 q 372 102 317 79 q 478 159 427 126 q 567 233 529 191 q 629 323 605 274 q 652 426 652 372 q 614 582 652 514 q 513 694 575 650 q 371 761 450 738 q 210 784 292 784 q 195 783 203 784 q 176 782 186 783 q 159 781 165 781 q 149 780 152 780 l 129 761 l 129 750 q 129 728 129 741 q 129 701 129 715 l 129 680 z "},"E":{"ha":613,"x_min":31,"x_max":594,"o":"m 37 426 q 37 498 37 467 q 40 559 38 529 q 46 624 42 590 q 56 704 50 658 q 157 736 111 724 q 246 755 202 749 q 336 764 290 762 q 434 766 381 766 q 460 766 444 766 q 492 764 476 765 q 522 762 509 762 q 540 761 536 762 l 576 742 l 556 724 q 520 726 547 726 q 464 726 494 726 q 408 726 434 726 q 372 724 382 726 q 326 717 353 722 q 269 707 298 712 q 212 695 240 701 q 162 684 184 689 q 125 674 140 678 q 111 667 111 670 l 111 426 l 471 426 q 450 404 471 412 q 394 390 429 396 q 319 379 359 384 q 241 371 279 374 q 172 363 202 368 q 129 353 142 359 q 129 330 129 346 q 128 297 129 315 q 127 262 127 279 l 127 240 q 127 185 127 217 q 130 124 126 153 q 150 75 134 95 q 199 54 165 54 q 291 57 245 54 q 382 63 336 60 q 474 71 429 66 q 566 75 519 75 l 594 75 q 570 47 585 61 q 536 24 555 34 q 500 7 518 14 q 464 0 481 0 l 167 0 q 98 25 125 0 q 57 90 72 50 q 37 177 42 129 q 32 273 33 225 q 34 362 31 321 q 37 426 37 403 z "},"F":{"ha":650,"x_min":28,"x_max":623,"o":"m 83 18 q 61 202 71 103 q 44 404 52 301 q 33 604 37 506 q 28 789 28 703 l 28 798 q 32 805 30 799 q 37 817 34 811 q 42 827 39 822 q 46 836 45 833 q 174 835 111 833 q 300 842 237 837 q 425 852 362 848 q 551 856 487 856 l 566 856 q 581 855 572 856 q 596 854 590 854 q 604 854 602 854 l 623 836 l 604 817 q 582 813 602 815 q 530 808 562 811 q 458 800 498 804 q 376 792 418 796 q 298 785 335 788 q 232 780 260 781 q 176 779 198 777 q 141 778 153 781 q 124 760 129 774 q 119 709 119 745 l 119 694 q 120 676 119 686 q 121 658 121 666 l 121 650 q 125 604 122 631 q 130 549 127 576 q 136 503 133 522 q 140 481 140 483 l 159 464 l 496 464 q 483 433 496 441 q 450 423 469 425 q 411 425 430 422 q 381 426 392 427 q 355 425 372 426 q 316 422 338 423 q 270 418 294 420 q 223 414 245 416 q 183 410 201 412 q 159 408 165 408 q 148 390 155 404 q 140 372 141 376 l 140 353 q 142 315 140 340 q 146 260 144 290 q 150 195 148 229 q 153 130 152 160 q 156 74 155 99 q 159 38 157 49 q 147 25 155 31 q 132 14 140 19 q 116 4 125 8 q 103 0 107 0 q 90 7 98 0 q 83 18 83 14 z "},"G":{"ha":1012,"x_min":26,"x_max":981,"o":"m 667 129 q 638 112 661 123 q 591 89 616 100 q 544 67 567 77 q 510 54 521 57 l 500 54 q 477 54 491 54 q 450 53 464 53 l 429 53 q 279 78 351 53 q 149 151 206 103 q 59 267 92 199 q 26 419 26 335 q 34 519 26 464 q 58 632 42 575 q 100 743 75 689 q 163 838 126 796 q 247 906 199 880 q 354 932 294 932 q 425 920 387 932 q 497 884 464 907 q 553 830 530 861 q 575 761 575 799 l 547 761 q 503 812 521 791 q 465 848 484 834 q 420 867 445 861 q 361 873 396 873 q 279 854 316 873 q 214 801 243 834 q 163 725 184 768 q 128 637 141 682 q 108 548 115 591 q 100 469 100 505 q 120 332 100 396 q 179 218 140 267 q 277 139 218 168 q 411 110 335 110 q 518 121 475 110 q 593 159 562 133 q 649 228 625 184 q 697 335 673 271 l 659 353 q 554 339 602 345 q 452 334 506 334 q 437 333 445 334 q 422 334 430 332 q 407 339 414 335 q 399 353 400 343 q 418 372 404 363 q 451 387 433 381 q 490 397 469 393 q 530 403 511 400 q 564 407 549 406 q 585 408 579 408 q 630 410 600 408 q 699 412 661 411 q 781 414 738 412 q 864 415 825 415 q 935 416 903 415 q 981 416 966 416 q 980 404 981 415 q 977 379 979 393 q 969 354 974 365 q 956 343 964 343 l 770 343 q 754 321 758 343 q 751 264 750 298 q 753 189 751 229 q 753 113 755 149 q 743 50 751 77 q 715 18 734 23 q 686 14 701 16 l 667 12 l 667 129 z "},"H":{"ha":704,"x_min":37,"x_max":669,"o":"m 56 372 q 42 394 47 384 q 37 419 37 404 q 40 434 37 429 q 56 445 43 439 l 56 884 q 94 872 79 884 q 111 836 110 860 l 149 464 l 540 464 l 556 481 q 560 509 557 483 q 566 570 563 536 q 572 643 568 605 q 576 704 575 681 q 576 734 576 713 q 576 779 576 755 q 576 825 576 803 q 576 854 576 846 l 613 891 q 623 884 616 891 q 631 872 631 876 q 636 853 633 867 q 642 825 639 840 q 648 798 646 811 q 650 780 650 785 q 651 745 651 769 l 651 568 q 650 517 651 540 q 650 481 650 494 q 664 459 659 469 q 669 435 669 449 q 664 412 669 422 q 650 389 659 403 l 650 92 q 646 81 650 85 q 635 75 642 77 q 624 73 629 73 l 613 73 q 601 74 609 73 q 585 77 593 75 q 572 82 578 79 q 566 92 566 85 l 566 372 l 540 408 l 149 389 l 111 18 q 107 13 111 16 q 97 7 103 9 q 85 3 91 5 q 75 0 79 0 q 63 7 71 0 q 56 18 56 14 l 56 372 z "},"I":{"ha":148,"x_min":46,"x_max":103,"o":"m 66 945 q 77 936 71 943 q 88 921 83 929 q 98 905 94 913 q 103 891 103 897 l 103 18 q 96 7 103 14 q 83 0 88 0 q 73 3 79 0 q 60 7 66 5 q 50 13 54 9 q 46 18 46 16 l 46 909 l 66 945 z "},"J":{"ha":817,"x_min":28,"x_max":799,"o":"m 28 165 q 31 175 28 170 q 35 186 33 180 q 41 197 38 193 q 46 203 45 202 q 83 134 58 163 q 141 87 109 104 q 212 62 174 69 q 288 54 250 54 q 351 68 326 54 q 399 111 376 81 q 422 195 414 159 q 433 264 430 231 q 437 335 437 298 q 438 415 438 372 l 438 445 q 437 486 438 465 q 437 521 437 506 q 437 538 437 536 q 432 591 434 560 q 425 654 430 621 q 416 720 420 688 q 409 777 412 751 q 403 819 406 803 q 399 836 400 836 l 66 836 l 66 872 q 74 877 66 873 q 94 883 81 880 q 119 888 106 886 q 140 891 132 891 l 153 891 q 182 891 165 891 q 217 891 199 891 l 244 891 q 315 892 264 891 q 427 892 365 894 q 554 887 488 891 q 675 872 620 883 q 764 843 730 861 q 799 798 799 825 l 495 798 q 503 587 495 692 q 511 378 511 483 q 509 294 511 338 q 500 208 507 250 q 479 128 494 165 q 439 62 464 91 q 378 16 415 33 q 288 -1 340 -1 q 208 7 252 -1 q 123 36 163 16 q 56 87 83 56 q 28 165 28 119 z "},"K":{"ha":836,"x_min":34,"x_max":818,"o":"m 56 761 q 39 834 45 796 q 34 909 34 872 l 92 909 q 98 892 94 909 q 109 852 103 875 q 121 803 115 829 q 129 761 127 777 q 135 718 132 749 q 141 650 138 686 q 146 583 144 614 q 149 538 149 551 l 186 538 q 204 549 187 538 q 245 574 221 559 q 294 604 269 589 q 335 631 319 620 q 458 720 397 674 q 576 817 518 766 l 613 817 l 613 798 q 600 783 613 796 q 570 752 587 770 q 533 716 552 734 q 502 688 514 699 q 455 652 484 673 q 391 610 426 632 q 319 566 355 589 q 252 522 282 543 q 203 484 222 500 q 184 456 184 467 q 184 449 184 453 q 186 445 184 445 l 298 316 l 576 141 q 639 138 612 141 q 692 130 666 134 q 748 120 719 125 q 818 111 777 115 l 818 107 l 818 103 q 814 85 818 92 q 799 75 811 79 q 785 73 795 75 q 766 71 776 72 q 747 71 755 71 q 734 71 738 71 q 597 92 665 71 q 463 145 529 113 q 337 218 397 178 q 224 298 277 259 q 198 317 205 309 q 188 330 191 324 q 177 342 184 336 q 149 353 170 347 q 150 334 149 347 q 151 306 151 321 q 150 277 151 290 q 149 260 149 264 q 146 221 148 243 q 142 174 144 199 q 138 125 140 149 q 135 81 137 100 q 130 49 133 62 l 129 38 l 92 0 l 56 38 l 56 761 z "},"L":{"ha":883,"x_min":34,"x_max":872,"o":"m 157 38 q 125 34 140 38 q 96 26 111 30 q 65 18 80 22 q 34 15 50 15 q 38 101 34 60 q 56 186 42 142 l 56 872 l 92 872 q 97 859 94 872 q 104 822 100 845 q 111 771 107 799 q 119 715 115 743 q 125 659 122 686 q 129 613 127 631 q 133 556 130 594 q 138 471 136 518 q 142 371 140 423 q 146 271 144 319 q 149 186 148 224 q 149 129 149 148 q 186 102 155 114 q 263 82 217 91 q 362 68 309 73 q 463 59 415 62 q 549 55 511 56 q 601 54 587 54 q 663 63 633 54 q 723 83 693 72 q 783 103 753 94 q 846 113 814 113 q 865 104 859 113 q 872 83 872 96 q 849 54 872 66 q 790 31 826 41 q 711 15 754 22 q 625 5 667 8 q 551 0 583 1 q 502 -1 518 -1 q 414 5 457 -1 q 329 19 372 11 q 243 33 286 27 q 157 38 201 38 z "},"M":{"ha":966,"x_min":27,"x_max":937,"o":"m 121 798 l 159 836 l 195 798 l 361 389 l 365 389 q 370 388 368 388 q 399 408 389 388 l 547 704 l 652 811 l 697 724 q 711 581 704 661 q 730 418 718 502 q 766 255 743 335 q 825 111 788 175 q 852 79 837 91 q 883 60 868 68 q 912 43 898 53 q 937 18 926 34 q 919 0 933 1 q 892 -1 905 -1 q 812 26 849 -1 q 747 93 774 53 q 701 178 719 133 q 677 260 682 224 q 670 309 675 275 q 659 384 665 342 q 648 473 654 426 q 636 562 642 519 q 627 637 631 604 q 623 688 624 671 q 550 602 582 654 q 494 491 518 549 q 451 376 469 433 q 419 278 433 319 q 399 260 414 262 q 372 258 384 258 q 357 258 368 258 q 345 260 347 259 q 259 432 294 342 q 195 613 224 522 l 176 631 q 168 571 174 612 q 155 479 163 530 q 140 371 148 427 q 124 264 132 315 q 111 172 117 213 q 103 111 104 130 q 89 55 98 87 q 66 0 80 23 q 54 10 60 3 q 41 26 47 18 q 31 42 35 34 q 28 54 27 50 l 121 798 z "},"N":{"ha":761,"x_min":27,"x_max":720,"o":"m 473 54 q 378 201 426 125 q 287 359 331 278 q 205 522 243 439 q 140 688 167 605 l 118 688 q 118 650 118 677 q 119 595 118 624 q 121 538 121 566 l 121 502 q 119 452 119 484 q 117 377 118 419 q 113 288 115 335 q 109 199 111 241 q 104 124 106 157 q 103 75 103 91 q 92 62 99 68 q 77 50 85 56 q 60 41 68 45 q 46 38 53 38 q 34 44 38 38 q 28 58 30 50 q 27 75 27 66 q 27 87 27 83 q 31 251 27 170 q 39 414 35 332 q 46 578 43 495 q 46 742 49 661 q 82 787 64 776 q 129 799 100 799 q 144 799 133 799 q 159 798 155 799 q 242 623 201 705 q 326 460 283 540 q 412 304 368 381 q 510 148 457 227 q 519 138 513 145 q 530 129 526 132 q 531 181 530 146 q 534 260 532 216 q 538 353 536 305 q 541 445 540 400 q 545 524 543 490 q 547 576 547 559 q 553 638 549 601 q 566 718 557 675 q 588 801 575 760 q 620 876 601 842 q 663 930 639 909 q 720 952 688 952 q 711 892 720 921 q 688 838 701 864 q 657 787 674 812 q 627 735 640 762 q 604 678 613 708 q 594 613 594 648 l 594 18 l 589 15 q 576 9 583 12 q 561 4 568 7 q 547 0 553 1 l 544 0 q 538 -1 540 -1 l 533 -1 q 530 0 532 -1 q 518 10 526 3 q 501 26 510 18 q 484 44 492 35 q 473 54 476 53 z "},"O":{"ha":613,"x_min":27,"x_max":568,"o":"m 27 247 q 33 347 27 290 q 51 464 38 404 q 85 581 64 524 q 138 683 106 639 q 213 755 170 727 q 312 783 256 783 q 439 751 389 783 q 517 668 488 719 q 557 554 545 617 q 568 427 568 491 q 552 269 568 346 q 497 131 536 191 q 397 35 458 71 q 240 -1 335 -1 q 140 18 180 -1 q 75 71 100 38 q 38 149 49 103 q 27 247 27 195 m 102 267 q 107 186 102 225 q 130 118 113 146 q 178 72 146 90 q 262 54 209 54 q 384 85 335 54 q 461 167 433 117 q 501 279 490 217 q 513 404 513 342 q 512 449 513 420 q 508 510 511 477 q 498 578 505 543 q 479 641 491 613 q 446 686 467 669 q 399 704 426 704 q 286 689 334 704 q 204 645 237 674 q 151 576 171 616 q 119 488 130 536 q 105 383 109 439 q 102 267 102 327 z "},"P":{"ha":620,"x_min":30,"x_max":616,"o":"m 49 833 q 56 837 50 834 q 65 840 62 840 q 79 837 72 840 q 77 840 79 840 q 75 848 75 846 q 87 881 75 869 q 119 899 100 892 q 161 907 138 906 q 205 909 184 909 q 244 907 227 909 q 269 906 262 906 q 341 905 301 906 q 419 898 381 903 q 493 881 457 892 q 556 848 529 869 q 600 795 583 827 q 616 719 616 764 q 604 630 616 670 q 557 551 591 590 q 473 497 518 525 q 378 449 427 469 q 278 415 330 429 q 176 401 227 401 q 159 402 170 401 q 137 406 148 403 q 119 414 126 408 q 111 431 111 420 q 111 436 111 433 q 113 441 111 439 q 200 448 156 438 q 287 474 244 457 q 370 511 330 491 q 445 551 410 530 q 473 568 457 557 q 503 591 488 579 q 529 614 518 604 q 540 627 540 624 l 540 774 q 535 781 540 776 q 524 793 530 787 q 512 805 518 799 q 502 811 506 811 q 437 838 467 829 q 380 850 408 846 q 320 853 351 853 l 250 853 q 224 852 240 853 q 193 851 209 852 q 164 850 176 850 q 149 848 152 849 l 99 815 q 103 799 102 808 q 104 777 104 788 l 104 72 q 98 62 104 71 q 85 53 91 54 q 75 48 83 52 q 58 43 66 45 q 41 38 49 41 q 30 34 34 35 l 30 739 l 49 833 z "},"Q":{"ha":713,"x_min":27,"x_max":677,"o":"m 27 259 q 35 347 27 293 q 56 464 42 401 q 93 589 71 526 q 146 703 115 652 q 218 786 178 754 q 309 818 259 818 q 447 790 385 818 q 552 715 509 762 q 618 603 595 667 q 642 464 642 538 q 635 406 642 433 q 622 351 629 378 q 608 296 614 323 q 602 237 602 269 q 613 197 602 213 q 638 166 624 180 q 664 135 652 152 q 677 92 675 118 q 664 90 675 91 q 650 90 652 90 q 619 99 631 90 q 597 120 608 109 q 576 142 587 132 q 547 152 566 152 q 538 151 545 152 q 530 148 532 149 q 456 83 494 111 q 379 37 419 56 q 295 7 339 18 q 199 -3 251 -3 q 115 22 149 -3 q 62 86 81 47 q 35 170 42 125 q 27 259 27 216 m 100 282 q 104 205 100 243 q 120 138 107 168 q 160 90 133 109 q 235 72 187 72 q 312 81 277 72 q 378 106 347 90 q 436 146 408 122 q 492 203 464 171 l 361 335 l 361 366 q 412 359 391 366 q 450 340 433 353 q 486 311 468 327 q 530 278 505 296 q 565 313 553 292 q 581 359 576 335 q 587 410 586 384 q 587 457 587 435 q 574 570 587 513 q 532 675 560 628 q 456 751 503 722 q 343 781 410 781 q 258 753 294 781 q 193 682 221 726 q 148 582 165 637 q 120 471 130 526 q 105 365 110 415 q 100 282 100 315 z "},"R":{"ha":845,"x_min":27,"x_max":825,"o":"m 46 742 q 31 770 34 760 q 27 798 27 781 q 43 849 27 826 q 85 889 60 872 q 143 917 111 906 q 208 935 175 928 q 270 945 240 943 q 323 948 300 948 q 453 910 412 948 q 494 781 494 872 q 435 585 494 661 q 269 464 377 510 q 269 460 269 463 q 269 456 269 457 q 300 376 269 412 q 381 312 331 340 q 493 261 431 283 q 614 224 555 239 q 726 205 674 210 q 808 203 777 201 l 825 186 q 801 161 818 170 q 764 149 784 152 q 723 147 743 146 q 689 148 703 148 q 548 167 618 148 q 412 220 477 186 q 291 302 347 255 q 195 408 235 350 l 159 408 l 159 7 q 122 17 133 7 q 107 43 111 27 q 103 77 103 58 q 103 111 103 95 q 96 185 100 136 q 85 296 91 235 q 74 427 80 358 q 62 557 68 495 q 53 669 57 620 q 46 742 49 719 m 140 538 q 163 507 152 514 q 193 500 174 500 q 283 523 239 500 q 362 581 328 545 q 416 661 396 616 q 437 751 437 707 q 434 800 437 774 q 421 846 431 825 q 393 880 411 867 q 347 892 374 892 q 271 888 311 892 q 197 870 231 884 q 142 831 164 856 q 119 766 119 807 q 121 709 119 735 q 124 656 122 682 q 130 601 126 629 q 140 538 134 572 z "},"S":{"ha":650,"x_min":27,"x_max":605,"o":"m 46 186 q 56 201 46 197 q 75 205 66 205 q 96 195 81 205 q 131 170 110 184 q 177 138 152 155 q 231 106 202 121 q 290 81 260 91 q 350 71 320 71 q 431 82 395 71 q 494 117 468 94 q 534 175 519 140 q 549 256 549 210 q 527 378 549 334 q 468 446 505 422 q 384 478 431 469 q 288 493 336 487 q 191 509 239 499 q 107 542 144 518 q 49 611 71 566 q 27 736 27 656 q 31 812 27 774 q 51 881 35 850 q 94 930 66 911 q 167 948 122 948 q 224 939 193 948 q 282 913 255 930 q 328 872 309 897 q 346 817 346 848 q 345 806 346 814 q 345 798 345 799 q 307 840 323 822 q 273 870 290 859 q 234 887 255 882 q 182 892 213 892 q 133 882 152 892 q 102 854 114 872 q 86 812 91 836 q 81 762 81 788 q 104 648 81 689 q 163 584 126 606 q 248 552 201 562 q 344 536 294 543 q 440 517 393 529 q 524 476 487 505 q 583 397 562 448 q 605 262 605 347 q 585 142 605 193 q 528 61 566 92 q 437 14 491 30 q 312 -1 382 -1 q 273 6 298 -1 q 218 27 247 14 q 158 58 189 41 q 103 96 127 76 q 62 140 79 117 q 46 186 46 163 z "},"T":{"ha":899,"x_min":18,"x_max":872,"o":"m 38 872 l 18 891 q 44 914 27 902 q 75 928 61 926 q 119 932 87 930 q 186 939 151 935 q 253 944 221 943 q 298 945 285 945 q 364 947 320 945 q 465 949 408 948 q 585 950 522 949 q 704 951 647 951 q 806 953 761 952 q 872 954 850 954 l 872 909 q 829 907 859 909 q 762 904 799 906 q 686 900 726 902 q 609 897 646 898 q 544 893 572 895 q 502 891 515 891 q 475 888 494 891 q 436 882 457 884 q 397 876 415 880 q 372 872 378 872 q 371 845 372 865 q 370 803 370 825 q 369 761 369 781 l 369 734 q 376 574 369 652 q 390 418 382 496 q 404 262 397 340 q 411 103 411 183 q 411 85 411 96 q 410 64 411 75 q 410 46 410 54 l 408 38 l 372 0 q 347 24 354 8 q 337 60 339 41 q 335 97 335 79 q 335 129 335 115 q 330 189 334 152 q 323 277 327 227 q 315 384 320 327 q 306 500 311 441 q 298 618 301 560 q 290 725 294 675 q 283 812 286 774 q 278 872 279 850 l 38 872 z "},"U":{"ha":909,"x_min":22,"x_max":868,"o":"m 492 260 q 430 198 457 233 q 374 131 403 163 q 310 77 346 99 q 222 54 274 54 q 154 79 183 54 q 103 146 125 104 q 68 237 81 187 q 46 338 54 288 q 34 431 38 388 q 28 502 30 475 q 28 533 28 511 q 26 583 27 555 q 24 641 26 610 q 23 699 23 671 q 22 747 23 726 q 22 780 22 769 l 83 780 q 87 734 84 765 q 93 666 90 704 q 100 585 96 628 q 109 504 104 543 q 116 435 114 465 q 121 389 118 404 q 130 312 125 357 q 149 226 136 267 q 188 156 163 184 q 254 127 213 127 q 291 131 275 127 q 321 143 307 134 q 349 166 335 152 q 381 203 362 180 q 398 234 385 212 q 427 283 411 256 q 455 334 442 309 q 473 372 468 359 q 479 452 479 404 q 477 551 479 500 q 477 650 476 602 q 486 729 477 697 q 513 772 494 761 q 566 761 532 783 q 566 720 566 747 q 565 657 566 692 q 565 585 564 623 q 566 511 566 547 l 566 448 q 566 408 566 420 q 570 346 567 381 q 579 273 572 311 q 597 200 586 236 q 629 136 609 164 q 677 90 650 107 q 745 72 705 72 q 806 74 777 72 q 863 92 834 76 q 866 83 864 91 q 868 75 868 76 q 852 39 868 52 q 812 22 836 27 q 766 17 789 18 q 728 16 742 16 q 638 36 680 16 q 565 89 597 56 q 514 166 533 122 q 492 260 495 210 z "},"V":{"ha":697,"x_min":18,"x_max":667,"o":"m 278 38 q 210 184 247 103 q 138 350 174 264 q 71 522 103 435 q 18 688 39 609 q 35 705 23 701 q 60 708 46 708 q 69 707 64 708 q 75 704 75 705 l 316 148 l 320 146 l 323 145 q 346 176 334 145 q 372 256 358 206 q 404 370 387 307 q 440 500 420 433 q 483 630 460 567 q 530 743 506 693 q 582 824 555 793 q 640 854 609 854 q 656 851 650 854 q 667 836 663 848 q 652 806 663 825 q 629 764 642 788 q 602 715 616 741 q 576 665 589 689 q 553 622 563 640 q 538 594 543 604 q 483 454 503 526 q 444 309 463 382 q 406 163 426 236 q 353 18 385 90 q 347 12 351 16 q 336 5 342 8 q 325 1 331 3 q 316 0 319 -1 q 306 5 312 1 q 294 16 300 9 q 283 28 288 22 q 278 38 279 34 z "},"W":{"ha":928,"x_min":18,"x_max":894,"o":"m 18 734 q 26 754 18 746 q 46 762 34 762 q 63 755 56 762 q 76 739 71 749 q 86 721 81 730 q 92 704 91 712 l 241 224 l 260 240 l 372 704 l 422 755 l 650 278 l 688 240 l 705 278 q 713 332 708 296 q 726 413 719 368 q 741 510 732 458 q 756 607 749 562 q 770 689 764 652 q 780 742 776 726 q 789 780 781 753 q 805 836 796 807 q 822 892 814 865 q 836 928 830 918 q 842 933 836 930 q 854 939 848 936 q 865 944 860 943 q 872 945 869 945 q 886 940 882 945 q 892 928 890 935 q 894 911 894 921 l 894 901 q 890 867 894 882 q 872 836 887 852 l 742 129 q 720 100 738 110 q 685 90 701 90 q 675 90 681 90 q 667 92 669 91 l 427 556 l 408 576 q 395 518 404 557 q 376 429 387 479 q 353 325 365 380 q 331 220 342 270 q 311 132 320 171 q 298 75 301 92 q 293 54 296 66 q 285 30 290 42 q 271 8 279 18 q 250 -1 262 -1 q 234 3 241 -1 q 224 18 227 7 l 18 724 q 18 729 18 726 q 18 734 18 732 z "},"X":{"ha":688,"x_min":18,"x_max":652,"o":"m 359 354 l 357 354 l 353 353 l 75 38 l 18 38 l 18 75 q 40 98 26 81 q 73 134 54 114 q 113 176 92 153 q 151 218 133 198 q 183 254 168 237 q 203 278 198 270 q 235 317 217 293 q 272 366 254 342 q 303 407 290 389 q 316 426 316 425 l 316 464 l 186 742 q 184 750 184 743 q 184 760 184 757 q 186 783 184 773 q 203 798 189 792 q 241 761 225 785 q 271 707 258 736 q 295 648 283 678 q 319 593 307 617 q 346 553 331 568 q 381 537 361 537 q 387 538 382 537 l 389 538 q 409 569 396 548 q 439 615 422 590 q 474 669 456 640 q 509 723 492 697 q 538 768 525 749 q 556 798 551 788 q 590 833 574 822 q 635 844 606 844 q 634 819 635 829 q 631 800 633 810 q 624 782 628 791 q 613 761 620 773 q 591 726 605 750 q 558 673 576 703 q 519 612 540 644 q 481 550 499 579 q 448 498 463 521 q 427 464 433 475 l 427 445 l 650 54 q 652 47 651 53 q 652 38 652 41 q 651 22 652 30 q 645 8 650 15 q 633 -2 640 1 q 613 0 625 -5 q 562 41 585 11 q 519 112 540 72 q 481 195 499 152 q 445 273 464 237 q 406 331 426 308 q 359 354 385 354 z "},"Y":{"ha":621,"x_min":16,"x_max":576,"o":"m 16 863 q 17 880 16 872 q 20 895 18 887 q 29 905 23 902 q 46 909 35 909 q 62 905 56 909 q 75 891 69 902 l 186 650 l 224 650 q 248 678 231 659 q 287 721 264 697 q 333 771 309 745 q 378 821 357 798 q 418 863 400 845 q 445 891 437 882 q 467 912 453 898 q 500 941 481 926 q 538 965 518 955 q 576 975 557 975 l 576 928 l 278 613 q 247 568 254 587 q 240 521 240 548 q 244 392 240 457 q 253 262 248 327 q 261 132 258 197 q 264 0 264 66 l 224 0 q 213 33 217 0 q 205 120 209 66 q 196 236 201 174 q 187 356 191 298 q 178 458 183 414 q 165 518 174 503 q 156 544 164 525 q 137 588 148 563 q 113 640 126 613 q 87 692 99 667 q 67 736 76 718 q 56 761 58 754 q 45 783 52 770 q 32 810 38 796 q 21 837 26 823 q 16 863 16 850 z "},"Z":{"ha":1031,"x_min":33,"x_max":989,"o":"m 33 118 q 47 162 33 144 q 85 193 62 180 q 138 216 109 206 q 197 234 167 225 q 253 253 227 243 q 298 278 279 263 q 334 311 312 290 q 377 353 357 332 q 412 389 397 373 q 427 408 427 406 l 427 435 l 278 435 l 260 481 q 267 488 262 484 q 278 493 273 491 q 289 498 283 495 q 298 502 294 502 q 331 503 307 503 l 431 503 q 464 502 456 503 l 519 556 l 519 761 q 505 766 519 762 q 470 772 491 770 q 427 777 449 774 q 389 780 404 780 q 324 771 355 780 q 262 750 293 762 q 201 729 232 738 q 137 720 170 720 q 155 768 137 749 q 201 801 174 788 q 263 821 228 814 q 332 832 298 829 q 395 836 366 836 q 441 836 423 836 q 511 829 481 836 q 559 807 540 823 q 587 764 578 791 q 595 699 595 738 q 587 600 595 647 q 579 502 579 552 l 878 502 q 877 489 878 499 q 873 467 876 479 q 866 446 871 456 q 854 435 861 435 l 538 435 q 474 361 507 399 q 403 288 441 323 q 324 222 365 254 q 241 165 283 190 q 361 115 298 133 q 490 87 425 96 q 621 75 555 77 q 751 72 686 72 l 780 72 q 821 73 799 72 q 864 74 844 73 q 891 75 884 75 q 918 84 906 77 q 941 98 929 91 q 964 110 952 104 q 989 115 975 115 q 985 79 989 96 q 973 47 982 61 q 949 26 964 34 q 909 18 933 18 q 873 18 898 18 q 817 18 848 18 q 760 17 787 18 q 724 16 734 16 q 642 16 681 16 q 565 17 604 16 q 488 22 526 18 q 408 38 449 27 q 376 46 400 39 q 323 62 353 53 q 265 79 293 71 q 224 92 237 88 q 216 96 221 92 q 205 102 210 99 q 193 109 199 106 q 186 111 187 111 q 155 114 176 113 q 109 116 133 115 q 63 117 84 117 q 33 118 42 118 z "},"[":{"ha":585,"x_min":64,"x_max":563,"o":"m 64 -54 q 66 77 65 0 q 66 243 66 153 l 66 429 q 66 614 66 525 q 66 781 66 704 q 65 909 65 859 l 65 928 q 66 949 65 939 q 66 968 66 960 q 66 977 66 975 l 85 994 l 530 994 q 523 985 530 991 q 511 977 515 978 q 426 961 473 966 q 331 955 378 956 q 238 956 283 954 q 159 958 193 958 l 140 940 q 140 928 140 939 q 140 904 140 918 q 140 875 140 890 q 140 852 140 860 q 138 739 140 807 q 136 589 137 670 q 134 421 134 507 q 132 253 133 335 q 132 100 132 171 q 137 -18 133 30 q 167 -22 145 -19 q 212 -28 189 -26 q 256 -33 236 -31 q 285 -35 275 -35 q 309 -33 290 -35 q 349 -27 327 -31 l 391 -19 q 415 -18 410 -18 q 445 -16 423 -16 q 490 -14 467 -15 q 534 -13 514 -14 q 563 -12 555 -12 l 563 -54 l 548 -56 q 513 -62 533 -58 q 470 -68 492 -65 q 433 -72 448 -71 l 415 -72 q 391 -77 410 -73 q 349 -83 372 -80 q 309 -88 327 -85 q 285 -91 290 -91 q 230 -89 263 -91 q 164 -83 197 -87 q 107 -77 132 -80 q 81 -72 83 -75 l 64 -54 z "},"\\":{"ha":426,"x_min":18,"x_max":412,"o":"m 18 667 q 25 680 18 673 q 38 688 33 688 l 92 631 q 122 575 102 613 q 168 490 142 537 q 222 390 194 442 q 275 290 250 338 q 321 204 301 243 q 353 148 342 165 q 374 110 363 127 q 394 75 385 92 q 408 38 403 57 q 412 -7 412 19 q 361 14 385 -7 q 317 65 338 34 q 279 136 297 96 q 244 216 260 176 q 214 291 228 255 q 186 353 199 327 q 170 379 182 359 q 143 426 159 399 q 111 483 127 453 q 79 540 94 513 q 53 586 64 567 q 38 613 42 605 q 33 624 35 616 q 26 642 30 632 q 20 658 23 651 q 18 667 18 665 z "},"]":{"ha":667,"x_min":28,"x_max":549,"o":"m 28 -57 q 35 -50 28 -56 q 46 -41 42 -43 q 57 -36 49 -39 q 74 -31 65 -33 q 91 -26 83 -28 q 103 -22 99 -23 q 145 -14 115 -19 q 212 -4 175 -9 q 288 7 248 1 q 365 19 328 14 q 430 28 401 24 q 473 34 458 33 l 492 71 l 456 812 q 456 819 456 814 q 457 832 457 825 q 457 846 457 840 l 457 869 q 457 884 457 876 q 456 899 457 892 q 456 906 456 905 q 448 922 456 911 q 437 933 441 933 l 84 933 l 84 960 q 215 975 151 968 q 346 981 279 981 q 387 980 369 981 q 422 977 404 979 q 461 970 441 974 q 510 960 481 967 q 511 945 510 958 q 512 920 511 933 q 513 895 513 906 q 514 876 514 883 q 513 856 514 869 l 511 829 q 511 806 511 817 q 510 793 510 796 q 506 720 506 768 q 509 613 506 673 q 517 484 513 553 q 526 347 521 415 q 535 217 530 279 q 543 106 540 155 q 547 28 545 57 q 547 -3 549 -1 l 530 -22 q 285 -41 406 -22 q 46 -95 164 -60 q 41 -88 45 -94 q 35 -77 38 -83 q 31 -66 33 -72 q 28 -57 28 -61 z "},"^":{"ha":807,"x_min":220,"x_max":616,"o":"m 277 894 q 289 918 279 898 q 310 966 298 939 q 335 1025 321 994 q 362 1080 349 1055 q 387 1122 376 1104 q 408 1139 399 1139 q 416 1137 410 1139 q 426 1134 423 1135 q 428 1116 426 1128 q 433 1088 430 1103 q 439 1059 435 1073 q 445 1042 442 1046 q 457 1012 448 1034 q 479 962 467 990 q 505 901 491 933 q 532 839 518 869 q 557 783 545 808 q 575 745 568 758 q 610 682 604 700 q 606 666 616 665 q 574 686 595 667 q 526 732 553 704 q 473 795 499 761 q 427 863 446 829 q 399 926 408 897 q 396 964 393 948 q 376 921 388 947 q 340 849 359 887 q 298 774 320 811 q 260 712 277 738 q 232 676 243 686 q 220 684 221 666 q 233 751 220 701 q 277 894 247 800 m 400 975 q 396 966 397 970 l 400 975 z "},"_":{"ha":833,"x_min":27,"x_max":807,"o":"m 45 56 l 241 56 q 359 56 313 56 q 434 58 406 57 q 479 60 463 60 q 511 62 496 61 q 544 62 526 62 q 593 62 562 62 q 673 59 624 61 q 798 54 722 57 l 807 5 l 27 16 l 45 56 z "},"`":{"ha":517,"x_min":195,"x_max":422,"o":"m 258 994 q 283 957 262 982 q 330 902 305 932 q 378 843 355 872 q 411 793 401 814 q 415 767 422 772 q 390 768 408 762 q 347 792 372 774 q 295 831 321 810 q 245 876 269 852 q 209 922 222 901 q 195 961 195 944 q 213 985 195 978 l 258 994 z "},"a":{"ha":780,"x_min":26,"x_max":741,"o":"m 26 151 q 39 260 26 202 q 75 375 52 319 q 131 481 98 431 q 203 570 164 532 q 289 632 243 609 q 385 655 335 655 q 417 650 396 655 q 460 638 438 646 q 498 620 481 631 q 514 598 514 609 l 279 568 q 231 543 254 568 q 188 479 208 518 q 153 393 168 441 q 125 298 137 345 q 108 214 114 252 q 102 157 102 176 l 102 144 q 102 125 102 136 q 103 104 103 115 l 103 92 q 109 84 103 90 l 132 62 q 140 54 137 56 q 144 54 141 54 l 148 54 q 208 71 179 54 q 262 110 237 87 q 309 159 288 133 q 345 203 330 186 q 357 245 353 213 q 367 318 362 277 q 377 406 372 359 q 391 492 382 453 q 410 555 399 530 q 439 579 422 579 q 445 579 441 579 l 448 579 q 448 545 448 572 q 450 481 449 518 q 451 401 450 444 q 452 322 452 359 q 453 258 452 285 q 456 224 454 231 q 463 204 456 217 q 477 179 469 191 q 495 157 486 167 q 510 148 505 148 l 741 148 q 728 122 741 133 q 696 103 715 111 q 654 89 677 95 q 609 79 631 83 q 568 75 587 76 q 540 73 549 73 q 449 98 486 73 q 381 165 412 122 q 340 117 363 144 q 287 64 316 90 q 224 22 258 39 q 159 0 191 4 q 92 6 117 -5 q 52 38 66 18 q 31 87 37 58 q 26 151 26 117 z "},"b":{"ha":640,"x_min":38,"x_max":616,"o":"m 56 18 q 54 93 54 42 q 51 208 53 144 q 47 344 49 273 q 43 479 45 415 q 40 593 42 543 q 38 667 38 643 l 38 688 q 41 717 38 696 q 46 762 43 738 q 52 806 49 785 q 56 836 54 826 l 60 836 q 66 836 64 836 q 85 823 79 836 q 92 798 91 811 l 129 389 l 149 372 q 288 473 210 444 q 458 503 365 503 q 523 488 494 503 q 572 449 552 473 q 604 393 593 425 q 616 327 616 361 q 591 208 616 259 q 524 120 566 156 q 429 61 483 84 q 316 24 374 38 q 197 5 258 9 q 83 0 137 0 q 68 3 73 0 q 56 18 64 5 m 129 92 q 140 77 132 81 q 159 72 149 73 q 179 71 170 71 q 194 72 189 72 q 318 84 256 72 q 429 125 380 96 q 509 203 479 155 q 540 326 540 252 q 524 383 540 358 q 481 426 509 408 q 467 427 477 426 q 442 428 456 427 q 416 429 429 429 q 399 430 404 430 q 271 402 320 430 q 191 329 221 374 q 149 222 161 283 q 129 92 136 161 z "},"c":{"ha":697,"x_min":26,"x_max":665,"o":"m 26 212 q 34 298 26 250 q 58 395 42 346 q 98 492 75 445 q 151 576 121 540 q 217 635 180 613 q 298 658 254 658 l 332 658 q 380 653 357 658 q 420 636 403 648 q 437 601 437 624 l 247 601 q 210 578 228 601 q 177 520 193 555 q 147 444 161 486 q 123 362 133 401 q 108 292 114 323 q 102 250 102 262 q 112 173 102 209 q 142 111 122 137 q 194 69 163 84 q 267 54 225 54 q 360 66 316 54 q 442 96 404 79 q 513 134 480 114 q 574 172 547 155 q 624 201 602 190 q 665 213 646 213 q 640 138 665 171 q 579 81 616 104 q 495 41 543 57 q 399 16 448 26 q 306 3 350 7 q 231 -1 262 -1 q 146 14 184 -1 q 81 59 107 30 q 40 127 54 88 q 26 212 26 165 z "},"d":{"ha":845,"x_min":1,"x_max":817,"o":"m 389 203 q 355 167 374 189 q 315 121 335 145 q 271 74 294 98 q 223 31 247 50 q 176 1 199 12 q 127 -9 152 -9 q 75 1 98 -9 q 37 33 53 12 q 14 78 22 53 q 5 129 5 103 q 9 214 1 164 q 35 319 16 264 q 80 428 53 374 q 141 525 107 481 q 214 594 175 568 q 296 620 254 620 q 325 619 312 620 q 351 616 338 618 q 376 610 363 614 q 408 601 389 606 q 423 626 419 613 q 428 653 427 639 q 427 682 429 667 q 426 712 426 697 q 428 750 426 724 q 431 809 430 776 q 435 879 433 842 q 439 949 437 916 q 443 1008 441 982 q 445 1046 445 1034 l 449 1047 q 456 1047 453 1047 q 471 1043 465 1047 q 481 1027 477 1039 q 485 951 486 1005 q 481 823 484 897 q 475 663 479 750 q 471 490 472 576 q 476 323 471 404 q 495 182 481 243 q 532 87 509 122 q 594 54 556 52 q 633 65 606 56 q 691 85 661 75 q 751 105 722 96 q 799 114 780 114 q 807 113 800 114 q 817 111 814 111 q 762 66 792 87 q 699 30 732 45 q 628 6 665 15 q 557 -3 591 -3 q 488 16 518 -3 q 436 65 457 35 q 403 132 415 95 q 389 203 391 168 m 316 566 q 213 505 258 547 q 136 411 168 463 q 84 302 103 359 q 59 195 65 245 q 58 105 53 144 q 83 53 64 66 q 161 72 122 53 q 237 122 201 91 q 304 195 273 153 q 359 282 335 237 q 395 374 382 327 q 408 461 408 420 l 408 473 q 408 494 408 483 q 408 513 408 505 q 408 525 408 522 q 393 551 403 543 q 370 564 382 560 q 342 566 357 567 q 316 566 327 566 z "},"e":{"ha":625,"x_min":53,"x_max":661,"o":"m 53 408 q 67 524 53 471 q 113 616 81 578 q 193 675 144 654 q 311 697 243 697 q 379 690 350 697 q 428 667 408 684 q 457 622 448 650 q 467 553 467 594 q 450 482 467 511 q 404 434 433 453 q 340 406 376 415 q 269 396 305 396 q 250 393 262 396 q 222 387 237 391 q 190 380 206 384 q 159 375 174 376 q 136 376 145 374 q 127 388 127 378 q 134 397 127 389 q 146 412 140 404 q 159 429 153 420 l 165 435 q 245 444 202 441 q 323 458 288 448 q 384 494 359 469 q 408 566 408 518 q 401 604 408 590 q 379 627 393 618 q 346 637 365 635 q 305 640 327 640 q 223 625 258 640 q 168 581 189 609 q 138 513 148 552 q 127 426 127 473 q 129 356 127 396 q 136 275 130 316 q 153 195 142 235 q 182 123 164 155 q 226 73 201 92 q 286 54 251 54 q 307 57 293 54 q 334 63 320 60 q 361 69 349 66 q 381 75 374 72 q 414 88 392 79 q 463 110 435 98 q 521 137 491 122 q 578 164 551 152 q 627 188 605 176 q 659 203 650 199 q 661 195 661 202 q 661 186 661 189 q 637 138 661 161 q 576 93 613 114 q 494 54 540 72 q 406 24 448 37 q 328 5 363 12 q 275 -3 293 -3 q 199 16 233 -3 q 141 68 165 35 q 99 142 117 100 q 71 229 81 184 q 57 321 61 274 q 53 408 53 368 z "},"f":{"ha":677,"x_min":27,"x_max":658,"o":"m 27 -282 q 27 -273 27 -281 q 27 -263 27 -266 q 35 -269 30 -266 q 47 -274 41 -271 q 58 -279 53 -277 q 65 -282 64 -281 q 68 -283 66 -283 l 75 -283 q 148 -258 118 -283 q 197 -195 178 -233 q 228 -108 217 -156 q 244 -12 239 -60 q 250 79 250 37 q 251 148 251 121 l 251 194 q 249 268 251 227 q 242 353 247 309 q 229 433 237 396 q 205 494 220 469 q 168 518 190 518 q 136 514 152 518 q 105 506 121 510 q 74 498 90 502 q 42 494 58 494 q 61 535 42 521 q 106 558 80 549 q 157 578 132 567 q 194 609 182 589 q 180 659 184 635 q 175 706 176 682 q 174 753 174 730 l 174 804 q 178 904 174 850 q 201 1004 183 958 q 255 1082 220 1051 q 351 1112 290 1112 q 389 1110 365 1112 q 435 1102 412 1108 q 476 1085 458 1096 q 494 1055 494 1074 q 493 1045 494 1053 q 492 1036 492 1038 q 465 1044 484 1039 q 426 1055 446 1048 q 387 1065 406 1061 q 359 1073 368 1070 l 357 1074 q 353 1074 354 1074 q 305 1059 324 1074 q 275 1022 286 1044 q 258 971 264 1000 q 250 915 252 943 q 248 861 248 887 l 248 823 q 248 775 248 800 q 248 726 247 750 q 254 675 250 701 q 269 628 258 650 l 286 628 q 380 631 334 628 q 472 639 426 635 q 565 647 518 643 q 658 651 612 651 l 658 609 l 305 553 q 290 543 293 551 q 286 526 286 536 q 292 437 286 481 q 305 349 298 393 q 319 261 312 305 q 326 172 326 217 q 324 83 326 136 q 317 -26 323 30 q 298 -138 311 -83 q 260 -239 285 -194 q 197 -312 236 -285 q 102 -339 157 -339 q 76 -336 90 -339 q 52 -325 62 -332 q 34 -307 41 -317 q 27 -282 27 -296 z "},"g":{"ha":613,"x_min":54,"x_max":576,"o":"m 54 -410 q 58 -380 54 -391 q 75 -353 61 -369 q 165 -454 113 -422 q 298 -486 218 -486 q 312 -485 301 -486 q 335 -484 323 -484 q 357 -483 347 -483 q 372 -483 368 -483 q 444 -397 418 -446 q 482 -292 469 -347 q 499 -178 495 -236 q 503 -65 503 -119 q 503 -11 503 -35 q 499 37 502 14 q 492 86 496 60 q 481 148 488 113 l 479 149 q 473 151 476 151 q 437 133 463 151 q 378 93 412 115 q 303 53 345 71 q 220 35 262 35 q 184 40 202 35 q 151 54 165 45 q 126 78 137 64 q 111 111 115 92 q 111 131 111 117 q 111 161 111 145 q 110 193 110 178 l 110 213 q 114 301 110 254 q 127 398 118 349 q 153 494 137 448 q 195 577 170 541 q 254 634 220 613 q 334 655 288 655 q 453 635 396 655 q 551 560 510 614 q 561 411 556 490 q 569 254 566 332 q 574 101 572 175 q 576 -33 576 27 q 574 -141 576 -83 q 562 -257 571 -199 q 533 -369 552 -315 q 481 -465 514 -423 q 402 -532 449 -507 q 288 -556 355 -556 q 222 -547 262 -556 q 144 -520 182 -538 q 81 -474 107 -502 q 54 -410 54 -446 m 187 129 q 197 118 190 125 q 212 106 203 111 q 229 96 221 100 q 241 92 236 92 q 304 113 274 92 q 361 167 335 133 q 410 243 388 201 q 446 331 431 286 q 469 417 461 376 q 477 492 477 458 q 467 545 477 522 q 438 585 457 568 q 393 609 419 602 q 336 616 368 616 q 281 593 305 616 q 241 535 258 571 q 214 454 225 499 q 195 366 202 408 q 186 285 189 323 q 184 224 184 247 q 184 204 184 217 q 185 177 184 191 q 186 149 186 163 q 187 129 187 136 z "},"h":{"ha":815,"x_min":56,"x_max":947,"o":"m 502 186 q 496 220 499 197 q 487 272 492 243 q 475 334 481 301 q 463 395 469 366 q 452 448 457 425 q 445 481 448 471 q 435 526 441 506 q 417 561 429 545 q 389 585 406 576 q 345 594 372 594 q 302 579 324 594 q 259 545 279 564 q 224 507 239 525 q 203 481 209 488 q 152 388 170 445 q 125 269 134 331 q 115 146 117 206 q 111 38 114 85 l 56 18 l 56 872 q 58 897 56 879 q 63 937 60 916 q 70 976 66 958 q 75 1002 73 994 q 83 1013 76 1006 q 92 1020 90 1019 l 111 1002 l 149 538 l 167 538 q 208 574 184 555 q 258 610 231 593 q 314 639 285 628 q 372 650 343 650 q 452 625 422 650 q 500 559 481 601 q 527 467 518 518 q 545 361 536 415 q 566 254 555 307 q 600 162 578 202 q 660 97 623 122 q 755 72 697 72 q 807 73 785 72 q 850 80 829 75 q 895 97 872 85 q 945 129 917 109 l 947 126 q 947 121 947 122 q 922 77 947 99 q 862 37 897 54 q 791 8 827 19 q 732 -3 755 -3 q 654 14 688 -3 q 593 57 620 30 q 543 118 566 84 q 502 186 521 152 z "},"i":{"ha":385,"x_min":28,"x_max":439,"o":"m 28 298 q 31 334 30 309 q 33 389 31 358 q 37 454 35 420 q 41 519 39 488 q 43 576 42 551 q 46 613 45 601 q 59 627 53 624 q 75 631 65 631 q 79 631 76 631 q 83 631 81 631 q 97 534 96 591 q 97 413 98 477 q 98 285 96 349 q 115 170 100 221 q 160 86 129 118 q 250 54 191 54 q 355 79 311 54 q 437 148 400 103 q 438 139 437 146 q 439 129 439 132 q 414 75 439 99 q 355 33 389 50 q 284 7 321 16 q 224 -1 247 -1 q 125 22 163 -1 q 65 84 87 45 q 36 174 43 123 q 28 277 28 224 l 28 298 m 75 781 q 44 794 53 781 q 39 823 35 807 q 53 853 42 840 q 80 867 64 867 q 115 853 103 867 q 128 823 127 840 q 116 794 129 807 q 75 781 103 781 z "},"j":{"ha":239,"x_min":-267,"x_max":252,"o":"m -267 -399 q -267 -391 -267 -397 q -266 -381 -266 -384 q -218 -422 -237 -400 q -183 -464 -199 -444 q -153 -503 -167 -484 q -116 -537 -138 -522 q -64 -560 -94 -552 q 12 -568 -34 -568 q 85 -555 56 -568 q 134 -517 115 -541 q 163 -462 152 -494 q 178 -395 174 -430 q 182 -322 182 -359 q 183 -251 183 -285 q 182 -218 183 -239 l 180 -178 q 180 -140 180 -156 q 179 -121 179 -123 l 66 566 l 66 609 q 84 604 75 609 q 102 593 94 600 q 117 578 111 586 q 123 566 122 571 l 252 -121 l 252 -418 q 233 -497 252 -457 q 182 -569 213 -537 q 111 -621 151 -601 q 34 -642 72 -642 q -69 -624 -16 -642 q -166 -575 -122 -606 q -239 -500 -210 -544 q -267 -399 -267 -456 m 34 799 q 22 815 28 799 q 14 851 16 831 q 18 887 12 871 q 42 903 24 903 q 83 887 73 903 q 90 851 94 871 q 71 815 85 831 q 34 799 56 799 z "},"k":{"ha":836,"x_min":24,"x_max":817,"o":"m 163 411 q 149 410 157 411 l 140 408 l 103 92 q 94 66 100 76 q 77 50 87 56 q 53 43 66 45 q 24 42 39 42 q 29 123 24 87 q 46 203 34 160 l 46 933 q 64 928 54 933 q 83 916 75 924 q 97 902 91 909 q 103 891 103 895 l 140 492 l 530 724 l 572 724 q 550 673 572 697 q 492 627 528 650 q 415 586 457 605 q 336 549 373 567 q 269 513 298 530 q 232 481 240 496 q 312 408 278 452 q 375 316 346 363 q 433 221 404 269 q 498 137 461 174 q 583 77 536 100 q 700 53 631 53 q 731 60 718 53 q 758 75 745 66 q 785 90 772 83 q 817 96 799 96 q 802 47 817 66 q 768 17 788 28 q 722 1 747 5 q 673 -3 697 -3 q 555 16 605 -3 q 469 62 506 34 q 407 128 433 91 q 359 204 381 165 q 318 281 338 243 q 277 347 298 319 q 228 393 255 376 q 163 411 201 411 z "},"l":{"ha":206,"x_min":47,"x_max":144,"o":"m 53 773 q 54 811 53 787 q 58 859 56 836 q 62 901 60 883 q 64 921 64 918 l 102 955 l 118 936 q 120 911 118 935 q 123 846 122 887 q 126 749 125 804 q 130 631 127 693 q 135 503 133 568 q 138 374 137 437 q 141 254 140 311 q 144 155 142 198 l 144 144 q 143 126 144 137 q 142 106 142 115 q 141 90 141 96 q 140 76 141 85 q 140 56 140 66 q 140 38 140 46 q 140 26 140 30 q 132 20 137 23 q 121 15 126 18 q 109 10 115 12 q 100 8 103 8 q 90 16 96 8 q 81 28 84 23 q 78 42 80 31 q 73 65 76 53 q 68 87 71 77 q 66 103 66 98 q 64 160 66 122 q 60 243 62 198 q 56 336 57 288 q 52 427 54 385 q 49 503 50 469 q 47 548 47 536 l 47 567 q 48 603 47 582 q 49 648 49 624 q 50 696 49 673 q 51 739 50 719 q 53 773 52 760 z "},"m":{"ha":1032,"x_min":27,"x_max":1080,"o":"m 704 632 q 602 594 642 628 q 538 509 562 560 q 503 397 514 458 q 488 277 491 336 q 486 163 484 217 q 492 75 488 110 l 420 79 q 419 113 420 85 q 415 180 418 141 q 410 262 412 218 q 406 344 408 305 q 402 410 404 382 q 399 445 400 437 q 389 497 396 465 q 368 559 382 529 q 334 610 354 589 q 289 632 315 632 q 233 618 258 632 q 191 580 209 604 q 161 526 174 556 q 140 464 148 495 q 127 404 132 433 q 121 353 122 374 q 118 320 119 342 q 115 271 117 298 q 111 213 113 243 q 106 155 109 183 q 104 106 104 127 q 103 75 103 84 l 46 75 q 38 203 42 148 q 32 305 34 258 q 28 401 30 353 q 27 510 27 450 l 27 530 q 28 562 27 545 q 28 591 28 578 l 28 613 q 42 644 33 628 q 66 667 52 659 q 75 660 69 667 q 83 650 81 652 q 88 631 85 644 q 94 603 91 617 q 100 575 96 589 q 103 556 103 562 q 106 555 103 555 q 111 555 110 555 q 125 565 115 555 q 149 589 134 575 q 180 621 163 604 q 217 653 198 639 q 256 678 236 667 q 298 689 277 689 q 351 674 327 689 q 395 637 376 659 q 429 589 414 616 q 456 538 444 562 q 573 652 502 616 q 734 689 644 689 q 826 624 792 667 q 878 525 860 581 q 903 407 897 469 q 912 285 909 345 q 921 176 916 225 q 943 96 926 126 q 991 61 959 66 q 1080 85 1023 56 q 1075 62 1074 73 q 1077 43 1076 52 q 1076 31 1078 35 q 1063 27 1074 27 q 963 5 1002 -5 q 900 54 924 16 q 863 153 876 92 q 841 280 849 213 q 825 414 833 347 q 802 531 817 480 q 766 611 788 582 q 704 632 743 640 z "},"n":{"ha":826,"x_min":38,"x_max":909,"o":"m 363 652 q 297 634 335 652 q 224 588 259 616 q 164 527 189 560 q 140 464 140 494 l 140 54 q 134 45 140 49 q 120 40 127 42 q 104 37 113 38 q 92 37 96 37 q 66 43 75 37 q 56 60 58 49 q 55 84 54 71 q 56 111 56 98 q 53 159 54 122 l 50 241 q 47 342 49 289 q 43 444 45 396 q 40 528 42 492 q 38 576 38 564 l 38 628 q 41 643 38 636 q 52 656 43 650 q 75 667 60 662 q 85 660 79 667 q 92 650 91 652 q 97 631 94 644 q 103 603 100 617 q 109 575 106 589 q 111 556 111 562 q 115 555 113 555 q 121 555 118 555 q 166 578 140 555 q 227 631 193 602 q 300 683 262 659 q 380 707 338 707 q 463 679 433 707 q 508 604 494 651 q 527 499 522 557 q 535 380 532 441 q 545 261 538 320 q 571 156 552 202 q 626 82 590 110 q 724 54 662 54 q 766 57 745 54 q 807 64 787 60 q 848 71 827 68 q 891 75 869 75 q 902 75 894 75 l 909 75 q 810 18 860 38 q 696 -1 760 -1 q 587 26 628 -1 q 521 101 545 54 q 487 206 496 148 q 472 325 477 264 q 464 444 467 385 q 452 549 461 503 q 422 624 442 595 q 363 652 401 652 z "},"o":{"ha":585,"x_min":28,"x_max":562,"o":"m 28 195 q 43 302 33 247 q 73 408 54 357 q 121 503 92 458 q 189 581 149 548 q 279 631 228 614 q 396 643 331 648 q 522 489 484 567 q 561 340 560 411 q 532 206 562 269 q 456 98 503 144 q 353 26 410 53 q 241 -1 296 -1 q 161 12 199 -1 q 93 50 122 24 q 46 111 64 75 q 28 195 28 148 m 495 335 q 489 410 495 376 q 469 472 483 444 q 433 527 456 500 q 378 579 411 553 l 376 568 q 277 545 327 572 q 186 469 227 518 q 121 354 145 420 q 102 213 96 288 q 119 134 102 168 q 176 75 137 100 q 191 74 180 75 q 214 73 202 73 q 236 73 225 73 q 250 72 247 72 q 357 90 311 72 q 433 142 403 109 q 479 225 464 176 q 495 335 495 274 z "},"p":{"ha":631,"x_min":30,"x_max":587,"o":"m 38 -669 q 37 -610 38 -650 q 37 -519 37 -570 q 36 -414 37 -469 q 35 -308 35 -358 l 35 -159 q 34 -39 35 -107 q 31 104 33 28 q 30 259 30 179 q 31 417 30 339 q 36 566 31 495 q 47 694 41 637 q 57 696 49 696 q 66 697 65 697 q 98 688 85 697 q 122 658 111 680 q 215 663 164 661 q 318 665 266 666 q 418 654 370 663 q 505 622 467 644 q 565 561 543 600 q 587 463 587 522 q 538 235 581 328 q 429 91 495 142 q 283 28 363 39 q 122 42 202 16 l 121 -594 q 117 -614 121 -598 q 107 -646 114 -629 q 90 -675 100 -662 q 66 -689 79 -689 q 38 -669 47 -689 m 102 498 q 104 404 102 456 q 111 298 106 351 q 120 192 115 244 q 129 92 125 140 l 140 92 q 153 92 145 92 q 167 91 161 91 l 176 91 q 299 119 239 91 q 407 197 359 148 q 484 309 454 245 q 513 445 513 373 q 487 540 513 506 q 420 589 461 574 q 327 605 378 604 q 225 606 275 606 q 202 606 216 606 q 176 604 189 605 q 152 603 163 604 q 140 602 141 602 l 103 566 l 103 556 q 102 538 103 548 q 102 515 102 528 l 102 498 z "},"q":{"ha":582,"x_min":45,"x_max":734,"o":"m 247 -597 l 247 -572 q 247 -541 247 -556 q 248 -515 247 -526 q 248 -500 248 -503 q 253 -464 250 -490 q 262 -404 256 -438 q 273 -330 267 -369 q 285 -257 279 -292 q 295 -193 290 -222 q 304 -149 300 -164 q 311 -118 305 -141 q 324 -64 316 -95 q 340 0 332 -34 q 357 65 349 34 q 370 119 365 96 q 378 149 376 141 q 377 157 378 152 q 376 164 376 163 q 349 156 363 164 q 316 136 334 148 q 280 111 298 125 q 243 84 262 96 q 210 64 225 72 q 182 56 194 56 q 96 85 126 56 q 65 171 65 115 q 49 300 45 232 q 73 431 53 368 q 127 551 92 495 q 205 645 163 608 q 297 696 248 682 q 395 690 346 711 q 451 680 426 690 q 493 650 476 670 q 519 605 510 631 q 529 551 529 579 q 529 540 529 547 q 528 526 529 533 q 527 512 528 518 q 526 503 526 506 q 442 226 480 372 q 376 -69 404 80 q 334 -368 349 -218 q 320 -655 320 -518 q 321 -709 320 -677 q 328 -775 321 -742 q 350 -831 335 -808 q 396 -854 365 -854 q 475 -838 437 -854 q 546 -793 513 -822 q 607 -727 579 -764 q 654 -651 635 -690 q 685 -571 674 -612 q 696 -494 696 -530 q 680 -433 696 -456 q 640 -392 663 -410 q 591 -358 616 -374 q 545 -315 566 -342 q 558 -314 548 -315 q 572 -313 568 -313 q 647 -334 616 -313 q 697 -386 678 -354 q 725 -456 716 -418 q 734 -530 734 -494 q 721 -610 734 -567 q 686 -696 708 -654 q 633 -778 663 -739 q 566 -847 602 -817 q 488 -895 529 -878 q 404 -913 446 -913 q 338 -897 365 -913 q 293 -855 311 -882 q 267 -795 275 -829 q 253 -726 258 -761 q 248 -657 248 -690 q 247 -597 247 -624 m 408 635 q 302 610 349 639 q 220 534 256 582 q 161 427 184 487 q 125 307 137 366 q 116 193 114 247 q 136 107 118 140 q 210 132 171 107 q 286 198 250 157 q 357 290 323 239 q 417 395 392 342 q 457 496 442 448 q 472 579 472 544 q 452 621 472 606 q 408 635 433 635 m 304 -788 q 297 -798 297 -788 q 304 -808 297 -808 q 311 -798 311 -808 q 304 -788 311 -788 z "},"r":{"ha":591,"x_min":50,"x_max":563,"o":"m 50 422 l 50 620 q 52 634 50 628 q 57 645 53 640 q 71 651 61 650 q 96 616 90 639 q 107 572 103 594 q 119 530 111 549 q 144 503 126 510 q 190 576 167 543 q 242 636 213 610 q 307 675 271 662 q 391 689 342 689 q 450 684 419 689 q 505 665 480 678 q 547 627 530 651 q 563 568 563 604 q 515 578 536 568 q 473 601 494 589 q 430 623 453 613 q 376 633 407 633 q 302 612 335 633 q 244 556 270 591 q 199 475 218 521 q 166 377 180 429 q 144 273 152 326 q 130 173 136 221 q 123 84 125 125 q 121 18 121 43 l 66 18 q 58 102 61 54 q 54 204 56 151 q 52 313 53 258 q 50 422 50 369 z "},"s":{"ha":697,"x_min":26,"x_max":661,"o":"m 28 186 q 27 204 27 190 q 27 224 27 218 q 26 237 27 228 q 27 254 26 245 q 33 269 28 262 q 46 278 37 275 q 58 225 45 251 q 94 174 72 199 q 143 127 115 149 q 201 89 171 104 q 261 64 232 73 q 316 54 290 54 q 412 71 363 54 q 500 116 461 87 q 563 187 538 145 q 587 282 587 229 q 568 337 587 315 q 516 376 548 359 q 444 405 484 393 q 361 427 404 416 q 278 450 319 438 q 205 479 237 463 q 155 519 174 496 q 136 578 136 543 q 150 633 136 609 q 188 675 164 656 q 242 707 212 694 q 304 729 273 720 q 366 741 335 738 q 420 745 396 745 q 475 744 452 745 q 519 736 499 743 q 556 715 540 730 q 585 667 572 700 q 573 653 579 656 q 556 650 567 650 q 531 661 541 650 q 510 688 521 673 q 494 688 506 688 q 469 689 481 689 q 444 689 456 689 q 427 689 433 689 q 387 688 411 689 q 337 682 363 686 q 286 670 311 678 q 239 650 260 662 q 205 619 218 637 q 193 576 193 601 q 201 543 193 555 q 232 518 210 530 q 260 512 241 518 q 303 499 279 506 q 353 485 327 492 q 404 469 380 477 q 446 454 427 461 q 473 445 464 448 q 540 420 506 433 q 601 390 574 408 q 644 345 628 372 q 661 278 661 319 q 628 166 661 217 q 546 78 595 115 q 437 20 496 41 q 323 -1 378 -1 q 232 13 274 -1 q 154 53 190 27 q 87 112 118 79 q 28 186 56 145 z "},"t":{"ha":529,"x_min":5,"x_max":563,"o":"m 14 545 q 7 598 5 582 q 22 619 9 614 q 54 622 34 624 q 97 621 73 620 q 149 632 121 623 q 203 669 176 642 q 210 720 206 684 q 218 802 213 755 q 227 899 222 848 q 236 996 232 949 q 243 1077 240 1042 q 250 1127 247 1112 l 260 1127 q 270 1128 264 1127 q 281 1131 275 1130 q 290 1132 286 1133 q 298 1126 294 1131 q 297 1021 301 1080 q 287 899 293 963 q 277 772 281 836 q 278 652 273 708 l 541 670 l 532 617 l 300 586 q 258 465 269 529 q 251 340 247 400 q 271 227 255 279 q 309 137 286 174 q 357 85 331 100 q 407 83 382 69 q 452 90 433 81 q 486 114 472 99 q 509 147 499 129 q 526 183 518 165 q 542 214 533 201 q 562 235 551 228 q 562 219 562 232 q 563 202 563 206 q 549 128 563 163 q 513 69 536 94 q 459 31 491 45 q 391 18 427 18 q 294 50 331 20 q 236 126 258 79 q 207 231 214 174 q 199 349 199 289 q 203 465 199 408 q 210 566 206 521 l 14 545 z "},"u":{"ha":742,"x_min":60,"x_max":715,"o":"m 389 168 q 385 168 388 168 q 381 165 382 167 q 334 109 357 137 q 286 62 311 81 q 232 29 262 42 q 164 16 202 16 q 125 27 142 16 q 96 54 109 38 q 76 91 84 71 q 66 129 68 111 q 64 172 65 138 q 64 254 64 206 l 64 463 q 64 554 64 514 q 61 610 64 594 q 60 625 61 613 q 60 640 60 636 q 64 671 60 656 q 90 686 68 686 q 105 682 99 686 q 115 665 111 677 q 120 614 118 652 q 124 525 122 576 q 127 416 126 473 q 131 309 129 359 q 135 219 133 258 q 140 165 137 180 q 147 136 142 149 q 158 112 152 122 q 176 96 164 102 q 203 91 187 91 q 218 91 208 91 q 232 92 229 91 q 327 208 286 140 q 393 354 368 277 q 433 511 419 431 q 452 665 448 591 l 456 666 q 460 666 458 666 q 475 662 469 666 q 487 648 481 658 q 488 569 488 616 q 487 471 487 522 q 490 363 487 419 q 499 256 492 308 q 522 159 506 203 q 563 85 537 115 q 626 41 589 54 q 715 38 663 27 q 690 13 704 20 q 658 1 675 5 q 623 -3 640 -3 l 587 -3 q 525 10 552 -3 q 477 42 498 23 q 444 83 457 61 q 420 123 430 104 q 404 155 411 142 q 389 168 396 168 z "},"v":{"ha":594,"x_min":18,"x_max":556,"o":"m 298 18 q 227 153 260 84 q 160 289 193 221 q 92 425 127 357 q 18 556 57 492 l 18 604 q 47 597 33 604 q 73 582 61 591 q 96 561 85 572 q 111 538 106 549 l 316 129 l 335 129 q 353 187 340 148 q 382 276 366 227 q 416 380 399 326 q 452 484 434 434 q 482 572 469 533 q 502 631 495 612 q 519 667 510 655 q 556 678 529 678 l 556 613 l 372 18 q 364 13 372 16 q 348 7 357 9 q 330 3 339 5 q 316 0 321 0 q 304 7 311 0 q 298 18 298 14 z "},"w":{"ha":872,"x_min":28,"x_max":827,"o":"m 28 518 q 36 545 30 532 q 56 557 42 557 q 81 538 71 557 q 98 485 91 518 q 110 410 104 452 q 119 323 115 368 q 127 237 123 279 q 136 162 130 195 q 149 109 141 129 q 167 90 156 90 q 172 90 168 90 q 176 92 175 91 q 219 185 205 141 q 240 275 233 229 q 248 370 247 320 q 250 481 250 420 q 268 501 256 498 q 290 505 279 505 q 301 504 296 505 q 307 502 307 503 l 345 186 q 363 147 347 164 q 402 117 380 130 q 449 98 425 104 q 492 91 473 91 q 607 106 555 91 q 696 153 659 122 q 753 229 732 184 q 773 335 773 274 q 760 418 773 385 q 728 473 747 452 q 686 509 708 495 q 644 538 663 524 q 611 572 624 553 q 598 620 598 590 q 705 594 661 620 q 776 527 749 568 q 815 434 803 486 q 827 327 827 382 q 800 202 827 256 q 726 111 773 148 q 616 54 678 73 q 484 35 555 35 q 363 66 415 35 q 269 148 312 96 q 251 106 262 132 q 226 56 240 80 q 193 16 212 33 q 148 -1 174 -1 q 109 21 125 -1 q 85 73 94 43 q 71 129 76 102 q 66 165 66 156 q 61 208 64 180 q 54 271 58 236 q 46 344 50 305 q 38 417 42 382 q 32 479 34 452 q 28 518 30 506 z "},"x":{"ha":872,"x_min":5,"x_max":826,"o":"m 100 -83 q 119 -45 106 -72 q 149 14 133 -19 q 183 82 165 46 q 218 152 201 118 q 248 212 235 186 q 266 250 260 237 q 271 262 267 254 q 277 279 274 270 q 281 296 279 288 q 285 307 283 304 q 275 338 282 317 q 258 388 267 359 l 202 553 q 191 585 195 575 q 182 610 189 597 q 165 635 175 624 q 144 653 156 646 q 118 661 133 661 q 70 650 91 661 q 26 623 49 640 q 9 634 14 628 q 5 651 5 640 q 18 688 5 675 q 47 708 30 701 q 83 717 64 715 q 118 719 103 719 q 186 703 159 719 q 233 660 213 686 q 266 600 252 633 q 290 530 279 566 q 312 460 301 494 q 340 399 323 426 q 398 479 372 434 q 448 572 425 525 q 490 667 471 620 q 525 751 510 713 l 567 751 q 549 633 567 693 q 505 515 530 572 q 449 404 479 457 q 396 307 419 351 l 396 270 q 411 253 396 269 q 446 216 426 237 q 488 174 467 195 q 525 140 510 152 q 554 123 538 127 q 587 117 570 118 q 621 117 604 117 q 652 118 637 118 q 709 121 677 118 q 770 134 742 123 q 814 168 799 145 q 825 195 822 179 q 826 187 826 189 q 806 117 826 142 q 754 81 785 92 q 686 66 723 69 q 616 64 648 64 q 535 73 572 64 q 465 98 498 81 q 402 139 433 115 q 340 195 372 163 l 323 176 l 174 -102 q 143 -136 163 -123 q 100 -148 123 -148 l 100 -83 m 823 232 q 825 202 825 216 l 825 210 q 824 223 825 217 q 823 232 823 229 z "},"y":{"ha":585,"x_min":-104,"x_max":551,"o":"m -104 -399 q -100 -378 -104 -396 q -88 -341 -95 -361 q -73 -305 -81 -321 q -56 -289 -65 -289 q -33 -408 -56 -351 q 31 -506 -9 -464 q 125 -572 71 -548 q 243 -595 180 -595 q 339 -573 300 -595 q 404 -513 378 -551 q 444 -427 430 -475 q 465 -329 458 -380 q 473 -230 472 -278 q 475 -141 475 -182 q 474 -101 475 -127 q 473 -49 473 -75 q 473 -3 473 -23 q 473 18 473 16 q 471 43 473 23 q 466 87 469 64 q 460 133 463 111 q 456 165 457 155 q 452 184 454 171 q 446 213 450 198 q 435 241 442 228 q 418 260 429 255 q 372 192 401 228 q 306 125 343 156 q 229 75 269 95 q 148 54 189 54 q 96 71 117 54 q 62 114 75 88 q 41 174 49 140 q 31 241 34 208 q 28 303 28 274 q 27 351 27 332 q 33 423 27 384 q 45 505 38 463 q 60 588 53 547 q 75 665 68 629 q 103 686 85 686 q 108 686 104 686 q 113 685 111 685 q 112 641 113 673 q 110 568 111 609 q 106 481 109 528 q 104 393 104 434 q 102 321 103 353 q 103 278 102 290 q 104 239 103 264 q 111 190 106 214 q 128 146 117 165 q 164 127 140 127 q 210 132 184 127 q 250 148 236 136 q 296 191 269 164 q 347 244 323 217 q 390 292 372 271 q 408 316 408 312 l 437 720 q 441 730 437 726 q 451 736 445 734 q 463 739 457 738 q 475 741 469 741 q 501 729 492 741 q 521 701 510 718 q 514 496 510 605 q 526 276 518 387 q 543 56 534 165 q 551 -149 551 -53 q 551 -189 551 -160 q 550 -251 551 -218 q 548 -313 549 -283 q 547 -353 547 -342 q 515 -466 541 -410 q 449 -568 490 -522 q 355 -643 408 -614 q 240 -671 301 -671 q 176 -661 213 -671 q 100 -633 138 -651 q 26 -589 62 -614 q -39 -534 -11 -564 q -86 -470 -68 -505 q -104 -399 -104 -435 z "},"z":{"ha":945,"x_min":33,"x_max":921,"o":"m 33 106 q 41 153 33 137 q 62 177 49 170 q 93 184 75 184 q 132 182 111 183 q 172 180 152 180 q 213 186 193 179 q 281 219 245 195 q 347 274 316 243 q 402 340 378 305 q 437 408 426 374 l 307 408 q 290 418 294 408 q 286 435 286 429 q 290 452 286 445 q 307 464 294 458 q 332 472 313 467 q 372 484 350 477 q 411 495 393 491 l 437 502 l 437 511 q 437 529 437 519 q 437 545 437 538 l 437 556 q 436 606 437 576 q 429 661 435 635 q 406 707 422 688 q 362 726 391 726 q 353 726 359 726 q 345 724 346 726 q 307 710 334 720 q 250 688 279 700 q 195 665 221 677 q 159 650 168 654 l 140 667 q 180 716 155 694 q 237 752 206 738 q 302 774 269 766 q 366 781 335 781 q 451 753 420 781 q 497 684 481 726 q 519 593 513 642 q 530 502 525 544 l 808 502 l 825 481 l 808 464 l 530 426 q 520 419 528 426 q 510 408 513 412 q 504 391 509 404 q 492 361 499 377 q 480 332 486 346 q 473 316 475 319 q 453 296 469 309 q 416 267 437 283 q 372 231 396 250 q 330 195 349 213 q 298 163 311 178 q 286 140 286 148 q 307 115 286 126 q 361 94 328 103 q 431 77 393 85 q 506 64 469 69 q 569 57 543 60 q 605 54 595 54 q 684 58 643 54 q 766 71 726 62 q 846 94 807 80 q 920 129 884 109 l 921 126 q 921 121 921 122 q 899 84 921 102 q 844 54 878 66 q 770 30 811 41 q 692 12 730 19 q 623 1 654 5 q 576 -3 591 -3 q 437 14 505 -3 q 304 52 370 31 q 170 89 237 72 q 33 106 103 106 z "},"{":{"ha":473,"x_min":27,"x_max":458,"o":"m 102 165 q 122 249 102 208 q 168 329 142 290 q 214 400 193 368 q 235 456 235 433 q 234 460 235 457 q 232 464 233 464 l 159 502 q 157 505 157 502 q 156 510 156 507 q 174 541 156 524 q 214 574 191 557 q 258 606 236 591 q 286 631 279 621 l 269 650 l 83 688 q 63 702 73 689 q 45 731 53 715 q 33 763 38 747 q 27 788 27 779 q 49 887 27 841 q 108 968 71 933 q 192 1022 145 1002 q 290 1042 239 1042 l 326 1042 q 361 1038 345 1042 q 393 1027 378 1035 q 419 1002 408 1019 q 300 1006 359 1010 q 193 979 241 1001 q 113 915 144 958 q 81 803 81 872 q 101 743 81 764 q 151 712 121 723 q 215 697 180 701 q 279 687 250 693 q 328 669 309 681 q 347 631 347 656 q 335 602 347 613 q 307 579 323 590 q 279 557 292 568 q 267 529 267 547 q 277 508 267 517 q 298 492 286 499 q 318 476 309 484 q 327 456 327 468 q 314 441 327 453 q 281 410 301 430 q 240 363 262 389 q 199 304 218 336 q 168 237 180 273 q 155 164 155 201 q 172 107 155 129 q 215 72 189 85 q 275 54 241 58 q 343 47 309 49 q 408 46 377 45 q 458 47 438 47 q 444 20 458 30 q 410 5 430 9 q 368 0 389 1 q 335 -1 347 -1 q 250 6 292 -1 q 176 33 209 14 q 122 85 142 53 q 102 165 102 117 z "},"|":{"ha":157,"x_min":46,"x_max":121,"o":"m 66 798 q 73 802 66 799 q 80 806 79 806 q 100 800 92 806 q 112 785 107 793 q 119 764 117 776 q 121 742 121 753 l 121 38 q 114 28 121 35 q 103 18 107 20 q 91 14 99 16 q 74 8 83 11 q 57 3 65 5 q 46 0 49 1 l 46 704 l 66 798 z "},"}":{"ha":408,"x_min":8,"x_max":363,"o":"m 46 18 q 71 37 49 30 q 123 50 92 43 q 190 65 155 56 q 256 93 225 75 q 306 142 286 111 q 326 222 326 172 q 304 323 326 283 q 245 389 282 363 q 162 427 209 414 q 65 445 115 439 q 87 488 72 469 q 121 518 102 506 l 8 576 l 8 594 q 105 641 56 614 q 195 703 155 667 q 262 782 236 738 q 289 884 289 826 q 271 952 289 924 q 222 998 252 981 q 156 1025 193 1016 q 83 1040 119 1035 l 83 1065 q 182 1055 136 1065 q 265 1023 229 1046 q 323 961 301 1001 q 345 860 345 921 q 329 792 345 823 q 291 736 313 761 q 241 690 269 711 q 191 650 213 669 q 153 616 168 632 q 138 583 138 601 q 151 566 138 570 q 176 560 163 563 q 201 552 190 557 q 213 529 213 547 q 210 516 213 521 q 203 507 208 511 q 196 496 199 502 q 193 481 193 490 q 205 466 193 475 q 237 444 218 457 q 278 412 256 431 q 319 367 300 393 q 351 307 338 340 q 363 227 363 273 q 348 135 363 176 q 303 63 332 94 q 233 16 274 33 q 140 -1 191 -1 q 116 0 127 -1 q 94 3 104 1 q 73 9 84 5 q 46 18 61 12 z "},"~":{"ha":909,"x_min":161,"x_max":730,"o":"m 161 909 q 179 986 161 960 q 225 1019 197 1012 q 290 1017 254 1027 q 363 991 326 1008 q 435 955 400 975 q 495 917 469 935 q 604 942 555 935 q 682 949 652 949 q 721 941 712 949 q 713 921 730 933 q 650 890 697 909 q 522 854 604 872 q 460 868 492 856 q 395 895 427 880 q 330 924 362 910 q 267 944 297 939 q 210 942 237 949 q 161 909 183 935 z "},"":{"ha":190,"x_min":58,"x_max":168,"o":"m 60 366 l 60 355 q 60 337 60 346 q 59 319 59 327 l 59 307 q 63 203 59 253 q 72 102 66 152 q 84 -1 77 51 q 102 -113 92 -54 q 106 -113 102 -113 q 111 -114 109 -114 q 128 -111 121 -114 q 142 -98 135 -107 l 142 -78 q 142 -50 142 -66 q 142 -20 142 -34 l 142 24 q 142 55 142 40 q 142 82 142 70 l 142 97 q 140 130 141 107 q 137 180 139 152 q 132 239 135 208 q 127 298 129 270 q 124 349 126 326 q 120 381 121 371 q 110 382 118 381 q 102 382 102 382 q 76 380 87 382 q 60 366 65 379 m 102 622 q 112 610 104 614 q 130 604 120 605 q 149 602 139 602 q 167 602 158 602 q 159 625 167 613 q 130 637 151 637 q 112 634 118 637 q 102 622 107 631 z "},"":{"ha":697,"x_min":26,"x_max":665,"o":"m 330 798 q 336 802 331 799 q 346 806 342 806 q 364 800 357 806 q 377 785 372 793 q 384 764 382 776 q 385 742 385 753 l 384 652 q 419 636 404 647 q 437 601 437 624 l 382 601 l 372 68 q 441 95 408 80 q 513 134 480 114 q 574 172 547 155 q 624 201 602 190 q 665 213 646 213 q 640 138 665 171 q 579 81 616 104 q 495 41 543 57 q 399 16 448 26 q 372 11 384 14 l 369 -103 q 362 -112 369 -104 q 350 -121 355 -119 q 340 -126 347 -123 q 323 -132 332 -129 q 306 -137 313 -134 q 296 -141 298 -140 l 298 1 q 231 -1 259 -1 q 146 14 184 -1 q 81 59 107 30 q 40 127 54 88 q 26 212 26 165 q 34 298 26 250 q 58 395 42 346 q 98 492 75 445 q 151 576 121 540 q 217 635 180 613 q 298 658 254 658 l 311 658 l 311 704 l 330 798 m 210 578 q 177 520 193 555 q 147 444 161 486 q 123 362 133 401 q 108 292 114 323 q 102 250 102 262 q 112 173 102 209 q 142 111 122 137 q 194 69 163 84 q 267 54 225 54 q 298 54 283 54 l 309 601 l 247 601 q 210 578 228 601 z "},"":{"ha":884,"x_min":5,"x_max":854,"o":"m 5 433 l 79 431 q 75 454 76 444 q 59 570 65 517 q 54 669 53 624 q 66 746 54 713 q 103 799 79 779 q 174 820 133 819 q 257 808 214 821 q 339 776 300 796 q 402 736 378 755 q 431 703 426 716 q 411 688 437 689 q 325 705 385 688 q 159 765 264 722 q 138 763 145 770 q 130 741 132 755 q 131 704 129 726 q 136 661 133 682 q 143 619 140 639 q 148 587 146 600 q 153 532 148 568 q 164 452 159 496 l 165 430 l 324 427 q 341 418 336 427 q 346 400 346 408 q 338 380 346 389 q 317 372 330 372 l 307 372 q 221 378 269 374 q 174 382 195 381 q 176 358 175 372 q 190 264 184 309 q 199 184 195 220 q 202 129 202 148 q 205 115 198 115 q 231 125 213 115 q 280 150 250 136 q 350 176 311 164 q 437 197 389 189 q 543 201 486 205 q 610 180 574 201 q 684 136 647 160 q 758 91 722 111 q 825 71 793 71 q 846 62 838 71 q 854 42 854 53 q 835 25 854 23 q 785 38 815 27 q 718 67 755 49 q 646 102 681 85 q 581 131 610 118 q 536 144 551 144 q 452 127 492 144 q 373 91 411 111 q 294 54 335 71 q 212 38 254 38 q 180 34 195 38 q 149 26 164 30 q 119 18 134 22 q 88 15 103 15 q 93 101 88 60 q 111 186 98 142 q 94 324 104 258 q 84 391 90 359 q 56 393 68 392 l 26 396 l 5 433 z "},"":{"ha":707,"x_min":83,"x_max":675,"o":"m 142 262 q 117 301 123 277 q 111 354 110 326 q 118 412 111 382 q 133 467 125 441 q 150 517 141 494 q 163 553 159 540 q 121 621 138 583 q 96 686 103 658 l 141 723 l 236 594 q 266 633 241 617 q 324 656 290 648 q 395 662 358 663 q 463 651 433 661 q 511 625 492 642 q 529 583 530 608 q 549 595 540 587 q 568 614 557 604 q 591 635 579 625 q 609 650 602 644 q 620 652 616 655 l 675 583 l 591 521 q 602 471 598 498 q 604 416 605 444 q 597 365 604 389 q 579 324 591 340 q 589 304 576 319 q 618 275 602 290 q 650 247 635 260 q 667 228 666 233 l 591 170 l 525 254 q 452 200 490 216 q 380 182 415 184 q 313 187 345 179 q 259 204 282 195 q 221 219 236 213 q 205 221 206 225 q 190 201 203 216 q 163 169 176 186 q 138 140 149 152 q 129 130 132 133 l 83 180 l 142 262 m 521 423 q 515 471 521 450 q 499 510 510 492 q 469 543 488 528 q 422 572 450 557 q 340 557 382 574 q 264 509 298 540 q 209 436 229 477 q 193 347 189 395 q 208 298 193 320 q 255 260 222 275 q 267 260 259 260 q 286 259 275 259 q 305 258 297 259 q 317 258 313 258 q 470 302 419 258 q 521 423 521 347 z "},"":{"ha":621,"x_min":16,"x_max":576,"o":"m 430 328 l 248 328 q 252 262 250 294 q 261 132 258 197 q 264 0 264 66 l 224 0 q 213 33 217 0 q 205 120 209 66 q 195 236 201 174 q 189 328 193 283 l 41 328 q 49 340 42 334 q 60 347 56 347 q 78 352 65 349 q 106 357 91 355 q 134 362 121 359 q 152 365 148 365 q 184 366 163 366 l 187 366 q 180 425 184 396 l 46 425 l 28 444 l 83 461 l 176 461 q 165 518 172 503 q 156 544 164 525 q 137 588 148 563 q 113 640 126 613 q 87 692 99 667 q 67 736 76 718 q 56 761 58 754 q 45 783 52 770 q 32 810 38 796 q 21 837 26 823 q 16 863 16 850 q 17 880 16 872 q 20 895 18 887 q 29 905 23 902 q 46 909 35 909 q 62 905 56 909 q 75 891 69 902 l 186 650 l 224 650 q 248 678 231 659 q 287 721 264 697 q 333 771 309 745 q 378 821 357 798 q 418 863 400 845 q 445 891 437 882 q 467 912 453 898 q 500 941 481 926 q 538 965 518 955 q 576 975 557 975 l 576 928 l 278 613 q 247 568 254 587 q 240 521 240 548 l 240 461 l 463 461 q 458 447 463 453 q 446 435 453 441 q 432 427 439 430 q 419 425 425 425 l 243 425 l 244 392 q 245 368 244 380 q 290 370 267 369 q 349 372 321 372 q 397 372 376 372 q 430 372 419 372 l 430 328 z "},"":{"ha":174,"x_min":47,"x_max":126,"o":"m 122 339 q 125 244 126 289 q 123 157 125 199 q 121 75 122 115 q 119 -7 119 34 q 75 38 79 -7 q 70 81 72 53 q 66 149 68 110 q 63 233 65 187 q 60 331 61 279 l 122 339 m 60 372 q 56 442 57 408 q 54 504 56 476 q 52 553 53 532 q 50 586 52 575 l 50 593 q 50 608 50 600 q 49 623 49 616 l 49 635 q 48 649 49 639 q 49 669 47 659 q 54 686 50 678 q 69 697 58 694 q 74 686 71 693 q 79 669 77 678 q 84 652 81 661 q 88 640 87 644 q 103 517 98 583 q 113 380 109 450 l 60 372 z "},"":{"ha":665,"x_min":60,"x_max":613,"o":"m 62 -52 q 60 -33 61 -46 q 60 -18 60 -20 q 62 -2 60 -12 q 68 19 64 8 q 77 39 72 30 q 90 52 81 49 q 109 -21 90 15 q 155 -86 127 -57 q 216 -133 183 -115 q 275 -151 250 -151 q 348 -140 312 -151 q 412 -105 384 -129 q 456 -45 439 -81 q 473 38 473 -9 q 465 79 473 60 q 317 50 377 45 q 221 88 258 54 q 166 180 184 122 q 140 313 148 239 q 161 384 140 355 q 214 431 183 412 q 278 458 244 449 q 340 469 312 467 q 292 490 316 477 q 248 519 269 503 q 215 555 228 534 q 202 601 202 576 q 231 676 202 644 q 298 729 259 708 q 379 760 338 750 q 446 770 420 770 q 486 766 469 770 q 515 751 502 762 q 537 722 528 741 q 556 675 547 704 q 548 661 553 665 q 536 658 543 658 q 517 669 525 658 q 503 693 510 680 q 490 694 499 693 q 472 695 481 694 q 454 696 463 696 q 441 697 445 697 q 393 693 422 697 q 336 677 363 689 q 289 645 309 666 q 269 590 269 624 q 274 559 269 571 q 297 536 279 547 q 332 524 307 533 q 387 505 358 515 q 439 484 415 494 q 473 468 464 473 q 524 444 499 456 q 568 416 548 433 q 600 374 587 399 q 613 312 613 349 q 583 196 613 248 q 509 107 553 144 q 524 76 518 94 q 529 34 529 58 q 505 -70 529 -22 q 445 -153 481 -118 q 364 -207 408 -187 q 279 -227 320 -227 q 212 -213 243 -227 q 154 -176 180 -199 q 104 -121 127 -153 q 62 -52 81 -90 m 537 292 q 518 357 537 335 q 472 390 499 380 q 414 402 445 400 q 359 407 382 404 q 313 402 342 407 q 258 386 285 397 q 212 353 232 374 q 193 297 193 331 q 210 205 193 240 q 253 149 227 170 q 313 123 279 129 q 377 118 346 117 q 435 128 408 119 q 475 145 461 137 q 506 173 494 159 q 525 204 518 187 q 534 242 532 221 q 537 292 537 263 z "},"":{"ha":781,"x_min":305,"x_max":487,"o":"m 426 708 q 431 730 426 722 q 446 745 437 739 q 467 753 456 750 q 487 755 477 755 l 487 745 q 485 722 487 734 q 478 699 483 709 q 464 689 473 689 q 456 691 461 689 q 444 696 450 693 q 433 703 438 700 q 426 708 429 705 m 305 708 q 311 730 305 722 q 326 745 316 739 q 346 753 335 750 q 366 755 357 755 l 366 745 q 363 722 366 734 q 357 699 361 709 q 343 689 353 689 q 335 691 340 689 q 323 696 330 693 q 313 703 317 700 q 305 708 308 705 z "},"":{"ha":697,"x_min":27,"x_max":667,"o":"m 27 247 q 33 347 27 290 q 51 464 38 404 q 85 581 64 524 q 138 683 106 639 q 213 755 170 727 q 312 783 256 783 q 410 765 363 783 q 495 717 456 747 q 566 646 534 686 q 620 562 598 605 q 654 471 642 518 q 667 382 667 425 q 635 230 667 300 q 547 109 604 160 q 413 28 491 57 q 240 -1 335 -1 q 140 18 180 -1 q 75 71 100 38 q 38 149 49 103 q 27 247 27 195 m 83 262 q 92 180 83 217 q 120 115 100 142 q 174 71 140 87 q 262 54 209 54 q 399 79 335 54 q 510 144 463 103 q 585 241 557 186 q 612 359 612 297 q 602 408 612 374 q 577 481 593 441 q 540 563 562 521 q 492 640 518 605 q 438 697 467 675 q 382 719 410 719 q 269 701 316 719 q 187 653 221 684 q 134 580 153 623 q 102 486 114 537 q 87 378 91 435 q 83 262 83 321 m 213 311 q 224 379 213 339 q 254 456 235 419 q 300 517 273 492 q 363 543 328 543 l 382 543 q 408 540 396 543 q 431 531 420 537 q 441 511 441 525 l 351 477 q 323 459 336 477 q 301 417 311 441 q 286 370 292 393 q 279 335 279 346 q 283 300 279 315 q 293 279 286 286 q 314 268 300 271 q 351 264 328 264 q 425 272 392 264 q 484 289 457 279 q 530 305 510 298 q 566 312 551 312 q 553 272 566 289 q 519 243 540 255 q 471 222 498 231 q 419 208 445 213 q 369 202 393 203 q 327 201 345 201 q 243 231 274 201 q 213 311 213 262 z "},"":{"ha":415,"x_min":18,"x_max":373,"o":"m 18 236 q 25 289 18 261 q 42 344 31 317 q 70 395 54 371 q 106 438 87 419 q 148 467 125 456 q 196 478 171 478 q 212 476 201 478 q 233 470 222 474 q 251 461 243 466 q 260 451 260 456 l 144 437 q 119 425 131 437 q 98 394 108 412 q 81 352 89 375 q 67 307 73 329 q 59 267 62 285 q 56 240 56 249 l 56 233 q 56 224 56 229 q 56 214 56 219 l 56 208 q 59 204 56 207 l 70 194 q 74 190 73 191 q 76 190 75 190 l 78 190 q 108 198 94 190 q 135 217 123 206 q 158 241 148 228 q 176 262 168 253 q 182 281 180 266 q 187 317 184 297 q 192 359 189 336 q 198 400 194 381 q 208 430 203 418 q 223 442 214 442 q 225 442 223 442 l 227 442 q 227 425 227 438 q 228 395 227 412 q 228 357 228 377 q 229 319 229 336 q 229 288 229 301 q 231 271 230 275 q 234 262 231 268 q 241 250 237 256 q 250 240 245 244 q 257 235 255 235 l 371 235 q 365 223 371 228 q 349 214 359 217 q 329 207 340 210 q 306 202 317 204 q 286 200 296 201 q 272 199 277 199 q 227 211 245 199 q 194 243 209 223 q 173 220 185 233 q 147 195 162 207 q 116 175 133 183 q 84 164 100 166 q 51 167 63 162 q 31 182 38 173 q 21 206 24 192 q 18 236 18 220 z "},"":{"ha":818,"x_min":24,"x_max":777,"o":"m 24 286 q 41 304 30 296 q 62 319 52 312 q 82 332 72 327 q 99 343 92 338 q 140 378 117 359 q 189 414 164 396 q 236 451 213 433 q 275 490 259 469 q 323 536 298 518 q 372 561 349 553 q 414 568 396 568 q 434 559 431 568 q 422 533 437 551 q 370 490 408 515 l 155 286 q 201 269 168 279 q 275 245 233 258 q 360 216 316 232 q 441 184 404 201 q 503 149 479 168 q 528 111 528 130 q 519 90 528 99 q 498 81 510 81 q 492 82 495 81 q 488 83 490 83 q 417 109 458 95 q 330 137 376 122 q 238 168 285 152 q 149 203 191 184 q 75 243 107 222 q 24 286 42 264 m 275 323 q 292 340 282 332 q 312 356 301 349 q 333 369 323 363 q 349 380 343 374 q 391 414 368 396 q 439 451 415 433 q 487 488 464 469 q 528 526 510 506 q 574 572 548 555 q 624 597 601 590 q 665 605 647 605 q 686 596 682 605 q 675 570 689 587 q 620 526 661 552 l 407 323 q 452 305 419 316 q 526 281 484 294 q 611 253 567 269 q 692 221 655 237 q 753 186 730 205 q 777 148 777 167 q 770 127 777 136 q 749 118 762 118 q 744 119 747 118 q 739 119 741 119 q 669 145 709 132 q 582 174 628 159 q 489 205 536 189 q 401 240 442 221 q 326 280 359 259 q 275 323 293 301 z "},"":{"ha":624,"x_min":46,"x_max":595,"o":"m 541 324 q 541 330 540 327 q 541 335 543 334 q 534 338 540 336 q 509 340 528 339 q 458 342 491 342 q 373 344 426 343 q 243 344 320 345 q 62 343 167 343 q 51 345 56 343 q 46 353 46 347 q 52 368 46 358 q 75 395 58 378 q 99 396 76 396 l 239 396 q 330 396 285 396 q 417 396 376 396 q 490 399 458 396 l 518 399 q 547 396 532 399 q 576 387 563 393 q 595 368 589 380 q 593 307 594 340 q 587 240 591 274 q 577 175 583 206 q 563 123 571 144 q 543 93 555 102 q 514 95 530 84 l 541 324 z "},"":{"ha":481,"x_min":50,"x_max":460,"o":"m 69 316 l 441 316 q 456 307 452 316 q 460 289 460 298 q 452 270 460 278 q 433 262 445 262 l 422 262 q 362 264 396 262 q 291 269 328 267 q 217 273 254 271 q 152 276 180 274 q 104 279 123 278 l 88 279 l 50 298 l 69 316 z "},"":{"ha":845,"x_min":27,"x_max":770,"o":"m 213 518 q 203 530 205 525 q 201 543 201 536 q 225 578 201 564 q 281 599 250 591 q 347 610 312 606 q 400 613 381 613 q 482 595 457 613 q 507 532 507 576 q 471 439 507 475 q 368 381 435 403 q 368 378 368 380 l 368 376 q 387 339 368 357 q 438 307 407 321 q 508 282 469 293 q 585 264 547 271 q 659 252 624 256 q 715 247 693 247 q 607 224 661 232 q 500 227 553 217 q 397 265 448 236 q 298 354 346 294 l 298 163 q 274 168 283 163 q 259 181 264 174 q 252 197 254 189 q 248 214 250 206 q 244 250 247 225 q 239 304 241 274 q 231 366 236 334 q 224 429 227 399 q 217 482 221 458 q 213 518 213 506 m 286 416 q 326 412 301 404 q 376 437 351 419 q 420 477 400 454 q 446 518 441 499 q 447 539 446 529 q 444 557 448 549 q 432 568 441 564 q 407 572 423 572 q 360 572 384 572 q 317 568 336 572 q 286 554 298 564 q 274 525 274 544 q 275 497 274 510 q 277 472 275 484 q 281 446 278 460 q 286 416 283 433 m 27 247 q 33 347 27 290 q 51 464 38 404 q 85 581 64 524 q 138 683 106 639 q 213 755 170 727 q 312 783 256 783 q 506 758 420 783 q 650 680 591 732 q 739 549 708 628 q 770 359 770 469 q 743 208 770 275 q 653 95 715 141 q 490 24 591 49 q 240 -1 389 -1 q 140 18 180 -1 q 75 71 100 38 q 38 149 49 103 q 27 247 27 195 m 87 269 q 95 186 87 225 q 122 119 103 148 q 175 72 141 90 q 262 54 209 54 q 365 62 311 54 q 472 84 419 69 q 574 121 525 99 q 659 171 623 142 q 717 235 696 199 q 738 312 738 270 q 707 469 738 396 q 628 593 677 541 q 519 675 579 646 q 399 704 458 704 q 238 670 300 704 q 143 577 176 636 q 98 439 110 518 q 87 269 87 359 z "},"":{"ha":481,"x_min":49,"x_max":445,"o":"m 54 678 l 426 678 q 441 669 437 678 q 445 652 445 661 q 437 632 445 640 q 419 624 430 624 l 408 624 q 347 626 382 625 q 271 626 311 627 q 191 625 231 625 q 120 623 152 624 q 66 620 88 621 l 49 620 l 54 678 z "},"":{"ha":228,"x_min":27,"x_max":194,"o":"m 27 502 q 44 543 30 532 q 78 552 58 555 q 119 535 98 549 q 158 503 140 521 q 186 463 176 484 q 194 425 197 442 q 172 396 191 408 q 114 384 153 384 q 52 418 76 384 q 27 502 27 452 m 118 422 q 155 433 146 422 q 158 459 163 445 q 140 489 153 473 q 109 513 126 505 q 76 519 92 521 q 53 500 60 518 q 70 440 50 458 q 118 422 90 422 z "},"":{"ha":503,"x_min":27,"x_max":484,"o":"m 27 34 l 189 34 l 189 286 l 45 286 q 47 298 45 293 q 57 316 52 311 q 87 331 72 327 q 116 334 103 335 q 142 332 129 334 q 164 334 155 331 q 180 351 174 338 q 189 389 186 363 q 189 419 189 397 l 189 509 q 189 538 189 530 q 199 554 194 551 q 216 557 205 557 q 221 557 217 557 q 225 556 225 556 q 242 547 232 555 q 252 538 252 540 l 252 343 l 467 343 l 484 316 q 454 302 475 305 q 408 297 433 298 q 355 297 382 296 q 304 297 327 298 q 267 292 282 296 q 252 278 252 288 l 252 34 l 397 34 q 414 25 410 34 q 419 7 419 16 q 410 -12 419 -4 q 391 -20 401 -20 l 380 -20 q 319 -18 355 -19 q 245 -18 283 -18 q 168 -18 206 -18 q 100 -19 130 -19 q 52 -19 71 -19 l 31 -20 l 27 34 z "},"":{"ha":437,"x_min":23,"x_max":441,"o":"m 186 229 q 161 223 173 229 q 138 210 149 217 q 112 198 126 204 q 80 192 98 192 l 71 192 q 58 193 66 192 q 45 193 51 193 q 36 194 39 194 q 30 202 33 198 q 26 210 27 206 q 24 218 25 214 q 24 228 24 223 q 33 258 24 246 q 56 277 42 270 q 88 287 70 284 q 123 290 106 289 q 158 288 141 290 q 186 286 174 287 q 236 356 222 316 q 250 440 250 396 q 248 473 250 455 q 241 506 247 491 q 223 530 235 520 q 189 540 210 540 q 137 534 161 540 q 92 514 112 527 q 57 481 72 501 q 36 435 43 462 l 36 440 q 36 446 36 443 q 35 453 35 450 l 35 458 q 36 474 35 467 q 38 487 36 481 q 42 501 39 494 q 50 516 45 508 q 86 539 71 530 q 115 554 101 548 q 143 561 129 559 q 179 563 158 563 q 229 552 208 563 q 263 522 250 541 q 282 480 276 503 q 288 432 288 457 l 288 423 q 287 413 288 418 q 287 405 287 408 q 287 401 287 401 q 276 375 284 393 q 257 337 267 357 q 238 298 247 316 q 223 274 229 280 q 223 271 223 273 l 222 268 q 236 239 222 251 q 269 219 250 227 q 308 207 288 211 q 343 204 329 204 q 369 212 358 204 q 391 230 380 220 q 414 247 403 239 q 440 255 425 255 q 429 224 440 237 q 400 201 417 210 q 364 186 384 191 q 329 181 345 181 q 291 188 309 181 q 257 205 274 196 q 223 221 240 214 q 186 229 206 229 m 92 264 q 66 261 75 264 q 52 253 56 259 q 46 236 47 248 q 46 208 46 225 l 66 208 q 102 211 83 208 q 136 222 121 214 q 150 246 150 229 q 143 257 150 253 q 126 263 136 261 q 107 264 116 264 l 92 264 z "},"":{"ha":327,"x_min":23,"x_max":288,"o":"m 49 261 q 72 256 61 261 q 95 242 83 250 q 122 229 107 235 q 157 223 137 223 q 197 231 179 223 q 228 252 215 238 q 248 284 241 265 q 255 326 255 303 q 252 365 255 347 q 240 397 249 384 q 217 418 232 411 q 180 426 202 426 q 152 421 163 426 q 129 412 140 417 q 108 403 118 407 q 83 398 97 398 q 91 442 83 421 q 110 482 100 463 q 130 523 121 502 q 138 565 138 543 q 132 566 136 565 q 123 567 128 567 q 113 568 118 568 q 107 569 109 569 q 93 565 103 567 q 71 558 82 562 q 49 551 59 555 q 35 547 38 548 l 24 557 q 38 563 28 559 q 60 571 48 567 q 86 580 72 576 q 113 590 100 585 q 135 597 125 594 q 149 602 145 600 q 154 603 151 603 q 162 605 158 604 q 170 606 166 605 q 175 606 173 606 q 171 567 175 588 q 161 527 167 547 q 150 488 155 506 q 139 458 144 470 q 204 451 176 456 q 250 433 232 446 q 278 395 269 419 q 287 330 287 371 q 277 277 287 301 q 249 237 266 254 q 208 211 232 220 q 157 201 184 201 q 125 203 144 201 q 90 211 107 205 q 61 229 72 217 q 49 261 49 241 z "},"":{"ha":517,"x_min":168,"x_max":415,"o":"m 393 986 q 415 964 415 979 q 399 928 415 948 q 357 887 384 909 q 302 846 331 865 q 244 811 273 826 q 196 790 216 796 q 168 788 176 784 q 172 812 160 792 q 194 842 179 825 q 227 876 209 859 q 264 911 244 892 q 300 945 283 929 q 329 973 316 960 q 346 994 342 986 l 393 986 z "},"":{"ha":742,"x_min":43,"x_max":636,"o":"m 389 168 q 385 168 388 168 q 381 165 382 167 q 317 65 349 103 q 253 14 285 27 q 190 13 221 0 q 129 66 159 26 q 119 -81 121 -24 q 118 -172 118 -138 q 113 -222 118 -206 q 91 -240 107 -237 q 56 -241 66 -248 q 44 -195 45 -233 q 50 -79 43 -156 q 66 129 56 -3 q 64 172 65 138 q 64 254 64 206 l 64 463 q 64 554 64 514 q 61 610 64 594 q 60 625 61 613 q 60 640 60 636 q 64 671 60 656 q 90 686 68 686 q 105 682 99 686 q 115 665 111 677 q 120 614 118 652 q 124 525 122 576 q 127 416 126 473 q 131 309 129 359 q 135 219 133 258 q 140 165 137 180 q 147 136 142 149 q 158 112 152 122 q 176 96 164 102 q 203 91 187 91 q 218 91 208 91 q 232 92 229 91 q 327 208 286 140 q 393 354 368 277 q 433 511 419 431 q 452 665 448 591 q 455 665 452 665 q 460 666 458 666 q 475 662 469 666 q 487 648 481 658 q 484 570 488 616 q 475 475 480 525 q 464 372 469 425 q 459 271 458 320 q 469 180 460 221 q 497 109 477 138 q 550 68 517 80 q 636 66 583 56 q 623 37 625 50 q 618 16 620 24 q 610 2 616 7 q 587 -3 605 -3 q 525 10 552 -3 q 477 42 498 23 q 444 83 457 61 q 420 123 430 104 q 404 155 411 142 q 389 168 396 168 z "},"":{"ha":613,"x_min":24,"x_max":494,"o":"m 431 43 q 427 101 429 64 q 423 185 425 138 q 421 286 422 232 q 420 394 420 340 q 420 498 420 448 q 419 589 419 548 q 410 585 412 585 q 403 587 407 586 q 394 587 399 587 q 382 583 389 587 q 368 525 374 563 q 358 439 362 487 q 351 338 354 391 q 345 236 347 285 q 340 145 343 187 q 335 80 338 103 q 333 64 335 76 q 328 40 331 53 q 322 16 324 27 q 317 0 320 5 l 281 20 l 279 27 q 279 39 279 31 q 279 54 279 46 l 279 66 q 288 246 279 159 q 296 423 296 334 q 262 420 278 423 l 195 408 q 163 404 179 404 q 114 412 138 404 q 69 433 90 419 q 37 471 49 448 q 24 525 24 494 q 39 598 24 562 q 77 664 53 635 q 132 711 100 693 q 199 730 164 730 q 268 733 228 732 q 348 728 308 734 q 423 708 388 723 q 479 665 458 693 q 494 508 492 594 q 491 333 495 422 q 482 157 487 244 q 477 -1 477 71 q 431 43 437 -1 z "},"":{"ha":252,"x_min":110,"x_max":197,"o":"m 110 210 q 117 250 107 237 q 140 264 126 262 q 168 258 153 266 q 191 238 183 251 q 197 210 199 225 q 175 176 194 194 q 151 168 163 167 q 128 174 138 168 q 113 191 118 180 q 110 210 107 201 z "},"":{"ha":697,"x_min":170,"x_max":484,"o":"m 172 -330 q 172 -323 172 -328 q 170 -311 171 -317 l 170 -305 q 195 -321 178 -312 q 245 -345 216 -334 q 304 -363 274 -357 q 359 -370 334 -370 q 402 -356 385 -369 q 420 -315 419 -343 q 400 -239 420 -288 q 368 -206 389 -214 q 323 -195 347 -198 q 272 -190 298 -191 q 224 -178 245 -189 q 190 -144 203 -167 q 176 -76 176 -121 q 172 28 168 -7 q 186 75 176 64 q 209 78 197 87 q 230 50 221 69 q 241 7 239 31 q 232 -37 243 -18 q 240 -69 232 -57 q 271 -92 248 -81 q 347 -102 309 -98 q 413 -121 384 -107 q 460 -163 442 -136 q 473 -243 477 -191 q 484 -350 494 -308 q 446 -414 473 -392 q 377 -441 418 -437 q 296 -433 336 -445 q 222 -395 256 -420 q 172 -330 189 -369 z "},"":{"ha":148,"x_min":45,"x_max":104,"o":"m 67 193 q 63 223 65 201 q 59 273 60 245 q 56 333 58 301 q 53 393 55 364 q 50 443 51 421 q 47 474 49 465 l 47 477 q 46 485 47 481 q 46 493 46 489 l 46 499 q 45 506 46 501 q 46 516 45 511 q 50 525 47 521 q 63 531 54 529 q 66 525 64 529 q 71 517 69 521 q 75 508 73 512 q 78 502 77 504 q 93 423 88 466 q 101 337 98 381 q 103 249 103 292 q 104 170 104 206 q 67 193 70 170 z "},"":{"ha":368,"x_min":22,"x_max":319,"o":"m 23 267 q 31 323 25 294 q 47 378 37 352 q 74 428 58 405 q 111 469 89 452 q 162 495 133 486 q 226 501 190 504 q 296 421 275 461 q 318 343 317 380 q 302 273 318 306 q 260 217 286 241 q 202 179 234 193 q 141 165 171 165 q 96 171 117 165 q 58 191 74 178 q 32 224 42 204 q 23 267 23 243 m 281 340 q 278 379 281 362 q 267 412 274 397 q 247 441 259 427 q 216 468 235 454 l 215 462 q 160 450 188 464 q 110 410 132 436 q 74 350 87 385 q 63 277 60 316 q 73 236 63 253 q 104 204 83 218 q 113 204 107 204 q 125 204 119 204 q 138 203 132 204 q 145 203 144 203 q 204 213 179 203 q 247 240 230 222 q 272 283 264 258 q 281 340 281 309 z "},"":{"ha":802,"x_min":18,"x_max":741,"o":"m 60 76 q 121 134 83 103 q 203 195 159 164 q 291 256 247 225 q 370 317 335 286 q 428 381 406 349 q 450 446 450 414 q 448 469 450 461 q 430 484 445 477 l 41 708 q 24 723 30 713 q 18 745 18 732 l 77 745 q 98 735 79 745 q 151 709 118 726 q 224 673 184 693 q 306 632 264 652 q 385 592 347 612 q 448 559 422 572 q 475 545 458 555 q 507 522 492 534 q 532 496 521 510 q 543 467 543 481 q 526 410 543 439 q 485 351 509 380 q 435 299 461 323 q 393 262 410 275 q 370 245 387 258 q 329 215 353 232 q 277 178 305 198 q 222 138 250 157 q 171 102 194 118 q 133 76 148 85 q 123 71 129 75 q 112 64 118 66 q 101 60 106 62 q 96 57 96 57 q 87 60 92 57 q 76 64 81 62 q 66 71 71 66 q 60 76 61 75 m 258 91 q 319 149 281 119 q 401 209 357 179 q 488 270 445 239 q 568 332 532 301 q 626 397 604 363 q 648 463 648 430 q 645 485 648 477 q 628 499 642 492 l 237 723 q 221 739 228 730 q 214 761 214 749 l 274 761 q 296 751 275 761 q 349 724 316 741 q 422 688 382 708 q 503 648 463 667 q 582 608 544 628 q 646 575 620 589 q 673 559 656 568 q 704 538 689 551 q 730 510 719 525 q 741 481 741 495 q 724 426 741 456 q 683 367 707 396 q 633 314 659 338 q 591 277 608 290 q 568 261 585 274 q 527 231 551 248 q 475 193 503 213 q 419 154 446 174 q 369 118 392 134 q 331 91 346 102 q 321 86 327 90 q 310 81 316 83 q 299 76 304 79 q 294 73 294 73 q 285 76 290 73 q 274 81 279 79 q 264 86 269 83 q 258 91 259 90 z "},"":{"ha":806,"x_min":26,"x_max":692,"o":"m 77 189 q 72 224 74 198 q 67 284 69 250 q 64 354 66 317 q 60 425 62 392 q 56 485 58 459 q 52 522 55 511 l 52 526 q 51 535 52 530 q 51 544 51 540 l 51 552 q 50 560 51 554 q 51 572 49 567 q 56 583 52 578 q 72 590 60 588 q 77 583 73 587 q 82 573 80 578 q 87 563 84 567 q 91 555 90 558 q 110 462 104 513 q 119 359 117 411 q 123 255 122 307 q 124 161 124 204 q 77 189 81 161 m 26 23 q 26 28 26 24 q 26 33 26 31 q 75 95 42 52 q 147 193 107 138 q 231 309 187 248 q 315 425 275 369 q 388 524 355 480 q 437 589 420 567 q 447 607 439 594 q 464 634 454 620 q 480 663 473 648 q 491 682 487 677 l 528 682 q 488 572 515 629 q 422 457 460 515 q 341 340 385 399 q 252 224 297 281 q 163 115 206 168 q 83 12 119 61 q 70 -3 73 1 q 56 -7 66 -7 q 35 2 43 -7 q 26 23 26 11 m 524 264 l 331 264 q 319 271 323 264 q 315 282 315 277 q 315 285 315 283 q 317 288 316 288 q 404 353 367 325 q 466 398 441 380 q 505 427 491 417 q 524 440 520 437 l 528 441 q 532 441 530 441 q 542 435 538 441 q 549 424 547 430 q 552 411 551 417 q 553 404 553 405 q 555 384 553 399 q 559 352 557 368 q 563 320 562 335 q 565 300 565 305 q 572 291 567 293 q 583 287 576 288 q 596 286 590 286 q 607 287 602 287 q 653 295 633 287 q 690 322 673 303 q 691 317 690 322 q 692 311 692 313 q 691 279 697 290 q 671 263 684 268 q 638 257 657 258 q 603 258 620 257 q 574 258 587 259 q 559 252 562 258 l 559 19 l 538 -5 l 524 6 l 524 264 m 427 300 l 510 300 l 510 381 l 496 381 l 427 322 l 427 300 z "},"":{"ha":860,"x_min":22,"x_max":696,"o":"m 71 189 q 67 224 69 198 q 63 284 64 250 q 60 354 62 317 q 56 425 58 392 q 53 485 55 459 q 50 522 52 511 l 50 526 q 49 535 50 530 q 49 544 49 540 l 49 552 q 48 560 49 554 q 49 572 47 567 q 53 583 50 578 q 67 590 57 588 q 71 583 68 587 q 76 573 74 578 q 80 563 77 567 q 83 555 82 558 q 100 462 94 513 q 107 359 105 411 q 110 255 110 307 q 111 161 111 204 q 71 189 75 161 m 22 26 q 22 31 22 27 q 22 35 22 34 q 71 98 38 54 q 143 196 103 141 q 227 311 183 251 q 311 427 271 372 q 384 526 351 483 q 433 591 416 570 q 443 610 435 597 q 460 637 450 623 q 476 665 469 651 q 487 685 483 680 l 524 685 q 484 575 511 632 q 418 460 456 518 q 337 342 381 401 q 248 227 293 283 q 159 117 202 171 q 79 15 115 64 q 66 0 69 4 q 52 -4 62 -4 q 31 5 39 -4 q 22 26 22 14 m 445 58 q 421 51 433 58 q 398 36 410 44 q 373 20 387 27 q 342 13 360 13 l 333 13 q 320 14 328 13 q 307 15 313 14 q 299 15 302 15 q 293 25 295 20 q 289 35 290 30 q 287 45 287 40 q 286 57 286 51 q 295 95 286 80 q 318 119 304 110 q 349 131 332 127 q 384 135 367 134 q 418 133 402 135 q 445 130 434 131 q 495 217 481 167 q 508 321 508 267 q 507 362 508 340 q 500 403 505 385 q 482 434 494 422 q 448 446 470 446 q 397 438 421 446 q 353 413 373 430 q 319 373 334 397 q 299 315 305 348 l 299 321 q 298 329 299 325 q 298 338 298 334 l 298 344 q 298 363 298 355 q 300 380 299 372 q 304 397 302 388 q 312 415 307 406 q 348 445 333 433 q 376 463 362 456 q 404 472 390 470 q 438 475 418 475 q 487 461 467 475 q 521 424 508 447 q 540 371 534 400 q 546 311 546 342 l 546 301 q 545 288 546 295 q 545 277 545 281 q 545 273 545 273 q 533 240 542 263 q 515 193 525 218 q 496 145 505 168 q 482 115 487 123 q 482 111 482 114 l 481 108 q 495 71 481 86 q 527 46 508 56 q 566 32 546 36 q 600 27 586 27 q 625 37 614 27 q 647 60 636 48 q 669 81 658 71 q 695 91 680 91 q 684 52 695 69 q 656 23 672 35 q 621 5 639 11 q 586 -1 602 -1 q 549 8 566 -1 q 515 29 532 18 q 482 49 498 40 q 445 58 465 58 m 353 102 q 328 99 336 102 q 314 89 319 96 q 309 68 310 82 q 308 33 308 54 l 328 33 q 363 37 345 33 q 396 50 382 41 q 411 79 411 59 q 403 94 411 89 q 387 101 396 99 q 368 102 377 102 l 353 102 z "},"":{"ha":956,"x_min":26,"x_max":793,"o":"m 58 262 q 86 255 73 262 q 114 240 99 248 q 147 224 129 231 q 191 218 166 218 q 240 227 218 218 q 278 250 263 235 q 303 287 294 266 q 312 335 312 309 q 308 380 312 359 q 293 417 304 401 q 265 441 283 432 q 219 449 247 449 q 184 444 198 449 q 156 434 170 439 q 130 423 143 428 q 99 418 117 418 q 110 468 99 444 q 133 514 120 491 q 157 560 146 536 q 168 608 168 583 q 160 609 165 608 q 148 611 155 610 q 137 612 142 611 q 129 612 132 612 q 111 608 124 610 q 84 601 98 605 q 57 592 70 596 q 40 587 44 588 l 26 599 q 44 606 32 601 q 71 615 57 610 q 103 626 86 620 q 136 636 120 631 q 164 645 152 641 q 181 650 175 648 q 187 652 183 651 q 197 653 192 653 q 206 655 202 654 q 212 655 211 655 q 208 611 212 634 q 196 564 203 587 q 182 520 189 541 q 169 486 174 500 q 249 478 214 484 q 306 457 283 472 q 340 414 328 442 q 351 340 351 386 q 338 280 351 306 q 304 234 325 253 q 253 204 283 215 q 191 193 224 193 q 152 195 174 193 q 108 204 129 197 q 72 225 86 211 q 58 262 58 238 m 175 71 q 175 75 175 72 q 175 80 175 79 q 224 142 191 99 q 296 241 256 186 q 380 356 336 296 q 465 472 425 416 q 537 571 505 528 q 586 636 570 614 q 596 654 589 642 q 613 682 604 667 q 629 710 623 696 q 640 730 636 724 l 677 730 q 637 620 665 677 q 572 505 609 563 q 490 387 534 446 q 401 272 446 328 q 312 162 355 216 q 232 60 269 109 q 219 45 222 49 q 205 41 216 41 q 184 50 193 41 q 175 71 175 58 m 625 301 l 430 301 q 418 308 423 301 q 414 321 414 315 q 415 324 414 321 q 416 327 415 327 q 504 398 466 367 q 566 448 541 428 q 606 479 591 468 q 625 494 621 490 l 628 495 q 633 495 630 495 q 643 489 639 495 q 650 476 647 483 q 653 462 652 469 q 654 455 654 456 q 656 432 654 449 q 660 397 658 415 q 664 363 662 379 q 666 340 666 346 q 672 330 668 333 q 684 326 677 327 q 697 325 691 325 q 708 326 703 326 q 755 335 735 326 q 791 365 774 344 q 792 359 791 364 q 793 352 793 354 q 792 317 799 329 q 772 299 786 305 q 740 294 758 294 q 704 294 721 293 q 675 295 688 295 q 660 288 662 294 l 660 32 l 639 5 l 625 18 l 625 301 m 527 340 l 610 340 l 610 429 l 596 429 l 527 365 l 527 340 z "},"":{"ha":553,"x_min":56,"x_max":518,"o":"m 111 407 q 108 398 110 405 q 107 389 107 391 q 133 335 107 359 q 200 291 160 312 q 286 250 240 271 q 372 204 332 229 q 439 148 412 179 q 465 76 465 117 q 452 26 465 45 q 417 -4 438 6 q 370 -17 397 -13 q 317 -20 344 -20 q 247 -4 281 -20 q 182 32 213 13 q 126 68 151 52 q 85 85 100 85 q 64 77 72 85 q 57 57 57 70 q 73 19 57 36 q 117 -12 90 3 q 176 -38 144 -27 q 240 -55 207 -48 q 298 -66 272 -62 q 340 -69 325 -69 q 471 -33 424 -69 q 518 83 518 3 q 518 93 518 86 q 518 109 518 101 q 517 124 518 117 q 517 134 517 132 q 469 179 501 154 q 398 229 437 204 q 318 278 359 253 q 241 323 276 303 q 184 359 206 344 q 162 381 162 374 q 175 406 162 395 q 198 423 188 417 l 225 441 q 269 467 246 453 q 312 492 291 480 q 340 508 332 504 q 340 512 340 509 q 340 518 340 515 q 333 536 340 529 q 314 542 326 542 q 255 528 285 542 q 198 493 225 514 q 149 448 171 472 q 111 407 126 425 m 397 813 q 388 837 397 825 q 367 849 380 849 q 344 837 353 849 q 335 813 335 825 l 397 813 z "},"":{"ha":867,"x_min":5,"x_max":850,"o":"m 5 -1 q 14 41 5 20 q 35 82 23 62 q 62 119 47 102 q 87 152 76 137 q 205 341 153 248 q 300 530 256 434 q 381 725 343 625 q 458 932 419 825 q 470 949 464 944 q 487 954 476 954 q 510 941 500 954 q 524 911 519 928 q 531 880 529 895 q 533 859 533 864 q 536 823 534 849 q 538 760 537 796 q 542 682 540 724 q 546 604 544 640 q 549 542 548 568 q 551 505 549 515 q 553 490 551 500 q 559 467 556 479 q 565 445 562 456 q 571 431 568 434 q 577 425 571 430 q 590 413 583 419 q 602 401 597 407 q 608 395 608 396 q 609 381 609 392 q 608 358 609 370 q 608 334 608 346 q 608 321 608 323 q 635 266 614 297 q 682 201 655 235 q 739 134 709 167 q 793 76 769 102 q 834 33 818 50 q 850 14 850 16 q 839 -7 850 0 q 811 -14 827 -14 q 747 11 780 -14 q 682 73 713 35 q 622 153 651 110 q 571 234 593 197 q 534 296 549 271 q 514 321 518 321 l 293 321 q 232 297 256 321 q 189 237 208 273 q 154 159 170 201 q 118 82 138 118 q 72 22 98 46 q 5 -1 46 -1 m 458 784 q 454 777 457 783 q 449 766 452 772 q 443 755 446 761 q 439 747 439 749 q 416 689 429 724 q 388 617 403 654 l 359 544 q 335 479 346 507 q 317 432 324 450 q 311 412 311 414 l 311 395 l 498 395 l 458 784 m 449 1227 q 475 1190 453 1215 q 522 1135 496 1165 q 570 1076 547 1105 q 602 1027 593 1047 q 606 1000 613 1005 q 581 1002 600 996 q 538 1025 563 1008 q 486 1064 513 1043 q 437 1109 460 1085 q 400 1156 414 1134 q 387 1194 387 1177 q 404 1218 387 1211 l 449 1227 z "},"":{"ha":891,"x_min":11,"x_max":856,"o":"m 11 12 q 20 55 11 34 q 41 96 28 76 q 67 133 53 115 q 92 165 81 151 q 210 355 159 262 q 305 543 262 448 q 387 739 349 639 q 464 945 425 838 q 475 962 469 958 q 492 967 481 967 q 515 954 506 967 q 530 925 525 941 q 536 893 534 909 q 538 872 538 878 q 541 836 540 863 q 544 774 543 810 q 547 696 545 738 q 551 618 549 654 q 554 555 553 582 q 556 518 555 529 q 559 503 556 514 q 564 481 562 492 q 570 458 567 469 q 576 445 574 448 q 583 438 576 444 q 595 427 589 433 q 608 415 602 420 q 613 408 613 410 q 614 395 614 406 q 614 372 614 384 q 613 348 613 359 q 613 335 613 336 q 640 279 620 311 q 688 214 661 248 q 745 148 715 180 q 799 90 774 115 q 840 47 823 64 q 856 27 856 30 q 844 7 856 14 q 817 0 833 0 q 752 24 785 0 q 688 86 719 49 q 627 167 656 123 q 576 248 598 210 q 539 310 555 285 q 519 335 524 335 l 298 335 q 237 311 262 335 q 194 250 213 286 q 159 173 175 214 q 123 96 144 132 q 77 36 103 60 q 11 12 52 12 m 464 798 q 460 791 463 796 q 454 780 457 785 q 448 768 452 774 q 445 761 445 762 q 421 703 434 738 q 393 631 408 667 l 365 557 q 340 492 351 521 q 323 446 330 464 q 316 426 316 427 l 316 408 l 503 408 l 464 798 m 556 1158 q 578 1136 578 1152 q 562 1101 578 1120 q 520 1059 547 1081 q 465 1018 494 1038 q 407 983 435 998 q 359 962 378 968 q 331 960 339 956 q 335 985 323 964 q 357 1014 342 997 q 389 1048 372 1031 q 427 1083 407 1065 q 463 1117 446 1101 q 492 1145 479 1133 q 509 1166 505 1158 l 556 1158 z "},"":{"ha":891,"x_min":11,"x_max":856,"o":"m 11 12 q 20 55 11 34 q 41 96 28 76 q 67 133 53 115 q 92 165 81 151 q 210 355 159 262 q 305 543 262 448 q 387 739 349 639 q 464 945 425 838 q 475 962 469 958 q 492 967 481 967 q 515 954 506 967 q 530 925 525 941 q 536 893 534 909 q 538 872 538 878 q 541 836 540 863 q 544 774 543 810 q 547 696 545 738 q 551 618 549 654 q 554 555 553 582 q 556 518 555 529 q 559 503 556 514 q 564 481 562 492 q 570 458 567 469 q 576 445 574 448 q 583 438 576 444 q 595 427 589 433 q 608 415 602 420 q 613 408 613 410 q 614 395 614 406 q 614 372 614 384 q 613 348 613 359 q 613 335 613 336 q 640 279 620 311 q 688 214 661 248 q 745 148 715 180 q 799 90 774 115 q 840 47 823 64 q 856 27 856 30 q 844 7 856 14 q 817 0 833 0 q 752 24 785 0 q 688 86 719 49 q 627 167 656 123 q 576 248 598 210 q 539 310 555 285 q 519 335 524 335 l 298 335 q 237 311 262 335 q 194 250 213 286 q 159 173 175 214 q 123 96 144 132 q 77 36 103 60 q 11 12 52 12 m 464 798 q 460 791 463 796 q 454 780 457 785 q 448 768 452 774 q 445 761 445 762 q 421 703 434 738 q 393 631 408 667 l 365 557 q 340 492 351 521 q 323 446 330 464 q 316 426 316 427 l 316 408 l 503 408 l 464 798 m 361 1101 q 373 1126 363 1105 q 394 1174 382 1146 q 419 1232 406 1202 q 446 1287 433 1263 q 471 1329 460 1312 q 492 1347 483 1347 q 500 1345 494 1347 q 510 1341 507 1343 q 512 1323 510 1336 q 517 1295 514 1310 q 523 1267 519 1280 q 529 1249 526 1253 q 545 1213 533 1237 q 570 1162 556 1190 q 598 1108 583 1135 l 621 1061 q 658 993 651 1016 q 658 964 665 970 q 633 968 651 959 q 591 996 614 978 q 545 1038 568 1013 q 505 1088 522 1062 q 480 1139 488 1114 q 480 1169 477 1154 q 477 1162 479 1165 q 454 1118 468 1143 q 422 1062 439 1092 q 387 1008 404 1032 q 358 972 370 985 q 340 966 346 959 q 338 1004 334 972 q 361 1101 343 1036 m 484 1183 q 480 1171 480 1176 q 484 1183 486 1181 z "},"":{"ha":891,"x_min":11,"x_max":856,"o":"m 11 12 q 20 55 11 34 q 41 96 28 76 q 67 133 53 115 q 92 165 81 151 q 210 355 159 262 q 305 543 262 448 q 387 739 349 639 q 464 945 425 838 q 475 962 469 958 q 492 967 481 967 q 515 954 506 967 q 530 925 525 941 q 536 893 534 909 q 538 872 538 878 q 541 836 540 863 q 544 774 543 810 q 547 696 545 738 q 551 618 549 654 q 554 555 553 582 q 556 518 555 529 q 559 503 556 514 q 564 481 562 492 q 570 458 567 469 q 576 445 574 448 q 583 438 576 444 q 595 427 589 433 q 608 415 602 420 q 613 408 613 410 q 614 395 614 406 q 614 372 614 384 q 613 348 613 359 q 613 335 613 336 q 640 279 620 311 q 688 214 661 248 q 745 148 715 180 q 799 90 774 115 q 840 47 823 64 q 856 27 856 30 q 844 7 856 14 q 817 0 833 0 q 752 24 785 0 q 688 86 719 49 q 627 167 656 123 q 576 248 598 210 q 539 310 555 285 q 519 335 524 335 l 298 335 q 237 311 262 335 q 194 250 213 286 q 159 173 175 214 q 123 96 144 132 q 77 36 103 60 q 11 12 52 12 m 464 798 q 460 791 463 796 q 454 780 457 785 q 448 768 452 774 q 445 761 445 762 q 421 703 434 738 q 393 631 408 667 l 365 557 q 340 492 351 521 q 323 446 330 464 q 316 426 316 427 l 316 408 l 503 408 l 464 798 m 332 1001 q 346 1082 332 1053 q 382 1122 359 1111 q 433 1129 404 1133 q 493 1114 463 1126 q 554 1084 524 1101 q 610 1048 585 1066 q 696 1102 658 1085 q 763 1122 735 1119 q 802 1116 791 1126 q 800 1087 812 1107 q 749 1042 788 1067 q 637 986 709 1016 q 579 997 608 987 q 524 1017 551 1006 q 473 1037 498 1028 q 424 1047 448 1046 q 377 1038 400 1048 q 332 1001 354 1028 z "},"":{"ha":891,"x_min":11,"x_max":856,"o":"m 11 12 q 20 55 11 34 q 41 96 28 76 q 67 133 53 115 q 92 165 81 151 q 210 355 159 262 q 305 543 262 448 q 387 739 349 639 q 464 945 425 838 q 475 962 469 958 q 492 967 481 967 q 515 954 506 967 q 530 925 525 941 q 536 893 534 909 q 538 872 538 878 q 541 836 540 863 q 544 774 543 810 q 547 696 545 738 q 551 618 549 654 q 554 555 553 582 q 556 518 555 529 q 559 503 556 514 q 564 481 562 492 q 570 458 567 469 q 576 445 574 448 q 583 438 576 444 q 595 427 589 433 q 608 415 602 420 q 613 408 613 410 q 614 395 614 406 q 614 372 614 384 q 613 348 613 359 q 613 335 613 336 q 640 279 620 311 q 688 214 661 248 q 745 148 715 180 q 799 90 774 115 q 840 47 823 64 q 856 27 856 30 q 844 7 856 14 q 817 0 833 0 q 752 24 785 0 q 688 86 719 49 q 627 167 656 123 q 576 248 598 210 q 539 310 555 285 q 519 335 524 335 l 298 335 q 237 311 262 335 q 194 250 213 286 q 159 173 175 214 q 123 96 144 132 q 77 36 103 60 q 11 12 52 12 m 464 798 q 460 791 463 796 q 454 780 457 785 q 448 768 452 774 q 445 761 445 762 q 421 703 434 738 q 393 631 408 667 l 365 557 q 340 492 351 521 q 323 446 330 464 q 316 426 316 427 l 316 408 l 503 408 l 464 798 m 510 1012 q 515 1034 510 1025 q 530 1048 521 1043 q 551 1057 540 1054 q 571 1059 562 1059 l 571 1048 q 569 1025 571 1038 q 562 1003 567 1013 q 548 993 557 993 q 540 995 545 993 q 528 1000 534 997 q 517 1006 522 1004 q 510 1012 513 1009 m 389 1012 q 395 1034 389 1025 q 410 1048 400 1043 q 430 1057 419 1054 q 450 1059 441 1059 l 450 1048 q 448 1025 450 1038 q 441 1003 445 1013 q 427 993 437 993 q 419 995 425 993 q 408 1000 414 997 q 397 1006 401 1004 q 389 1012 392 1009 z "},"":{"ha":891,"x_min":11,"x_max":856,"o":"m 404 1053 q 422 1093 408 1082 q 455 1102 435 1104 q 496 1086 475 1100 q 536 1054 518 1073 q 564 1015 553 1035 q 571 976 574 994 q 549 945 568 958 q 525 937 540 940 q 529 924 528 932 q 536 893 534 909 q 538 872 538 878 q 541 836 540 863 q 544 774 543 810 q 547 696 545 738 q 551 618 549 654 q 554 555 553 582 q 556 518 555 529 q 559 503 556 514 q 564 481 562 492 q 570 458 567 469 q 576 445 574 448 q 583 438 576 444 q 595 427 589 433 q 608 415 602 420 q 613 408 613 410 q 614 395 614 406 q 614 372 614 384 q 613 348 613 359 q 613 335 613 336 q 640 279 620 311 q 688 214 661 248 q 745 148 715 180 q 799 90 774 115 q 840 47 823 64 q 856 27 856 30 q 844 7 856 14 q 817 0 833 0 q 752 24 785 0 q 688 86 719 49 q 627 167 656 123 q 576 248 598 210 q 539 310 555 285 q 519 335 524 335 l 298 335 q 237 311 262 335 q 194 250 213 286 q 159 173 175 214 q 123 96 144 132 q 77 36 103 60 q 11 12 52 12 q 20 55 11 34 q 41 96 28 76 q 67 133 53 115 q 92 165 81 151 q 210 355 159 262 q 305 543 262 448 q 385 738 349 639 q 461 940 423 836 q 429 968 444 948 q 404 1053 404 1002 m 464 798 q 460 791 463 796 q 454 780 457 785 q 448 768 452 774 q 445 761 445 762 q 421 703 434 738 q 393 631 408 667 l 365 557 q 340 492 351 521 q 323 446 330 464 q 316 426 316 427 l 316 408 l 503 408 l 464 798 m 495 974 q 531 985 522 974 q 535 1010 540 996 q 517 1040 530 1025 q 486 1064 503 1055 q 453 1072 469 1073 q 430 1053 437 1070 q 447 992 427 1010 q 495 974 467 974 z "},"":{"ha":1147,"x_min":11,"x_max":1105,"o":"m 11 12 q 20 55 11 34 q 41 96 28 76 q 67 133 53 115 q 92 165 81 151 q 210 355 159 262 q 305 543 262 448 q 387 739 349 639 q 464 945 425 838 q 475 962 469 958 q 492 967 481 967 q 519 956 506 967 q 542 928 532 944 q 557 899 552 913 q 563 880 563 884 l 563 849 q 562 797 563 827 q 560 731 562 766 q 557 662 559 696 l 568 734 q 669 765 623 753 q 759 783 715 777 q 848 792 803 789 q 945 795 894 795 q 971 794 955 795 q 1004 793 987 793 q 1034 791 1020 792 q 1051 789 1047 791 l 1088 772 l 1067 751 q 1032 754 1058 753 q 976 755 1006 755 q 920 754 945 755 q 884 751 894 753 q 838 745 864 750 q 781 735 811 741 q 724 724 751 730 q 673 713 696 719 q 637 704 651 708 q 624 697 624 700 l 624 456 l 982 456 q 961 433 982 442 q 906 417 940 423 q 831 408 872 411 q 753 400 791 404 q 684 392 715 396 q 642 382 654 388 q 641 359 642 374 q 640 326 640 343 q 640 292 640 308 l 640 270 q 639 215 640 247 q 642 154 637 183 q 661 104 646 125 q 712 83 677 83 q 895 93 803 83 q 1078 103 986 103 l 1105 103 q 1082 77 1096 91 q 1049 53 1067 64 q 1012 36 1031 42 q 975 30 993 30 l 678 30 q 637 37 656 30 l 637 31 q 627 12 637 18 q 598 5 616 5 q 549 29 567 5 q 525 90 532 53 q 518 170 518 126 q 519 250 518 213 q 522 311 521 286 q 519 335 524 335 l 298 335 q 237 311 262 335 q 194 250 213 286 q 159 173 175 214 q 123 96 144 132 q 77 36 103 60 q 11 12 52 12 m 445 761 q 421 703 434 738 q 393 631 408 667 l 365 557 q 340 492 351 521 q 323 446 330 464 q 316 426 316 427 l 316 408 l 503 408 l 464 798 l 445 761 z "},"":{"ha":734,"x_min":27,"x_max":700,"o":"m 208 -330 q 207 -323 208 -328 q 206 -311 206 -317 l 206 -305 q 231 -321 213 -312 q 280 -345 251 -334 q 339 -363 309 -357 q 395 -370 369 -370 q 438 -356 422 -369 q 456 -315 454 -343 q 437 -239 457 -288 q 404 -206 425 -214 q 358 -195 382 -198 q 307 -190 334 -191 q 260 -178 281 -189 q 226 -144 239 -167 q 213 -76 213 -121 q 208 28 203 -7 q 210 38 209 34 q 129 92 165 60 q 54 202 81 140 q 27 342 27 264 q 60 547 27 450 q 140 742 92 644 q 179 787 163 769 q 214 815 195 804 q 254 831 232 826 q 309 836 277 836 q 380 827 340 836 q 456 799 420 818 q 517 751 492 780 q 541 681 541 722 q 486 699 514 681 q 429 739 458 718 q 366 779 400 761 q 286 798 331 798 q 232 772 258 798 q 185 707 206 747 q 149 618 164 667 q 123 522 133 570 q 107 434 113 475 q 102 370 102 393 q 125 237 102 296 q 190 138 148 178 q 292 76 232 98 q 427 54 353 54 q 519 66 479 54 q 589 93 559 79 q 638 119 618 107 q 667 130 658 130 q 685 125 678 130 q 694 113 692 121 q 699 97 697 106 q 700 79 700 88 q 681 39 700 54 q 633 14 662 23 q 567 1 604 5 q 496 -3 530 -3 q 431 -2 461 -3 q 385 -1 401 -1 q 275 12 327 -1 q 277 7 277 9 q 267 -37 279 -18 q 275 -69 267 -57 q 307 -92 283 -81 q 383 -102 346 -98 q 449 -121 420 -107 q 495 -163 477 -136 q 510 -243 513 -191 q 519 -350 530 -308 q 481 -414 509 -392 q 412 -441 453 -437 q 332 -433 372 -445 q 258 -395 292 -420 q 208 -330 225 -369 z "},"":{"ha":613,"x_min":31,"x_max":594,"o":"m 37 426 q 37 498 37 467 q 40 559 38 529 q 46 624 42 590 q 56 704 50 658 q 157 736 111 724 q 246 755 202 749 q 336 764 290 762 q 434 766 381 766 q 460 766 444 766 q 492 764 476 765 q 522 762 509 762 q 540 761 536 762 l 576 742 l 556 724 q 520 726 547 726 q 464 726 494 726 q 408 726 434 726 q 372 724 382 726 q 326 717 353 722 q 269 707 298 712 q 212 695 240 701 q 162 684 184 689 q 125 674 140 678 q 111 667 111 670 l 111 426 l 471 426 q 450 404 471 412 q 394 390 429 396 q 319 379 359 384 q 241 371 279 374 q 172 363 202 368 q 129 353 142 359 q 129 330 129 346 q 128 297 129 315 q 127 262 127 279 l 127 240 q 127 185 127 217 q 130 124 126 153 q 150 75 134 95 q 199 54 165 54 q 291 57 245 54 q 382 63 336 60 q 474 71 429 66 q 566 75 519 75 l 594 75 q 570 47 585 61 q 536 24 555 34 q 500 7 518 14 q 464 0 481 0 l 167 0 q 98 25 125 0 q 57 90 72 50 q 37 177 42 129 q 32 273 33 225 q 34 362 31 321 q 37 426 37 403 m 274 1051 q 300 1014 278 1039 q 347 959 321 989 q 395 900 372 929 q 427 850 418 871 q 431 824 438 829 q 406 825 425 819 q 363 849 388 831 q 311 888 338 867 q 262 933 285 909 q 225 979 239 958 q 212 1018 212 1001 q 229 1042 212 1035 l 274 1051 z "},"":{"ha":613,"x_min":31,"x_max":594,"o":"m 37 426 q 37 498 37 467 q 40 559 38 529 q 46 624 42 590 q 56 704 50 658 q 157 736 111 724 q 246 755 202 749 q 336 764 290 762 q 434 766 381 766 q 460 766 444 766 q 492 764 476 765 q 522 762 509 762 q 540 761 536 762 l 576 742 l 556 724 q 520 726 547 726 q 464 726 494 726 q 408 726 434 726 q 372 724 382 726 q 326 717 353 722 q 269 707 298 712 q 212 695 240 701 q 162 684 184 689 q 125 674 140 678 q 111 667 111 670 l 111 426 l 471 426 q 450 404 471 412 q 394 390 429 396 q 319 379 359 384 q 241 371 279 374 q 172 363 202 368 q 129 353 142 359 q 129 330 129 346 q 128 297 129 315 q 127 262 127 279 l 127 240 q 127 185 127 217 q 130 124 126 153 q 150 75 134 95 q 199 54 165 54 q 291 57 245 54 q 382 63 336 60 q 474 71 429 66 q 566 75 519 75 l 594 75 q 570 47 585 61 q 536 24 555 34 q 500 7 518 14 q 464 0 481 0 l 167 0 q 98 25 125 0 q 57 90 72 50 q 37 177 42 129 q 32 273 33 225 q 34 362 31 321 q 37 426 37 403 m 392 1043 q 414 1021 414 1036 q 398 985 414 1005 q 356 944 382 966 q 300 903 330 922 q 243 868 271 883 q 195 847 214 853 q 167 845 175 841 q 171 869 159 849 q 193 899 178 882 q 225 932 208 916 q 262 968 243 949 q 298 1002 282 986 q 328 1030 315 1017 q 345 1051 340 1043 l 392 1043 z "},"":{"ha":613,"x_min":31,"x_max":594,"o":"m 37 426 q 37 498 37 467 q 40 559 38 529 q 46 624 42 590 q 56 704 50 658 q 157 736 111 724 q 246 755 202 749 q 336 764 290 762 q 434 766 381 766 q 460 766 444 766 q 492 764 476 765 q 522 762 509 762 q 540 761 536 762 l 576 742 l 556 724 q 520 726 547 726 q 464 726 494 726 q 408 726 434 726 q 372 724 382 726 q 326 717 353 722 q 269 707 298 712 q 212 695 240 701 q 162 684 184 689 q 125 674 140 678 q 111 667 111 670 l 111 426 l 471 426 q 450 404 471 412 q 394 390 429 396 q 319 379 359 384 q 241 371 279 374 q 172 363 202 368 q 129 353 142 359 q 129 330 129 346 q 128 297 129 315 q 127 262 127 279 l 127 240 q 127 185 127 217 q 130 124 126 153 q 150 75 134 95 q 199 54 165 54 q 291 57 245 54 q 382 63 336 60 q 474 71 429 66 q 566 75 519 75 l 594 75 q 570 47 585 61 q 536 24 555 34 q 500 7 518 14 q 464 0 481 0 l 167 0 q 98 25 125 0 q 57 90 72 50 q 37 177 42 129 q 32 273 33 225 q 34 362 31 321 q 37 426 37 403 m 174 1035 q 186 1059 176 1039 q 207 1107 195 1080 q 232 1166 218 1135 q 259 1221 245 1196 q 284 1263 273 1245 q 305 1280 296 1280 q 313 1278 307 1280 q 323 1275 320 1276 q 325 1257 323 1270 q 330 1229 327 1244 q 336 1200 332 1214 q 342 1183 339 1187 q 357 1147 346 1171 q 382 1096 369 1123 q 411 1042 396 1069 l 434 994 q 471 926 464 949 q 471 898 477 903 q 446 902 464 892 q 404 929 427 911 q 358 971 381 947 q 318 1021 335 996 q 293 1073 301 1047 q 293 1103 290 1088 q 290 1096 292 1099 q 267 1051 281 1077 q 235 996 252 1025 q 200 942 217 966 q 171 905 183 918 q 153 899 159 892 q 151 938 146 906 q 174 1035 156 970 m 297 1116 q 293 1104 293 1109 q 297 1116 298 1115 z "},"":{"ha":613,"x_min":31,"x_max":594,"o":"m 37 426 q 37 498 37 467 q 40 559 38 529 q 46 624 42 590 q 56 704 50 658 q 157 736 111 724 q 246 755 202 749 q 336 764 290 762 q 434 766 381 766 q 460 766 444 766 q 492 764 476 765 q 522 762 509 762 q 540 761 536 762 l 576 742 l 556 724 q 520 726 547 726 q 464 726 494 726 q 408 726 434 726 q 372 724 382 726 q 326 717 353 722 q 269 707 298 712 q 212 695 240 701 q 162 684 184 689 q 125 674 140 678 q 111 667 111 670 l 111 426 l 471 426 q 450 404 471 412 q 394 390 429 396 q 319 379 359 384 q 241 371 279 374 q 172 363 202 368 q 129 353 142 359 q 129 330 129 346 q 128 297 129 315 q 127 262 127 279 l 127 240 q 127 185 127 217 q 130 124 126 153 q 150 75 134 95 q 199 54 165 54 q 291 57 245 54 q 382 63 336 60 q 474 71 429 66 q 566 75 519 75 l 594 75 q 570 47 585 61 q 536 24 555 34 q 500 7 518 14 q 464 0 481 0 l 167 0 q 98 25 125 0 q 57 90 72 50 q 37 177 42 129 q 32 273 33 225 q 34 362 31 321 q 37 426 37 403 m 324 846 q 330 869 324 860 q 345 883 335 878 q 365 891 354 888 q 385 894 376 894 l 385 883 q 383 860 385 872 q 376 838 381 848 q 362 827 372 827 q 354 829 359 827 q 342 835 349 831 q 332 841 336 838 q 324 846 327 844 m 203 846 q 209 869 203 860 q 224 883 214 878 q 244 891 233 888 q 264 894 255 894 l 264 883 q 262 860 264 872 q 255 838 259 848 q 241 827 251 827 q 233 829 239 827 q 222 835 228 831 q 211 841 216 838 q 203 846 206 844 z "},"":{"ha":148,"x_min":-30,"x_max":190,"o":"m 66 945 q 77 936 71 943 q 88 921 83 929 q 98 905 94 913 q 103 891 103 897 l 103 18 q 96 7 103 14 q 83 0 88 0 q 73 3 79 0 q 60 7 66 5 q 50 13 54 9 q 46 18 46 16 l 46 909 l 66 945 m 33 1183 q 58 1145 37 1171 q 105 1090 80 1120 q 153 1031 130 1061 q 186 982 176 1002 q 190 956 197 960 q 165 957 183 951 q 121 981 146 963 q 70 1019 96 998 q 20 1065 43 1040 q -16 1111 -3 1089 q -30 1149 -30 1133 q -12 1173 -30 1166 l 33 1183 z "},"":{"ha":148,"x_min":-60,"x_max":187,"o":"m 66 945 q 77 936 71 943 q 88 921 83 929 q 98 905 94 913 q 103 891 103 897 l 103 18 q 96 7 103 14 q 83 0 88 0 q 73 3 79 0 q 60 7 66 5 q 50 13 54 9 q 46 18 46 16 l 46 909 l 66 945 m 165 1172 q 187 1149 187 1165 q 172 1114 187 1134 q 130 1073 156 1095 q 74 1031 103 1051 q 16 997 45 1012 q -32 976 -12 982 q -60 974 -52 970 q -56 998 -68 978 q -34 1027 -49 1010 q -1 1061 -19 1044 q 36 1097 16 1078 q 72 1131 56 1115 q 101 1159 88 1146 q 118 1180 114 1172 l 165 1172 z "},"":{"ha":148,"x_min":-62,"x_max":258,"o":"m 66 945 q 77 936 71 943 q 88 921 83 929 q 98 905 94 913 q 103 891 103 897 l 103 18 q 96 7 103 14 q 83 0 88 0 q 73 3 79 0 q 60 7 66 5 q 50 13 54 9 q 46 18 46 16 l 46 909 l 66 945 m -39 1145 q -27 1169 -37 1149 q -6 1217 -18 1190 q 19 1276 5 1245 q 46 1331 33 1306 q 71 1373 60 1355 q 92 1390 83 1390 q 100 1388 94 1390 q 110 1385 107 1386 q 112 1367 110 1379 q 117 1339 114 1354 q 123 1310 119 1324 q 129 1293 126 1297 q 144 1257 133 1280 q 170 1206 156 1233 q 198 1152 183 1179 l 221 1104 q 258 1036 251 1059 q 258 1008 264 1013 q 233 1012 251 1002 q 191 1039 214 1021 q 145 1081 168 1057 q 105 1131 122 1105 q 80 1183 88 1157 q 80 1213 77 1198 q 77 1206 79 1208 q 54 1161 68 1187 q 22 1105 39 1135 q -13 1052 4 1076 q -42 1015 -30 1028 q -60 1009 -54 1002 q -62 1048 -66 1016 q -39 1145 -57 1080 m 84 1226 q 80 1214 80 1219 q 84 1226 85 1225 z "},"":{"ha":148,"x_min":-5,"x_max":176,"o":"m 66 945 q 77 936 71 943 q 88 921 83 929 q 98 905 94 913 q 103 891 103 897 l 103 18 q 96 7 103 14 q 83 0 88 0 q 73 3 79 0 q 60 7 66 5 q 50 13 54 9 q 46 18 46 16 l 46 909 l 66 945 m 115 1036 q 121 1059 115 1050 q 136 1073 126 1067 q 156 1081 145 1078 q 176 1084 167 1084 l 176 1073 q 174 1050 176 1062 q 168 1027 172 1038 q 153 1017 163 1017 q 145 1019 151 1017 q 134 1025 140 1021 q 123 1031 127 1028 q 115 1036 118 1034 m -5 1036 q 0 1059 -5 1050 q 15 1073 5 1067 q 35 1081 24 1078 q 56 1084 46 1084 l 56 1073 q 53 1050 56 1062 q 46 1027 50 1038 q 33 1017 42 1017 q 24 1019 30 1017 q 13 1025 19 1021 q 2 1031 7 1028 q -5 1036 -3 1034 z "},"":{"ha":787,"x_min":1,"x_max":753,"o":"m 19 429 l 81 430 l 81 780 q 92 811 81 799 q 121 829 103 823 q 160 838 138 836 q 203 839 182 840 q 243 837 225 838 q 274 836 262 836 q 446 810 361 836 q 600 734 532 785 q 711 608 669 682 q 753 438 753 534 q 726 317 753 374 q 654 210 700 259 q 551 122 609 161 q 427 56 492 83 q 297 14 362 28 q 174 -1 232 -1 q 115 10 144 -1 q 64 38 87 22 l 81 75 l 81 391 q 63 391 71 391 q 50 392 56 392 l 38 392 l 1 411 l 19 429 m 155 680 q 155 557 155 620 q 159 433 156 495 l 343 438 q 358 429 354 438 q 362 411 362 419 q 355 392 362 400 q 335 384 347 384 l 323 384 q 245 387 289 385 q 159 389 202 388 q 166 215 163 300 q 174 54 170 130 q 178 54 175 54 q 184 54 182 54 q 288 66 232 54 q 397 102 343 79 q 503 159 452 126 q 593 233 555 191 q 654 323 631 274 q 677 426 677 372 q 639 582 677 514 q 538 694 601 650 q 397 761 476 738 q 236 784 317 784 q 220 783 229 784 q 201 782 212 783 q 184 781 191 781 q 174 780 176 780 l 155 761 l 155 750 q 155 728 155 741 q 155 701 155 715 l 155 680 z "},"":{"ha":761,"x_min":27,"x_max":720,"o":"m 473 54 q 378 201 426 125 q 287 359 331 278 q 205 522 243 439 q 140 688 167 605 l 118 688 q 118 650 118 677 q 119 595 118 624 q 121 538 121 566 l 121 502 q 119 452 119 484 q 117 377 118 419 q 113 288 115 335 q 109 199 111 241 q 104 124 106 157 q 103 75 103 91 q 92 62 99 68 q 77 50 85 56 q 60 41 68 45 q 46 38 53 38 q 34 44 38 38 q 28 58 30 50 q 27 75 27 66 q 27 87 27 83 q 31 251 27 170 q 39 414 35 332 q 46 578 43 495 q 46 742 49 661 q 82 787 64 776 q 129 799 100 799 q 144 799 133 799 q 159 798 155 799 q 242 623 201 705 q 326 460 283 540 q 412 304 368 381 q 510 148 457 227 q 519 138 513 145 q 530 129 526 132 q 531 181 530 146 q 534 260 532 216 q 538 353 536 305 q 541 445 540 400 q 545 524 543 490 q 547 576 547 559 q 553 638 549 601 q 566 718 557 675 q 588 801 575 760 q 620 876 601 842 q 663 930 639 909 q 720 952 688 952 q 711 892 720 921 q 688 838 701 864 q 657 787 674 812 q 627 735 640 762 q 604 678 613 708 q 594 613 594 648 l 594 18 l 589 15 q 576 9 583 12 q 561 4 568 7 q 547 0 553 1 l 544 0 q 538 -1 540 -1 l 533 -1 q 530 0 532 -1 q 518 10 526 3 q 501 26 510 18 q 484 44 492 35 q 473 54 476 53 m 95 926 q 109 1007 95 978 q 144 1047 122 1036 q 196 1055 167 1058 q 256 1039 225 1051 q 317 1009 286 1027 q 373 974 347 991 q 459 1027 420 1010 q 526 1048 498 1044 q 564 1042 553 1051 q 563 1013 575 1032 q 511 967 551 993 q 400 911 472 941 q 342 922 370 913 q 287 943 313 932 q 235 962 260 954 q 186 972 210 971 q 140 964 163 974 q 95 926 117 954 z "},"":{"ha":613,"x_min":27,"x_max":568,"o":"m 27 247 q 33 347 27 290 q 51 464 38 404 q 85 581 64 524 q 138 683 106 639 q 213 755 170 727 q 312 783 256 783 q 439 751 389 783 q 517 668 488 719 q 557 554 545 617 q 568 427 568 491 q 552 269 568 346 q 497 131 536 191 q 397 35 458 71 q 240 -1 335 -1 q 140 18 180 -1 q 75 71 100 38 q 38 149 49 103 q 27 247 27 195 m 102 267 q 107 186 102 225 q 130 118 113 146 q 178 72 146 90 q 262 54 209 54 q 384 85 335 54 q 461 167 433 117 q 501 279 490 217 q 513 404 513 342 q 512 449 513 420 q 508 510 511 477 q 498 578 505 543 q 479 641 491 613 q 446 686 467 669 q 399 704 426 704 q 286 689 334 704 q 204 645 237 674 q 151 576 171 616 q 119 488 130 536 q 105 383 109 439 q 102 267 102 327 m 274 1051 q 300 1014 278 1039 q 347 959 321 989 q 395 900 372 929 q 427 850 418 871 q 431 824 438 829 q 406 825 425 819 q 363 849 388 831 q 311 888 338 867 q 262 933 285 909 q 225 979 239 958 q 212 1018 212 1001 q 229 1042 212 1035 l 274 1051 z "},"":{"ha":613,"x_min":27,"x_max":568,"o":"m 27 247 q 33 347 27 290 q 51 464 38 404 q 85 581 64 524 q 138 683 106 639 q 213 755 170 727 q 312 783 256 783 q 439 751 389 783 q 517 668 488 719 q 557 554 545 617 q 568 427 568 491 q 552 269 568 346 q 497 131 536 191 q 397 35 458 71 q 240 -1 335 -1 q 140 18 180 -1 q 75 71 100 38 q 38 149 49 103 q 27 247 27 195 m 102 267 q 107 186 102 225 q 130 118 113 146 q 178 72 146 90 q 262 54 209 54 q 384 85 335 54 q 461 167 433 117 q 501 279 490 217 q 513 404 513 342 q 512 449 513 420 q 508 510 511 477 q 498 578 505 543 q 479 641 491 613 q 446 686 467 669 q 399 704 426 704 q 286 689 334 704 q 204 645 237 674 q 151 576 171 616 q 119 488 130 536 q 105 383 109 439 q 102 267 102 327 m 392 1043 q 414 1021 414 1036 q 398 985 414 1005 q 356 944 382 966 q 300 903 330 922 q 243 868 271 883 q 195 847 214 853 q 167 845 175 841 q 171 869 159 849 q 193 899 178 882 q 225 932 208 916 q 262 968 243 949 q 298 1002 282 986 q 328 1030 315 1017 q 345 1051 340 1043 l 392 1043 z "},"":{"ha":613,"x_min":27,"x_max":568,"o":"m 27 247 q 33 347 27 290 q 51 464 38 404 q 85 581 64 524 q 138 683 106 639 q 213 755 170 727 q 312 783 256 783 q 439 751 389 783 q 517 668 488 719 q 557 554 545 617 q 568 427 568 491 q 552 269 568 346 q 497 131 536 191 q 397 35 458 71 q 240 -1 335 -1 q 140 18 180 -1 q 75 71 100 38 q 38 149 49 103 q 27 247 27 195 m 102 267 q 107 186 102 225 q 130 118 113 146 q 178 72 146 90 q 262 54 209 54 q 384 85 335 54 q 461 167 433 117 q 501 279 490 217 q 513 404 513 342 q 512 449 513 420 q 508 510 511 477 q 498 578 505 543 q 479 641 491 613 q 446 686 467 669 q 399 704 426 704 q 286 689 334 704 q 204 645 237 674 q 151 576 171 616 q 119 488 130 536 q 105 383 109 439 q 102 267 102 327 m 190 997 q 202 1021 193 1001 q 223 1069 212 1042 q 248 1128 235 1097 q 275 1183 262 1158 q 300 1225 289 1207 q 321 1242 312 1242 q 330 1240 323 1242 q 339 1237 336 1238 q 341 1219 339 1232 q 346 1191 343 1206 q 352 1162 349 1176 q 358 1145 355 1149 q 374 1109 362 1133 q 399 1058 385 1085 q 427 1004 412 1031 l 450 956 q 487 888 480 911 q 487 860 494 865 q 462 864 480 854 q 420 891 444 873 q 374 933 397 909 q 334 983 351 958 q 309 1035 317 1009 q 309 1065 307 1050 q 307 1058 308 1061 q 283 1013 297 1039 q 251 958 269 987 q 216 904 233 928 q 187 867 199 880 q 169 861 175 854 q 168 900 163 868 q 190 997 172 932 m 313 1078 q 309 1066 309 1072 q 313 1078 315 1077 z "},"":{"ha":613,"x_min":22,"x_max":568,"o":"m 27 247 q 33 347 27 290 q 51 464 38 404 q 85 581 64 524 q 138 683 106 639 q 213 755 170 727 q 312 783 256 783 q 439 751 389 783 q 517 668 488 719 q 557 554 545 617 q 568 427 568 491 q 552 269 568 346 q 497 131 536 191 q 397 35 458 71 q 240 -1 335 -1 q 140 18 180 -1 q 75 71 100 38 q 38 149 49 103 q 27 247 27 195 m 102 267 q 107 186 102 225 q 130 118 113 146 q 178 72 146 90 q 262 54 209 54 q 384 85 335 54 q 461 167 433 117 q 501 279 490 217 q 513 404 513 342 q 512 449 513 420 q 508 510 511 477 q 498 578 505 543 q 479 641 491 613 q 446 686 467 669 q 399 704 426 704 q 286 689 334 704 q 204 645 237 674 q 151 576 171 616 q 119 488 130 536 q 105 383 109 439 q 102 267 102 327 m 22 926 q 35 1007 22 978 q 71 1047 49 1036 q 123 1055 94 1058 q 182 1039 152 1051 q 243 1009 213 1027 q 300 974 274 991 q 386 1027 347 1010 q 452 1048 425 1044 q 491 1042 480 1051 q 490 1013 502 1032 q 438 967 477 993 q 327 911 399 941 q 269 922 297 913 q 214 943 240 932 q 162 962 187 954 q 113 972 137 971 q 66 964 90 974 q 22 926 43 954 z "},"":{"ha":613,"x_min":27,"x_max":568,"o":"m 27 247 q 33 347 27 290 q 51 464 38 404 q 85 581 64 524 q 138 683 106 639 q 213 755 170 727 q 312 783 256 783 q 439 751 389 783 q 517 668 488 719 q 557 554 545 617 q 568 427 568 491 q 552 269 568 346 q 497 131 536 191 q 397 35 458 71 q 240 -1 335 -1 q 140 18 180 -1 q 75 71 100 38 q 38 149 49 103 q 27 247 27 195 m 102 267 q 107 186 102 225 q 130 118 113 146 q 178 72 146 90 q 262 54 209 54 q 384 85 335 54 q 461 167 433 117 q 501 279 490 217 q 513 404 513 342 q 512 449 513 420 q 508 510 511 477 q 498 578 505 543 q 479 641 491 613 q 446 686 467 669 q 399 704 426 704 q 286 689 334 704 q 204 645 237 674 q 151 576 171 616 q 119 488 130 536 q 105 383 109 439 q 102 267 102 327 m 338 873 q 343 896 338 887 q 358 910 349 905 q 378 918 368 916 q 399 921 389 921 l 399 910 q 397 887 399 899 q 390 865 395 875 q 376 854 385 854 q 368 857 373 854 q 356 862 362 859 q 345 868 350 865 q 338 873 340 871 m 217 873 q 222 896 217 887 q 237 910 228 905 q 258 918 247 916 q 278 921 269 921 l 278 910 q 275 887 278 899 q 269 865 273 875 q 255 854 264 854 q 247 857 252 854 q 235 862 241 859 q 224 868 229 865 q 217 873 220 871 z "},"":{"ha":781,"x_min":121,"x_max":624,"o":"m 195 652 q 209 658 201 656 q 221 661 214 661 q 236 656 228 661 q 278 630 262 647 q 306 596 294 613 q 327 563 317 579 q 349 538 336 547 q 380 529 362 529 q 426 544 397 529 q 456 565 435 551 q 501 595 477 579 q 545 627 525 612 q 574 650 566 642 q 595 649 586 656 q 612 629 605 642 q 622 604 618 616 q 624 589 625 591 l 430 452 l 621 180 l 609 140 q 568 167 591 144 q 522 222 545 190 q 474 289 498 254 q 429 353 450 324 q 391 396 408 381 q 365 406 374 411 l 174 275 q 148 274 161 269 q 127 292 134 279 q 121 321 119 305 q 141 351 123 338 l 323 472 l 195 652 z "},"":{"ha":613,"x_min":27,"x_max":568,"o":"m 54 28 q 54 33 54 30 q 54 38 54 37 q 79 66 64 49 l 75 71 q 38 149 49 103 q 27 247 27 195 q 33 347 27 290 q 51 464 38 404 q 85 581 64 524 q 138 683 106 639 q 213 755 170 727 q 312 783 256 783 q 438 750 389 783 q 513 675 484 722 q 518 688 518 684 l 556 688 q 537 625 549 656 q 556 555 551 591 q 568 427 568 491 q 552 269 568 346 q 497 131 536 191 q 397 35 458 71 q 240 -1 335 -1 q 140 18 180 -1 q 118 30 129 23 q 111 18 115 23 q 98 3 103 7 q 83 -1 94 -1 q 62 7 71 -1 q 54 28 54 16 m 102 267 q 107 184 102 225 q 122 129 111 153 q 175 199 146 161 q 259 314 214 254 q 344 430 304 374 q 416 529 384 486 q 464 594 448 572 q 475 613 468 600 q 484 628 480 618 q 477 640 481 635 q 446 686 467 669 q 399 704 426 704 q 286 689 334 704 q 204 645 237 674 q 151 576 171 616 q 119 488 130 536 q 105 383 109 439 q 102 267 102 327 m 176 71 q 262 54 209 54 q 384 85 335 54 q 461 167 433 117 q 501 279 490 217 q 513 404 513 342 q 512 449 513 420 q 507 510 511 477 q 503 551 506 530 q 450 463 479 506 q 368 345 412 404 q 279 230 324 286 q 190 119 235 174 q 160 81 175 100 q 176 71 168 77 z "},"":{"ha":909,"x_min":22,"x_max":868,"o":"m 492 260 q 430 198 457 233 q 374 131 403 163 q 310 77 346 99 q 222 54 274 54 q 154 79 183 54 q 103 146 125 104 q 68 237 81 187 q 46 338 54 288 q 34 431 38 388 q 28 502 30 475 q 28 533 28 511 q 26 583 27 555 q 24 641 26 610 q 23 699 23 671 q 22 747 23 726 q 22 780 22 769 l 83 780 q 87 734 84 765 q 93 666 90 704 q 100 585 96 628 q 109 504 104 543 q 116 435 114 465 q 121 389 118 404 q 130 312 125 357 q 149 226 136 267 q 188 156 163 184 q 254 127 213 127 q 291 131 275 127 q 321 143 307 134 q 349 166 335 152 q 381 203 362 180 q 398 234 385 212 q 427 283 411 256 q 455 334 442 309 q 473 372 468 359 q 479 452 479 404 q 477 551 479 500 q 477 650 476 602 q 486 729 477 697 q 513 772 494 761 q 566 761 532 783 q 566 720 566 747 q 565 657 566 692 q 565 585 564 623 q 566 511 566 547 l 566 448 q 566 408 566 420 q 570 346 567 381 q 579 273 572 311 q 597 200 586 236 q 629 136 609 164 q 677 90 650 107 q 745 72 705 72 q 806 74 777 72 q 863 92 834 76 q 866 83 864 91 q 868 75 868 76 q 852 39 868 52 q 812 22 836 27 q 766 17 789 18 q 728 16 742 16 q 638 36 680 16 q 565 89 597 56 q 514 166 533 122 q 492 260 495 210 m 220 1065 q 245 1027 224 1053 q 292 972 267 1002 q 340 913 317 943 q 373 864 363 884 q 377 838 384 842 q 352 839 370 833 q 309 863 334 845 q 257 901 283 880 q 208 947 231 922 q 171 993 184 971 q 157 1031 157 1015 q 175 1055 157 1048 l 220 1065 z "},"":{"ha":909,"x_min":22,"x_max":868,"o":"m 492 260 q 430 198 457 233 q 374 131 403 163 q 310 77 346 99 q 222 54 274 54 q 154 79 183 54 q 103 146 125 104 q 68 237 81 187 q 46 338 54 288 q 34 431 38 388 q 28 502 30 475 q 28 533 28 511 q 26 583 27 555 q 24 641 26 610 q 23 699 23 671 q 22 747 23 726 q 22 780 22 769 l 83 780 q 87 734 84 765 q 93 666 90 704 q 100 585 96 628 q 109 504 104 543 q 116 435 114 465 q 121 389 118 404 q 130 312 125 357 q 149 226 136 267 q 188 156 163 184 q 254 127 213 127 q 291 131 275 127 q 321 143 307 134 q 349 166 335 152 q 381 203 362 180 q 398 234 385 212 q 427 283 411 256 q 455 334 442 309 q 473 372 468 359 q 479 452 479 404 q 477 551 479 500 q 477 650 476 602 q 486 729 477 697 q 513 772 494 761 q 566 761 532 783 q 566 720 566 747 q 565 657 566 692 q 565 585 564 623 q 566 511 566 547 l 566 448 q 566 408 566 420 q 570 346 567 381 q 579 273 572 311 q 597 200 586 236 q 629 136 609 164 q 677 90 650 107 q 745 72 705 72 q 806 74 777 72 q 863 92 834 76 q 866 83 864 91 q 868 75 868 76 q 852 39 868 52 q 812 22 836 27 q 766 17 789 18 q 728 16 742 16 q 638 36 680 16 q 565 89 597 56 q 514 166 533 122 q 492 260 495 210 m 538 1043 q 560 1021 560 1036 q 545 985 560 1005 q 503 944 529 966 q 447 903 476 922 q 389 868 418 883 q 341 847 361 853 q 313 845 321 841 q 317 869 305 849 q 339 899 324 882 q 372 932 354 916 q 409 968 389 949 q 445 1002 429 986 q 474 1030 461 1017 q 491 1051 487 1043 l 538 1043 z "},"":{"ha":909,"x_min":22,"x_max":868,"o":"m 492 260 q 430 198 457 233 q 374 131 403 163 q 310 77 346 99 q 222 54 274 54 q 154 79 183 54 q 103 146 125 104 q 68 237 81 187 q 46 338 54 288 q 34 431 38 388 q 28 502 30 475 q 28 533 28 511 q 26 583 27 555 q 24 641 26 610 q 23 699 23 671 q 22 747 23 726 q 22 780 22 769 l 83 780 q 87 734 84 765 q 93 666 90 704 q 100 585 96 628 q 109 504 104 543 q 116 435 114 465 q 121 389 118 404 q 130 312 125 357 q 149 226 136 267 q 188 156 163 184 q 254 127 213 127 q 291 131 275 127 q 321 143 307 134 q 349 166 335 152 q 381 203 362 180 q 398 234 385 212 q 427 283 411 256 q 455 334 442 309 q 473 372 468 359 q 479 452 479 404 q 477 551 479 500 q 477 650 476 602 q 486 729 477 697 q 513 772 494 761 q 566 761 532 783 q 566 720 566 747 q 565 657 566 692 q 565 585 564 623 q 566 511 566 547 l 566 448 q 566 408 566 420 q 570 346 567 381 q 579 273 572 311 q 597 200 586 236 q 629 136 609 164 q 677 90 650 107 q 745 72 705 72 q 806 74 777 72 q 863 92 834 76 q 866 83 864 91 q 868 75 868 76 q 852 39 868 52 q 812 22 836 27 q 766 17 789 18 q 728 16 742 16 q 638 36 680 16 q 565 89 597 56 q 514 166 533 122 q 492 260 495 210 m 122 1095 q 134 1119 125 1099 q 155 1167 144 1139 q 180 1225 167 1195 q 208 1280 194 1256 q 233 1322 221 1305 q 254 1340 244 1340 q 262 1338 255 1340 q 271 1335 269 1336 q 273 1316 271 1329 q 278 1289 275 1303 q 284 1260 281 1274 q 290 1242 288 1246 q 306 1206 294 1230 q 331 1156 317 1183 q 359 1101 345 1128 l 382 1054 q 419 986 412 1009 q 419 958 426 963 q 394 962 412 952 q 353 989 376 971 q 307 1031 330 1006 q 267 1081 283 1055 q 241 1133 250 1107 q 241 1162 239 1147 q 239 1156 240 1158 q 215 1111 229 1137 q 183 1055 201 1085 q 149 1002 165 1025 q 119 965 132 978 q 101 959 107 952 q 100 998 95 966 q 122 1095 104 1029 m 245 1176 q 241 1164 241 1169 q 245 1176 247 1175 z "},"":{"ha":909,"x_min":22,"x_max":868,"o":"m 492 260 q 430 198 457 233 q 374 131 403 163 q 310 77 346 99 q 222 54 274 54 q 154 79 183 54 q 103 146 125 104 q 68 237 81 187 q 46 338 54 288 q 34 431 38 388 q 28 502 30 475 q 28 533 28 511 q 26 583 27 555 q 24 641 26 610 q 23 699 23 671 q 22 747 23 726 q 22 780 22 769 l 83 780 q 87 734 84 765 q 93 666 90 704 q 100 585 96 628 q 109 504 104 543 q 116 435 114 465 q 121 389 118 404 q 130 312 125 357 q 149 226 136 267 q 188 156 163 184 q 254 127 213 127 q 291 131 275 127 q 321 143 307 134 q 349 166 335 152 q 381 203 362 180 q 398 234 385 212 q 427 283 411 256 q 455 334 442 309 q 473 372 468 359 q 479 452 479 404 q 477 551 479 500 q 477 650 476 602 q 486 729 477 697 q 513 772 494 761 q 566 761 532 783 q 566 720 566 747 q 565 657 566 692 q 565 585 564 623 q 566 511 566 547 l 566 448 q 566 408 566 420 q 570 346 567 381 q 579 273 572 311 q 597 200 586 236 q 629 136 609 164 q 677 90 650 107 q 745 72 705 72 q 806 74 777 72 q 863 92 834 76 q 866 83 864 91 q 868 75 868 76 q 852 39 868 52 q 812 22 836 27 q 766 17 789 18 q 728 16 742 16 q 638 36 680 16 q 565 89 597 56 q 514 166 533 122 q 492 260 495 210 m 278 936 q 283 958 278 949 q 298 972 289 967 q 319 981 308 978 q 339 983 330 983 l 339 972 q 337 949 339 962 q 330 927 335 937 q 316 917 326 917 q 308 919 313 917 q 296 924 302 921 q 286 930 290 928 q 278 936 281 933 m 157 936 q 163 958 157 949 q 178 972 168 967 q 198 981 187 978 q 218 983 209 983 l 218 972 q 216 949 218 962 q 209 927 213 937 q 195 917 205 917 q 187 919 193 917 q 176 924 182 921 q 165 930 170 928 q 157 936 160 933 z "},"":{"ha":621,"x_min":16,"x_max":576,"o":"m 16 863 q 17 880 16 872 q 20 895 18 887 q 29 905 23 902 q 46 909 35 909 q 62 905 56 909 q 75 891 69 902 l 186 650 l 224 650 q 248 678 231 659 q 287 721 264 697 q 333 771 309 745 q 378 821 357 798 q 418 863 400 845 q 445 891 437 882 q 467 912 453 898 q 500 941 481 926 q 538 965 518 955 q 576 975 557 975 l 576 928 l 278 613 q 247 568 254 587 q 240 521 240 548 q 244 392 240 457 q 253 262 248 327 q 261 132 258 197 q 264 0 264 66 l 224 0 q 213 33 217 0 q 205 120 209 66 q 196 236 201 174 q 187 356 191 298 q 178 458 183 414 q 165 518 174 503 q 156 544 164 525 q 137 588 148 563 q 113 640 126 613 q 87 692 99 667 q 67 736 76 718 q 56 761 58 754 q 45 783 52 770 q 32 810 38 796 q 21 837 26 823 q 16 863 16 850 m 407 1233 q 429 1211 429 1226 q 413 1175 429 1195 q 371 1134 397 1156 q 315 1093 345 1112 q 258 1058 286 1073 q 210 1037 229 1043 q 182 1035 190 1031 q 186 1059 174 1039 q 208 1088 193 1072 q 240 1122 222 1105 q 277 1158 258 1139 q 313 1192 297 1176 q 342 1220 330 1207 q 359 1241 355 1233 l 407 1233 z "},"":{"ha":640,"x_min":34,"x_max":613,"o":"m 53 286 q 51 361 53 311 q 47 477 49 412 q 43 612 45 541 q 40 747 42 682 q 37 861 38 811 q 34 936 35 911 l 34 956 q 53 973 42 960 q 73 991 64 986 q 91 988 81 996 q 108 945 100 981 q 121 842 115 909 q 127 658 126 774 l 146 640 q 284 741 206 712 q 456 770 362 770 q 521 755 492 770 q 570 717 549 741 q 602 661 591 693 q 613 595 613 629 q 591 477 613 528 q 532 393 568 427 q 446 336 495 358 q 342 303 396 315 q 231 288 288 292 q 119 283 174 283 q 127 103 129 176 q 118 -7 126 30 q 98 -45 110 -45 q 77 -9 87 -46 q 60 100 66 27 q 53 286 53 174 m 127 359 q 138 346 129 350 q 157 340 146 342 q 177 339 167 338 q 191 340 187 340 q 315 353 254 340 q 427 394 377 365 q 507 472 476 423 q 537 594 537 521 q 522 651 537 627 q 480 694 506 675 q 463 695 475 694 q 439 696 452 696 q 414 697 426 697 q 396 697 401 697 q 267 670 317 697 q 188 597 217 643 q 146 490 159 551 q 127 359 133 430 z "},"":{"ha":426,"x_min":30,"x_max":404,"o":"m 50 574 q 36 631 42 604 q 30 688 30 658 q 66 724 30 724 q 151 718 107 724 q 229 695 194 712 q 288 649 264 678 q 312 572 312 620 l 312 553 q 311 530 312 543 q 311 509 311 518 q 311 499 311 500 q 307 490 311 498 q 299 472 302 481 q 293 454 296 463 q 290 445 290 446 q 309 416 298 426 q 333 397 320 406 q 359 380 346 388 q 382 360 372 372 q 398 330 392 349 q 404 286 404 312 q 402 258 404 270 q 396 235 400 247 q 385 212 392 224 q 365 184 377 199 q 342 172 358 180 q 306 151 326 163 q 263 128 286 140 q 220 106 240 117 q 185 86 201 95 q 163 73 170 77 q 151 63 159 71 q 144 54 144 56 l 106 -130 q 97 -144 103 -140 q 82 -152 91 -149 q 64 -155 73 -155 q 50 -156 56 -156 l 50 574 m 144 144 q 199 153 164 144 q 267 179 235 163 q 324 217 300 195 q 349 267 349 239 q 348 291 349 274 q 342 325 347 308 q 330 355 338 342 q 311 369 323 368 l 144 388 l 144 144 m 87 648 q 94 612 90 639 q 105 555 99 585 q 117 500 111 526 q 125 463 122 473 q 127 454 126 460 q 133 443 129 449 q 139 432 137 437 q 144 426 141 427 q 185 450 164 437 q 222 479 206 463 q 248 515 237 495 q 258 560 258 536 q 247 611 258 591 q 216 644 236 631 q 170 662 197 656 q 115 667 144 667 q 98 664 103 667 q 87 648 92 661 z "},"":{"ha":780,"x_min":26,"x_max":741,"o":"m 26 151 q 39 260 26 202 q 75 375 52 319 q 131 481 98 431 q 203 570 164 532 q 289 632 243 609 q 385 655 335 655 q 417 650 396 655 q 460 638 438 646 q 498 620 481 631 q 514 598 514 609 l 279 568 q 231 543 254 568 q 188 479 208 518 q 153 393 168 441 q 125 298 137 345 q 108 214 114 252 q 102 157 102 176 l 102 144 q 102 125 102 136 q 103 104 103 115 l 103 92 q 109 84 103 90 l 132 62 q 140 54 137 56 q 144 54 141 54 l 148 54 q 208 71 179 54 q 262 110 237 87 q 309 159 288 133 q 345 203 330 186 q 357 245 353 213 q 367 318 362 277 q 377 406 372 359 q 391 492 382 453 q 410 555 399 530 q 439 579 422 579 q 445 579 441 579 l 448 579 q 448 545 448 572 q 450 481 449 518 q 451 401 450 444 q 452 322 452 359 q 453 258 452 285 q 456 224 454 231 q 463 204 456 217 q 477 179 469 191 q 495 157 486 167 q 510 148 505 148 l 741 148 q 728 122 741 133 q 696 103 715 111 q 654 89 677 95 q 609 79 631 83 q 568 75 587 76 q 540 73 549 73 q 449 98 486 73 q 381 165 412 122 q 340 117 363 144 q 287 64 316 90 q 224 22 258 39 q 159 0 191 4 q 92 6 117 -5 q 52 38 66 18 q 31 87 37 58 q 26 151 26 117 m 358 994 q 384 957 362 982 q 431 902 406 932 q 479 843 456 872 q 511 793 502 814 q 515 767 522 772 q 490 768 509 762 q 447 792 472 774 q 395 831 422 810 q 346 876 369 852 q 309 922 323 901 q 296 961 296 944 q 313 985 296 978 l 358 994 z "},"":{"ha":780,"x_min":26,"x_max":741,"o":"m 26 151 q 39 260 26 202 q 75 375 52 319 q 131 481 98 431 q 203 570 164 532 q 289 632 243 609 q 385 655 335 655 q 417 650 396 655 q 460 638 438 646 q 498 620 481 631 q 514 598 514 609 l 279 568 q 231 543 254 568 q 188 479 208 518 q 153 393 168 441 q 125 298 137 345 q 108 214 114 252 q 102 157 102 176 l 102 144 q 102 125 102 136 q 103 104 103 115 l 103 92 q 109 84 103 90 l 132 62 q 140 54 137 56 q 144 54 141 54 l 148 54 q 208 71 179 54 q 262 110 237 87 q 309 159 288 133 q 345 203 330 186 q 357 245 353 213 q 367 318 362 277 q 377 406 372 359 q 391 492 382 453 q 410 555 399 530 q 439 579 422 579 q 445 579 441 579 l 448 579 q 448 545 448 572 q 450 481 449 518 q 451 401 450 444 q 452 322 452 359 q 453 258 452 285 q 456 224 454 231 q 463 204 456 217 q 477 179 469 191 q 495 157 486 167 q 510 148 505 148 l 741 148 q 728 122 741 133 q 696 103 715 111 q 654 89 677 95 q 609 79 631 83 q 568 75 587 76 q 540 73 549 73 q 449 98 486 73 q 381 165 412 122 q 340 117 363 144 q 287 64 316 90 q 224 22 258 39 q 159 0 191 4 q 92 6 117 -5 q 52 38 66 18 q 31 87 37 58 q 26 151 26 117 m 473 986 q 495 964 495 979 q 479 928 495 948 q 437 887 464 909 q 382 846 411 865 q 324 811 353 826 q 276 790 296 796 q 248 788 256 784 q 252 812 240 792 q 274 842 259 825 q 307 876 289 859 q 344 911 324 892 q 380 945 363 929 q 409 973 396 960 q 426 994 422 986 l 473 986 z "},"":{"ha":780,"x_min":26,"x_max":741,"o":"m 26 151 q 39 260 26 202 q 75 375 52 319 q 131 481 98 431 q 203 570 164 532 q 289 632 243 609 q 385 655 335 655 q 417 650 396 655 q 460 638 438 646 q 498 620 481 631 q 514 598 514 609 l 279 568 q 231 543 254 568 q 188 479 208 518 q 153 393 168 441 q 125 298 137 345 q 108 214 114 252 q 102 157 102 176 l 102 144 q 102 125 102 136 q 103 104 103 115 l 103 92 q 109 84 103 90 l 132 62 q 140 54 137 56 q 144 54 141 54 l 148 54 q 208 71 179 54 q 262 110 237 87 q 309 159 288 133 q 345 203 330 186 q 357 245 353 213 q 367 318 362 277 q 377 406 372 359 q 391 492 382 453 q 410 555 399 530 q 439 579 422 579 q 445 579 441 579 l 448 579 q 448 545 448 572 q 450 481 449 518 q 451 401 450 444 q 452 322 452 359 q 453 258 452 285 q 456 224 454 231 q 463 204 456 217 q 477 179 469 191 q 495 157 486 167 q 510 148 505 148 l 741 148 q 728 122 741 133 q 696 103 715 111 q 654 89 677 95 q 609 79 631 83 q 568 75 587 76 q 540 73 549 73 q 449 98 486 73 q 381 165 412 122 q 340 117 363 144 q 287 64 316 90 q 224 22 258 39 q 159 0 191 4 q 92 6 117 -5 q 52 38 66 18 q 31 87 37 58 q 26 151 26 117 m 248 894 q 260 918 251 898 q 281 966 270 939 q 307 1025 293 994 q 334 1080 320 1055 q 359 1122 347 1104 q 380 1139 370 1139 q 388 1137 381 1139 q 397 1134 395 1135 q 399 1116 397 1128 q 404 1088 401 1103 q 410 1059 407 1073 q 416 1042 414 1046 q 432 1006 420 1029 q 457 955 444 982 q 486 901 471 928 l 509 853 q 545 785 538 808 q 545 757 552 762 q 520 761 538 751 q 479 788 502 770 q 433 830 456 806 q 393 880 410 854 q 368 932 376 906 q 368 962 365 947 q 365 955 366 958 q 341 910 355 936 q 309 854 327 884 q 275 801 292 825 q 245 764 258 777 q 227 758 233 751 q 226 797 221 765 q 248 894 231 829 m 372 975 q 368 963 368 968 q 372 975 373 974 z "},"":{"ha":697,"x_min":27,"x_max":666,"o":"m 27 152 q 35 251 27 199 q 57 354 42 302 q 96 452 72 406 q 155 535 121 499 q 233 592 189 571 q 335 613 278 613 q 376 610 349 613 q 431 599 404 606 q 480 576 458 591 q 502 538 502 562 l 502 111 q 513 83 502 95 q 540 65 524 72 q 576 55 556 58 q 615 50 597 52 q 647 49 633 49 l 666 49 q 652 27 666 34 q 619 18 637 20 q 584 16 601 16 q 562 16 567 16 q 492 31 518 16 q 452 72 467 46 q 430 132 437 98 q 419 203 423 165 q 360 138 391 174 q 295 71 330 102 q 219 20 260 41 q 129 0 178 0 q 76 14 96 0 q 45 49 56 27 q 31 98 34 71 q 27 152 27 126 m 102 175 q 102 146 102 165 q 106 106 103 126 q 118 70 110 85 q 140 54 126 54 q 156 57 145 54 q 179 63 167 60 q 201 69 191 66 q 213 75 210 72 q 322 175 279 122 q 389 287 365 228 q 422 414 414 346 q 431 562 431 481 q 286 530 347 562 q 183 446 225 499 q 121 323 141 393 q 102 175 102 252 m 45 715 q 61 787 45 749 q 103 859 77 825 q 163 918 129 892 q 232 945 198 943 q 272 942 254 949 q 306 922 290 935 q 336 894 321 909 q 368 865 351 879 q 401 842 384 850 q 442 833 419 833 q 486 840 467 833 q 526 855 506 848 q 567 870 547 863 q 610 878 587 878 q 593 835 610 856 q 553 797 576 814 q 502 770 529 780 q 457 760 475 760 q 395 768 422 760 q 342 791 368 776 q 295 827 317 806 q 250 872 273 848 q 242 873 250 872 q 232 873 235 873 q 172 851 198 873 q 128 797 146 829 q 99 730 110 765 q 83 667 88 694 q 79 667 81 667 q 75 667 76 667 q 58 672 64 667 q 50 684 53 677 q 45 699 46 690 q 45 715 45 708 z "},"":{"ha":780,"x_min":26,"x_max":741,"o":"m 26 151 q 39 260 26 202 q 75 375 52 319 q 131 481 98 431 q 203 570 164 532 q 289 632 243 609 q 385 655 335 655 q 417 650 396 655 q 460 638 438 646 q 498 620 481 631 q 514 598 514 609 l 279 568 q 231 543 254 568 q 188 479 208 518 q 153 393 168 441 q 125 298 137 345 q 108 214 114 252 q 102 157 102 176 l 102 144 q 102 125 102 136 q 103 104 103 115 l 103 92 q 109 84 103 90 l 132 62 q 140 54 137 56 q 144 54 141 54 l 148 54 q 208 71 179 54 q 262 110 237 87 q 309 159 288 133 q 345 203 330 186 q 357 245 353 213 q 367 318 362 277 q 377 406 372 359 q 391 492 382 453 q 410 555 399 530 q 439 579 422 579 q 445 579 441 579 l 448 579 q 448 545 448 572 q 450 481 449 518 q 451 401 450 444 q 452 322 452 359 q 453 258 452 285 q 456 224 454 231 q 463 204 456 217 q 477 179 469 191 q 495 157 486 167 q 510 148 505 148 l 741 148 q 728 122 741 133 q 696 103 715 111 q 654 89 677 95 q 609 79 631 83 q 568 75 587 76 q 540 73 549 73 q 449 98 486 73 q 381 165 412 122 q 340 117 363 144 q 287 64 316 90 q 224 22 258 39 q 159 0 191 4 q 92 6 117 -5 q 52 38 66 18 q 31 87 37 58 q 26 151 26 117 m 420 708 q 426 730 420 722 q 441 745 431 739 q 461 753 450 750 q 481 755 472 755 l 481 745 q 479 722 481 734 q 473 699 477 709 q 458 689 468 689 q 450 691 456 689 q 439 696 445 693 q 428 703 433 700 q 420 708 423 705 m 300 708 q 305 730 300 722 q 320 745 311 739 q 340 753 330 750 q 361 755 351 755 l 361 745 q 358 722 361 734 q 351 699 355 709 q 338 689 347 689 q 330 691 335 689 q 318 696 324 693 q 307 703 312 700 q 300 708 302 705 z "},"":{"ha":780,"x_min":26,"x_max":741,"o":"m 26 151 q 39 260 26 202 q 75 375 52 319 q 131 481 98 431 q 203 570 164 532 q 289 632 243 609 q 385 655 335 655 q 417 650 396 655 q 460 638 438 646 q 498 620 481 631 q 514 598 514 609 l 279 568 q 231 543 254 568 q 188 479 208 518 q 153 393 168 441 q 125 298 137 345 q 108 214 114 252 q 102 157 102 176 l 102 144 q 102 125 102 136 q 103 104 103 115 l 103 92 q 109 84 103 90 l 132 62 q 140 54 137 56 q 144 54 141 54 l 148 54 q 208 71 179 54 q 262 110 237 87 q 309 159 288 133 q 345 203 330 186 q 357 245 353 213 q 367 318 362 277 q 377 406 372 359 q 391 492 382 453 q 410 555 399 530 q 439 579 422 579 q 445 579 441 579 l 448 579 q 448 545 448 572 q 450 481 449 518 q 451 401 450 444 q 452 322 452 359 q 453 258 452 285 q 456 224 454 231 q 463 204 456 217 q 477 179 469 191 q 495 157 486 167 q 510 148 505 148 l 741 148 q 728 122 741 133 q 696 103 715 111 q 654 89 677 95 q 609 79 631 83 q 568 75 587 76 q 540 73 549 73 q 449 98 486 73 q 381 165 412 122 q 340 117 363 144 q 287 64 316 90 q 224 22 258 39 q 159 0 191 4 q 92 6 117 -5 q 52 38 66 18 q 31 87 37 58 q 26 151 26 117 m 245 774 q 263 815 248 804 q 297 824 278 826 q 338 808 316 822 q 377 776 359 795 q 405 736 395 757 q 412 697 415 715 q 391 667 410 680 q 332 655 373 655 q 270 690 294 655 q 245 774 245 724 m 336 696 q 373 707 365 696 q 377 732 381 718 q 359 762 373 747 q 328 785 345 776 q 296 793 312 795 q 270 773 279 791 q 288 714 269 732 q 336 696 307 696 z "},"":{"ha":1039,"x_min":26,"x_max":1074,"o":"m 26 151 q 39 260 26 202 q 75 375 52 319 q 131 481 98 431 q 203 570 164 532 q 289 632 243 609 q 385 655 335 655 q 417 650 396 655 q 460 638 438 646 q 498 620 481 631 q 514 598 514 609 l 279 568 q 231 543 254 568 q 188 479 208 518 q 153 393 168 441 q 125 298 137 345 q 108 214 114 252 q 102 157 102 176 l 102 144 q 102 125 102 136 q 103 104 103 115 l 103 92 q 109 84 103 90 l 132 62 q 140 54 137 56 q 144 54 141 54 l 148 54 q 208 71 179 54 q 262 110 237 87 q 309 159 288 133 q 345 203 330 186 q 357 245 353 213 q 367 318 362 277 q 377 406 372 359 q 391 492 382 453 q 410 555 399 530 q 439 579 422 579 q 444 579 441 579 q 448 579 448 579 q 448 545 448 572 q 450 481 449 518 q 451 401 450 444 q 452 322 452 359 q 453 258 452 285 q 456 224 454 231 q 460 208 456 217 q 470 189 464 199 q 484 170 476 179 q 498 155 491 160 q 474 269 481 210 q 467 378 467 327 q 481 495 467 442 q 526 587 495 548 q 607 646 557 625 q 726 667 656 667 q 793 661 764 667 q 842 637 823 654 q 871 593 861 620 q 880 524 880 566 q 864 454 880 483 q 819 405 848 425 q 754 376 789 385 q 681 368 719 368 q 651 361 674 368 q 604 351 628 355 q 561 346 579 346 q 543 358 543 346 q 549 367 543 359 q 561 383 555 374 q 572 399 567 392 l 579 407 q 659 415 616 411 q 738 431 701 419 q 798 467 774 442 q 822 537 822 491 q 814 576 822 562 q 792 599 807 591 q 759 610 777 606 q 719 613 741 613 q 637 596 670 613 q 582 551 604 579 q 551 484 560 522 q 541 396 541 445 q 543 326 541 366 q 550 245 544 286 q 567 165 556 205 q 595 95 578 126 q 639 45 613 64 q 701 27 665 27 q 720 28 707 27 q 747 33 732 30 q 775 39 762 37 q 793 45 788 42 q 826 58 804 49 q 876 81 848 68 q 934 108 903 94 q 991 135 964 122 q 1040 159 1019 148 q 1072 175 1062 170 q 1074 166 1073 174 q 1074 156 1074 159 q 1050 108 1074 132 q 990 63 1027 84 q 907 24 954 42 q 819 -5 861 7 q 742 -24 777 -18 q 689 -31 707 -31 q 597 -2 635 -31 q 532 73 559 27 q 446 98 481 75 q 381 165 411 122 q 340 117 363 144 q 287 64 316 90 q 224 22 258 39 q 159 0 191 4 q 92 6 117 -5 q 52 38 66 18 q 31 87 37 58 q 26 151 26 117 z "},"":{"ha":697,"x_min":26,"x_max":665,"o":"m 189 -330 q 189 -323 189 -328 q 189 -311 189 -317 l 189 -305 q 213 -321 195 -312 q 262 -345 233 -334 q 320 -363 290 -357 q 377 -370 350 -370 q 420 -356 404 -369 q 437 -315 435 -343 q 419 -239 438 -288 q 385 -206 407 -214 q 339 -195 363 -198 q 288 -190 315 -191 q 241 -178 262 -189 q 208 -144 221 -167 q 195 -76 195 -121 q 189 3 189 -28 q 145 15 165 5 q 81 59 107 30 q 40 127 54 88 q 26 212 26 165 q 34 298 26 250 q 58 395 42 346 q 98 492 75 445 q 151 576 121 540 q 217 635 180 613 q 298 658 254 658 l 332 658 q 380 653 357 658 q 420 636 403 648 q 437 601 437 624 l 247 601 q 210 578 228 601 q 177 520 193 555 q 147 444 161 486 q 123 362 133 401 q 108 292 114 323 q 102 250 102 262 q 112 173 102 209 q 142 111 122 137 q 194 68 163 84 q 199 66 195 66 q 203 75 201 72 q 225 79 213 87 q 245 54 237 71 q 267 54 256 54 q 360 66 316 54 q 442 96 404 79 q 513 134 480 114 q 574 172 547 155 q 624 201 602 190 q 665 213 646 213 q 640 138 665 171 q 579 81 616 104 q 495 41 543 57 q 399 16 448 26 q 305 3 350 7 q 259 0 279 1 q 250 -37 258 -20 q 257 -69 250 -57 q 288 -92 264 -81 q 364 -102 327 -98 q 430 -121 401 -107 q 476 -163 458 -136 q 492 -243 494 -191 q 501 -350 511 -308 q 463 -414 491 -392 q 394 -441 434 -437 q 314 -433 354 -445 q 240 -395 274 -420 q 189 -330 206 -369 z "},"":{"ha":625,"x_min":53,"x_max":661,"o":"m 53 408 q 67 524 53 471 q 113 616 81 578 q 193 675 144 654 q 311 697 243 697 q 379 690 350 697 q 428 667 408 684 q 457 622 448 650 q 467 553 467 594 q 450 482 467 511 q 404 434 433 453 q 340 406 376 415 q 269 396 305 396 q 250 393 262 396 q 222 387 237 391 q 190 380 206 384 q 159 375 174 376 q 136 376 145 374 q 127 388 127 378 q 134 397 127 389 q 146 412 140 404 q 159 429 153 420 l 165 435 q 245 444 202 441 q 323 458 288 448 q 384 494 359 469 q 408 566 408 518 q 401 604 408 590 q 379 627 393 618 q 346 637 365 635 q 305 640 327 640 q 223 625 258 640 q 168 581 189 609 q 138 513 148 552 q 127 426 127 473 q 129 356 127 396 q 136 275 130 316 q 153 195 142 235 q 182 123 164 155 q 226 73 201 92 q 286 54 251 54 q 307 57 293 54 q 334 63 320 60 q 361 69 349 66 q 381 75 374 72 q 414 88 392 79 q 463 110 435 98 q 521 137 491 122 q 578 164 551 152 q 627 188 605 176 q 659 203 650 199 q 661 195 661 202 q 661 186 661 189 q 637 138 661 161 q 576 93 613 114 q 494 54 540 72 q 406 24 448 37 q 328 5 363 12 q 275 -3 293 -3 q 199 16 233 -3 q 141 68 165 35 q 99 142 117 100 q 71 229 81 184 q 57 321 61 274 q 53 408 53 368 m 281 994 q 307 957 285 982 q 353 902 328 932 q 401 843 378 872 q 434 793 425 814 q 438 767 445 772 q 413 768 431 762 q 370 792 395 774 q 318 831 345 810 q 269 876 292 852 q 232 922 245 901 q 218 961 218 944 q 236 985 218 978 l 281 994 z "},"":{"ha":625,"x_min":53,"x_max":661,"o":"m 53 408 q 67 524 53 471 q 113 616 81 578 q 193 675 144 654 q 311 697 243 697 q 379 690 350 697 q 428 667 408 684 q 457 622 448 650 q 467 553 467 594 q 450 482 467 511 q 404 434 433 453 q 340 406 376 415 q 269 396 305 396 q 250 393 262 396 q 222 387 237 391 q 190 380 206 384 q 159 375 174 376 q 136 376 145 374 q 127 388 127 378 q 134 397 127 389 q 146 412 140 404 q 159 429 153 420 l 165 435 q 245 444 202 441 q 323 458 288 448 q 384 494 359 469 q 408 566 408 518 q 401 604 408 590 q 379 627 393 618 q 346 637 365 635 q 305 640 327 640 q 223 625 258 640 q 168 581 189 609 q 138 513 148 552 q 127 426 127 473 q 129 356 127 396 q 136 275 130 316 q 153 195 142 235 q 182 123 164 155 q 226 73 201 92 q 286 54 251 54 q 307 57 293 54 q 334 63 320 60 q 361 69 349 66 q 381 75 374 72 q 414 88 392 79 q 463 110 435 98 q 521 137 491 122 q 578 164 551 152 q 627 188 605 176 q 659 203 650 199 q 661 195 661 202 q 661 186 661 189 q 637 138 661 161 q 576 93 613 114 q 494 54 540 72 q 406 24 448 37 q 328 5 363 12 q 275 -3 293 -3 q 199 16 233 -3 q 141 68 165 35 q 99 142 117 100 q 71 229 81 184 q 57 321 61 274 q 53 408 53 368 m 397 986 q 419 964 419 979 q 404 928 419 948 q 361 887 388 909 q 306 846 335 865 q 248 811 277 826 q 200 790 220 796 q 172 788 180 784 q 176 812 164 792 q 198 842 183 825 q 231 876 213 859 q 268 911 248 892 q 304 945 288 929 q 333 973 320 960 q 350 994 346 986 l 397 986 z "},"":{"ha":625,"x_min":53,"x_max":661,"o":"m 53 408 q 67 524 53 471 q 113 616 81 578 q 193 675 144 654 q 311 697 243 697 q 379 690 350 697 q 428 667 408 684 q 457 622 448 650 q 467 553 467 594 q 450 482 467 511 q 404 434 433 453 q 340 406 376 415 q 269 396 305 396 q 250 393 262 396 q 222 387 237 391 q 190 380 206 384 q 159 375 174 376 q 136 376 145 374 q 127 388 127 378 q 134 397 127 389 q 146 412 140 404 q 159 429 153 420 l 165 435 q 245 444 202 441 q 323 458 288 448 q 384 494 359 469 q 408 566 408 518 q 401 604 408 590 q 379 627 393 618 q 346 637 365 635 q 305 640 327 640 q 223 625 258 640 q 168 581 189 609 q 138 513 148 552 q 127 426 127 473 q 129 356 127 396 q 136 275 130 316 q 153 195 142 235 q 182 123 164 155 q 226 73 201 92 q 286 54 251 54 q 307 57 293 54 q 334 63 320 60 q 361 69 349 66 q 381 75 374 72 q 414 88 392 79 q 463 110 435 98 q 521 137 491 122 q 578 164 551 152 q 627 188 605 176 q 659 203 650 199 q 661 195 661 202 q 661 186 661 189 q 637 138 661 161 q 576 93 613 114 q 494 54 540 72 q 406 24 448 37 q 328 5 363 12 q 275 -3 293 -3 q 199 16 233 -3 q 141 68 165 35 q 99 142 117 100 q 71 229 81 184 q 57 321 61 274 q 53 408 53 368 m 171 894 q 183 918 174 898 q 204 966 193 939 q 229 1025 216 994 q 256 1080 243 1055 q 281 1122 270 1104 q 302 1139 293 1139 q 311 1137 304 1139 q 320 1134 317 1135 q 322 1116 320 1128 q 327 1088 324 1103 q 333 1059 330 1073 q 339 1042 336 1046 q 355 1006 343 1029 q 380 955 366 982 q 408 901 393 928 l 431 853 q 468 785 461 808 q 468 757 475 762 q 443 761 461 751 q 401 788 425 770 q 355 830 378 806 q 315 880 332 854 q 290 932 298 906 q 290 962 288 947 q 288 955 289 958 q 264 910 278 936 q 232 854 250 884 q 197 801 214 825 q 168 764 180 777 q 150 758 156 751 q 149 797 144 765 q 171 894 153 829 m 294 975 q 290 963 290 968 q 294 975 296 974 z "},"":{"ha":625,"x_min":53,"x_max":661,"o":"m 53 408 q 67 524 53 471 q 113 616 81 578 q 193 675 144 654 q 311 697 243 697 q 379 690 350 697 q 428 667 408 684 q 457 622 448 650 q 467 553 467 594 q 450 482 467 511 q 404 434 433 453 q 340 406 376 415 q 269 396 305 396 q 250 393 262 396 q 222 387 237 391 q 190 380 206 384 q 159 375 174 376 q 136 376 145 374 q 127 388 127 378 q 134 397 127 389 q 146 412 140 404 q 159 429 153 420 l 165 435 q 245 444 202 441 q 323 458 288 448 q 384 494 359 469 q 408 566 408 518 q 401 604 408 590 q 379 627 393 618 q 346 637 365 635 q 305 640 327 640 q 223 625 258 640 q 168 581 189 609 q 138 513 148 552 q 127 426 127 473 q 129 356 127 396 q 136 275 130 316 q 153 195 142 235 q 182 123 164 155 q 226 73 201 92 q 286 54 251 54 q 307 57 293 54 q 334 63 320 60 q 361 69 349 66 q 381 75 374 72 q 414 88 392 79 q 463 110 435 98 q 521 137 491 122 q 578 164 551 152 q 627 188 605 176 q 659 203 650 199 q 661 195 661 202 q 661 186 661 189 q 637 138 661 161 q 576 93 613 114 q 494 54 540 72 q 406 24 448 37 q 328 5 363 12 q 275 -3 293 -3 q 199 16 233 -3 q 141 68 165 35 q 99 142 117 100 q 71 229 81 184 q 57 321 61 274 q 53 408 53 368 m 350 774 q 355 797 350 788 q 370 811 361 806 q 391 819 380 817 q 411 822 401 822 l 411 811 q 409 788 411 800 q 402 766 407 776 q 388 755 397 755 q 380 758 385 755 q 368 763 374 760 q 357 769 362 766 q 350 774 353 772 m 229 774 q 235 797 229 788 q 250 811 240 806 q 270 819 259 817 q 290 822 281 822 l 290 811 q 288 788 290 800 q 281 766 285 776 q 267 755 277 755 q 259 758 264 755 q 248 763 254 760 q 237 769 241 766 q 229 774 232 772 z "},"":{"ha":385,"x_min":-14,"x_max":439,"o":"m 28 298 q 31 334 30 309 q 33 389 31 358 q 37 454 35 420 q 41 519 39 488 q 43 576 42 551 q 46 613 45 601 q 59 627 53 624 q 75 631 65 631 q 79 631 76 631 q 83 631 81 631 q 97 534 96 591 q 97 413 98 477 q 98 285 96 349 q 115 170 100 221 q 160 86 129 118 q 250 54 191 54 q 355 79 311 54 q 437 148 400 103 q 438 139 437 146 q 439 129 439 132 q 414 75 439 99 q 355 33 389 50 q 284 7 321 16 q 224 -1 247 -1 q 125 22 163 -1 q 65 84 87 45 q 36 174 43 123 q 28 277 28 224 l 28 298 m 50 1020 q 75 983 54 1008 q 122 928 96 958 q 171 870 148 899 q 203 821 194 841 q 208 793 214 799 q 182 795 201 788 q 139 819 164 802 q 87 857 114 836 q 38 903 61 879 q 1 949 15 928 q -13 987 -12 970 q 5 1012 -14 1005 l 50 1020 z "},"":{"ha":385,"x_min":28,"x_max":439,"o":"m 28 298 q 31 334 30 309 q 33 389 31 358 q 37 454 35 420 q 41 519 39 488 q 43 576 42 551 q 46 613 45 601 q 59 627 53 624 q 75 631 65 631 q 79 631 76 631 q 83 631 81 631 q 97 534 96 591 q 97 413 98 477 q 98 285 96 349 q 115 170 100 221 q 160 86 129 118 q 250 54 191 54 q 355 79 311 54 q 437 148 400 103 q 438 139 437 146 q 439 129 439 132 q 414 75 439 99 q 355 33 389 50 q 284 7 321 16 q 224 -1 247 -1 q 125 22 163 -1 q 65 84 87 45 q 36 174 43 123 q 28 277 28 224 l 28 298 m 278 986 q 299 964 300 979 q 283 928 298 948 q 242 887 269 909 q 186 846 216 865 q 129 811 157 826 q 80 790 100 796 q 52 788 60 784 q 56 812 45 792 q 78 842 64 825 q 111 876 92 859 q 148 911 129 892 q 184 945 167 929 q 213 973 201 960 q 229 994 225 986 l 278 986 z "},"":{"ha":385,"x_min":27,"x_max":439,"o":"m 28 298 q 31 334 30 309 q 33 389 31 358 q 37 454 35 420 q 41 519 39 488 q 43 576 42 551 q 46 613 45 601 q 59 627 53 624 q 75 631 65 631 q 79 631 76 631 q 83 631 81 631 q 97 534 96 591 q 97 413 98 477 q 98 285 96 349 q 115 170 100 221 q 160 86 129 118 q 250 54 191 54 q 355 79 311 54 q 437 148 400 103 q 438 139 437 146 q 439 129 439 132 q 414 75 439 99 q 355 33 389 50 q 284 7 321 16 q 224 -1 247 -1 q 125 22 163 -1 q 65 84 87 45 q 36 174 43 123 q 28 277 28 224 l 28 298 m 50 894 q 62 918 53 898 q 82 966 71 939 q 108 1025 94 994 q 136 1080 122 1055 q 161 1122 149 1104 q 180 1139 172 1139 q 190 1137 183 1139 q 199 1134 197 1135 q 201 1116 199 1128 q 205 1088 202 1103 q 212 1059 209 1073 q 217 1042 214 1046 q 234 1006 222 1029 q 259 955 245 982 q 286 901 273 928 l 311 853 q 347 785 339 808 q 347 757 354 762 q 321 761 340 751 q 280 788 302 770 q 235 830 258 806 q 194 880 212 854 q 170 932 176 906 q 168 962 165 947 q 165 955 167 958 q 142 910 156 936 q 110 854 127 884 q 76 801 92 825 q 47 764 60 777 q 28 758 34 751 q 27 797 23 765 q 50 894 31 829 m 174 975 q 170 963 170 968 q 174 975 175 974 z "},"":{"ha":411,"x_min":26,"x_max":465,"o":"m 53 298 q 55 334 54 309 q 58 389 56 358 q 62 454 60 420 q 66 519 65 488 q 69 576 68 551 q 72 613 71 601 q 85 627 79 624 q 100 631 91 631 q 104 631 102 631 q 109 631 107 631 q 122 534 121 591 q 123 413 123 477 q 124 285 122 349 q 140 170 126 221 q 186 86 155 118 q 275 54 217 54 q 381 79 336 54 q 463 148 426 103 q 464 139 463 146 q 465 129 465 132 q 440 75 465 99 q 380 33 415 50 q 309 7 346 16 q 248 -1 273 -1 q 150 22 189 -1 q 90 84 111 45 q 60 174 68 123 q 53 277 53 224 l 53 298 m 146 803 q 151 826 145 817 q 167 841 157 836 q 186 848 176 846 q 206 850 197 850 l 206 840 q 204 817 206 829 q 197 795 202 804 q 184 785 193 785 q 175 787 180 785 q 164 791 170 788 q 153 798 159 795 q 146 803 148 800 m 26 803 q 31 826 24 817 q 45 841 37 836 q 65 848 54 846 q 85 850 76 850 l 85 840 q 83 817 85 829 q 77 795 81 804 q 64 785 72 785 q 54 787 60 785 q 43 791 49 788 q 33 798 38 795 q 26 803 27 800 z "},"":{"ha":463,"x_min":53,"x_max":437,"o":"m 159 521 l 197 541 q 218 530 209 536 q 237 517 228 524 q 256 504 247 510 q 279 494 266 498 l 368 572 l 411 532 q 398 517 412 529 q 366 493 384 506 q 334 468 347 480 q 323 446 320 456 q 393 341 369 392 q 427 246 416 290 q 437 165 437 202 q 433 103 437 129 q 422 65 433 81 q 393 36 411 49 q 353 14 374 23 q 309 -1 331 5 q 267 -9 286 -7 q 236 -12 248 -12 q 165 5 198 -12 q 106 51 132 23 q 67 113 81 79 q 53 184 53 148 q 66 235 53 213 q 99 271 79 258 q 145 292 119 285 q 197 298 171 298 q 265 289 232 298 q 335 279 298 279 q 330 318 336 294 q 315 364 324 342 q 293 404 305 387 q 270 420 281 420 l 212 359 l 163 391 q 178 410 167 399 q 197 433 189 422 q 212 456 206 445 q 212 469 217 467 q 174 495 189 483 q 159 521 159 507 m 111 171 q 125 118 113 144 q 157 73 137 92 q 203 46 176 54 q 263 45 231 38 q 284 43 266 45 q 324 43 302 42 q 362 52 346 45 q 378 75 378 58 q 365 146 378 113 q 328 206 351 180 q 273 247 305 232 q 205 262 241 262 q 135 243 159 262 q 111 171 111 225 z "},"":{"ha":826,"x_min":38,"x_max":909,"o":"m 363 652 q 297 634 335 652 q 224 588 259 616 q 164 527 189 560 q 140 464 140 494 l 140 54 q 134 45 140 49 q 120 40 127 42 q 104 37 113 38 q 92 37 96 37 q 66 43 75 37 q 56 60 58 49 q 55 84 54 71 q 56 111 56 98 q 53 159 54 122 l 50 241 q 47 342 49 289 q 43 444 45 396 q 40 528 42 492 q 38 576 38 564 l 38 628 q 41 643 38 636 q 52 656 43 650 q 75 667 60 662 q 85 660 79 667 q 92 650 91 652 q 97 631 94 644 q 103 603 100 617 q 109 575 106 589 q 111 556 111 562 q 115 555 113 555 q 121 555 118 555 q 166 578 140 555 q 227 631 193 602 q 300 683 262 659 q 380 707 338 707 q 463 679 433 707 q 508 604 494 651 q 527 499 522 557 q 535 380 532 441 q 545 261 538 320 q 571 156 552 202 q 626 82 590 110 q 724 54 662 54 q 766 57 745 54 q 807 64 787 60 q 848 71 827 68 q 891 75 869 75 q 902 75 894 75 l 909 75 q 810 18 860 38 q 696 -1 760 -1 q 587 26 628 -1 q 521 101 545 54 q 487 206 496 148 q 472 325 477 264 q 464 444 467 385 q 452 549 461 503 q 422 624 442 595 q 363 652 401 652 m 127 869 q 141 950 127 921 q 177 990 155 979 q 229 998 199 1001 q 288 982 258 994 q 349 952 319 970 q 406 917 380 935 q 492 970 453 954 q 558 991 530 987 q 597 985 586 994 q 595 956 608 975 q 544 910 583 936 q 433 854 505 884 q 374 865 403 856 q 319 886 346 875 q 268 905 293 897 q 219 916 243 914 q 172 907 195 917 q 127 869 149 897 z "},"":{"ha":585,"x_min":28,"x_max":562,"o":"m 28 195 q 43 302 33 247 q 73 408 54 357 q 121 503 92 458 q 189 581 149 548 q 279 631 228 614 q 396 643 331 648 q 522 489 484 567 q 561 340 560 411 q 532 206 562 269 q 456 98 503 144 q 353 26 410 53 q 241 -1 296 -1 q 161 12 199 -1 q 93 50 122 24 q 46 111 64 75 q 28 195 28 148 m 495 335 q 489 410 495 376 q 469 472 483 444 q 433 527 456 500 q 378 579 411 553 l 376 568 q 277 545 327 572 q 186 469 227 518 q 121 354 145 420 q 102 213 96 288 q 119 134 102 168 q 176 75 137 100 q 191 74 180 75 q 214 73 202 73 q 236 73 225 73 q 250 72 247 72 q 357 90 311 72 q 433 142 403 109 q 479 225 464 176 q 495 335 495 274 m 260 994 q 286 957 264 982 q 333 902 308 932 q 381 843 358 872 q 414 793 404 814 q 418 767 425 772 q 393 768 411 762 q 349 792 374 774 q 298 831 324 810 q 248 876 271 852 q 212 922 225 901 q 198 961 198 944 q 216 985 198 978 l 260 994 z "},"":{"ha":585,"x_min":28,"x_max":562,"o":"m 28 195 q 43 302 33 247 q 73 408 54 357 q 121 503 92 458 q 189 581 149 548 q 279 631 228 614 q 396 643 331 648 q 522 489 484 567 q 561 340 560 411 q 532 206 562 269 q 456 98 503 144 q 353 26 410 53 q 241 -1 296 -1 q 161 12 199 -1 q 93 50 122 24 q 46 111 64 75 q 28 195 28 148 m 495 335 q 489 410 495 376 q 469 472 483 444 q 433 527 456 500 q 378 579 411 553 l 376 568 q 277 545 327 572 q 186 469 227 518 q 121 354 145 420 q 102 213 96 288 q 119 134 102 168 q 176 75 137 100 q 191 74 180 75 q 214 73 202 73 q 236 73 225 73 q 250 72 247 72 q 357 90 311 72 q 433 142 403 109 q 479 225 464 176 q 495 335 495 274 m 380 986 q 401 964 401 979 q 386 928 401 948 q 344 887 370 909 q 288 846 317 865 q 231 811 259 826 q 182 790 202 796 q 155 788 163 784 q 159 812 146 792 q 180 842 165 825 q 213 876 195 859 q 250 911 231 892 q 286 945 270 929 q 315 973 302 960 q 332 994 328 986 l 380 986 z "},"":{"ha":585,"x_min":28,"x_max":562,"o":"m 28 195 q 43 302 33 247 q 73 408 54 357 q 121 503 92 458 q 189 581 149 548 q 279 631 228 614 q 396 643 331 648 q 522 489 484 567 q 561 340 560 411 q 532 206 562 269 q 456 98 503 144 q 353 26 410 53 q 241 -1 296 -1 q 161 12 199 -1 q 93 50 122 24 q 46 111 64 75 q 28 195 28 148 m 495 335 q 489 410 495 376 q 469 472 483 444 q 433 527 456 500 q 378 579 411 553 l 376 568 q 277 545 327 572 q 186 469 227 518 q 121 354 145 420 q 102 213 96 288 q 119 134 102 168 q 176 75 137 100 q 191 74 180 75 q 214 73 202 73 q 236 73 225 73 q 250 72 247 72 q 357 90 311 72 q 433 142 403 109 q 479 225 464 176 q 495 335 495 274 m 151 894 q 163 918 153 898 q 184 966 172 939 q 209 1025 195 994 q 236 1080 222 1055 q 261 1122 250 1104 q 282 1139 273 1139 q 290 1137 283 1139 q 300 1134 297 1135 q 302 1116 300 1128 q 307 1088 304 1103 q 313 1059 309 1073 q 319 1042 316 1046 q 334 1006 323 1029 q 359 955 346 982 q 388 901 373 928 l 411 853 q 448 785 441 808 q 448 757 454 762 q 422 761 441 751 q 381 788 404 770 q 335 830 358 806 q 295 880 312 854 q 270 932 278 906 q 270 962 267 947 q 267 955 269 958 q 243 910 258 936 q 212 854 229 884 q 177 801 194 825 q 148 764 160 777 q 130 758 136 751 q 128 797 123 765 q 151 894 133 829 m 274 975 q 270 963 270 968 q 274 975 275 974 z "},"":{"ha":659,"x_min":26,"x_max":652,"o":"m 102 251 q 106 315 102 279 q 119 386 110 350 q 142 457 127 422 q 179 518 157 492 q 231 561 201 544 q 298 578 260 578 q 389 554 351 578 q 450 494 427 530 q 484 412 473 457 q 495 324 495 368 q 479 209 495 264 q 431 110 463 153 q 353 41 400 66 q 241 16 305 16 q 228 16 237 16 q 209 17 218 16 q 190 18 199 18 q 176 18 180 18 q 137 62 152 33 q 114 125 122 91 q 104 193 106 159 q 102 251 102 227 m 193 250 q 191 203 193 232 q 194 144 189 174 q 214 94 199 115 q 262 73 228 73 q 336 100 302 73 q 392 165 369 126 q 427 247 415 203 q 438 326 438 290 q 427 387 438 353 q 395 451 415 420 q 347 501 374 481 q 286 521 320 521 q 248 504 263 521 q 222 460 232 487 q 206 403 212 434 q 197 341 201 372 q 193 286 194 311 q 193 250 193 262 m 232 854 q 229 854 232 854 q 224 854 225 854 q 199 850 209 854 q 176 836 190 845 q 151 817 170 830 q 112 789 133 803 q 73 762 91 774 q 46 742 54 749 l 26 742 q 46 812 26 781 q 98 865 66 844 q 168 899 130 887 q 239 911 206 911 q 290 899 269 911 q 328 867 311 886 q 361 826 346 848 q 395 785 377 804 q 437 753 414 766 q 494 741 460 741 q 535 751 515 741 q 573 772 555 761 q 610 792 591 783 q 652 802 629 802 q 631 749 652 769 q 581 720 610 730 q 518 706 551 709 q 463 703 486 703 q 435 702 449 703 q 409 703 422 701 q 385 709 396 704 q 361 724 373 713 q 335 749 354 730 l 258 826 q 232 854 239 846 z "},"":{"ha":585,"x_min":28,"x_max":562,"o":"m 28 195 q 43 302 33 247 q 73 408 54 357 q 121 503 92 458 q 189 581 149 548 q 279 631 228 614 q 396 643 331 648 q 522 489 484 567 q 561 340 560 411 q 532 206 562 269 q 456 98 503 144 q 353 26 410 53 q 241 -1 296 -1 q 161 12 199 -1 q 93 50 122 24 q 46 111 64 75 q 28 195 28 148 m 495 335 q 489 410 495 376 q 469 472 483 444 q 433 527 456 500 q 378 579 411 553 l 376 568 q 277 545 327 572 q 186 469 227 518 q 121 354 145 420 q 102 213 96 288 q 119 134 102 168 q 176 75 137 100 q 191 74 180 75 q 214 73 202 73 q 236 73 225 73 q 250 72 247 72 q 357 90 311 72 q 433 142 403 109 q 479 225 464 176 q 495 335 495 274 m 323 708 q 328 730 323 722 q 343 745 334 739 q 363 753 353 750 q 384 755 374 755 l 384 745 q 382 722 384 734 q 375 699 380 709 q 361 689 370 689 q 353 691 358 689 q 341 696 347 693 q 330 703 335 700 q 323 708 326 705 m 202 708 q 208 730 202 722 q 222 745 213 739 q 243 753 232 750 q 263 755 254 755 l 263 745 q 260 722 263 734 q 254 699 258 709 q 240 689 250 689 q 232 691 237 689 q 220 696 227 693 q 210 703 214 700 q 202 708 205 705 z "},"":{"ha":481,"x_min":50,"x_max":460,"o":"m 69 316 l 441 316 q 456 307 452 316 q 460 289 460 298 q 452 270 460 278 q 433 262 445 262 l 422 262 q 362 264 396 262 q 291 269 328 267 q 217 273 254 271 q 152 276 180 274 q 104 279 123 278 l 88 279 l 50 298 l 69 316 m 191 426 q 200 446 191 437 q 221 454 209 454 q 241 446 233 454 q 250 426 250 437 q 241 404 250 412 q 221 396 233 396 q 200 404 209 396 q 191 426 191 412 m 184 149 q 193 169 184 161 q 213 176 201 176 q 233 169 225 176 q 240 149 240 161 q 233 128 240 137 q 213 119 225 119 q 193 128 201 119 q 184 149 184 137 z "},"":{"ha":585,"x_min":28,"x_max":562,"o":"m 42 28 q 42 33 42 30 q 42 38 42 37 q 68 73 53 50 q 45 111 56 91 q 28 195 28 148 q 43 302 33 247 q 73 408 54 357 q 121 503 92 458 q 189 581 149 548 q 279 631 228 614 q 396 643 331 648 q 449 591 426 617 l 452 594 q 463 612 456 600 q 479 640 469 625 q 496 668 488 654 q 506 688 503 682 l 543 688 q 503 578 530 635 q 487 547 495 562 q 521 490 507 518 q 561 340 560 411 q 532 206 562 269 q 456 98 503 144 q 353 26 410 53 q 241 -1 296 -1 q 160 12 199 -1 q 111 35 133 20 l 98 18 q 85 3 90 7 q 71 -1 81 -1 q 50 7 58 -1 q 42 28 42 16 m 495 335 q 489 410 495 376 q 469 471 483 444 q 457 494 464 483 q 437 463 448 479 q 356 345 400 404 q 267 230 312 286 q 176 119 221 174 l 153 91 q 176 75 164 81 q 191 74 180 75 q 214 73 202 73 q 236 73 225 73 q 250 72 247 72 q 357 90 311 72 q 433 142 403 109 q 479 225 464 176 q 495 335 495 274 m 378 579 l 376 568 q 277 545 327 572 q 186 469 227 518 q 121 354 145 420 q 102 213 96 288 q 117 138 102 171 q 163 199 138 165 q 246 314 202 254 q 331 430 290 374 q 404 529 372 486 q 415 547 410 538 q 378 579 399 563 z "},"":{"ha":742,"x_min":60,"x_max":715,"o":"m 389 168 q 385 168 388 168 q 381 165 382 167 q 334 109 357 137 q 286 62 311 81 q 232 29 262 42 q 164 16 202 16 q 125 27 142 16 q 96 54 109 38 q 76 91 84 71 q 66 129 68 111 q 64 172 65 138 q 64 254 64 206 l 64 463 q 64 554 64 514 q 61 610 64 594 q 60 625 61 613 q 60 640 60 636 q 64 671 60 656 q 90 686 68 686 q 105 682 99 686 q 115 665 111 677 q 120 614 118 652 q 124 525 122 576 q 127 416 126 473 q 131 309 129 359 q 135 219 133 258 q 140 165 137 180 q 147 136 142 149 q 158 112 152 122 q 176 96 164 102 q 203 91 187 91 q 218 91 208 91 q 232 92 229 91 q 327 208 286 140 q 393 354 368 277 q 433 511 419 431 q 452 665 448 591 l 456 666 q 460 666 458 666 q 475 662 469 666 q 487 648 481 658 q 488 569 488 616 q 487 471 487 522 q 490 363 487 419 q 499 256 492 308 q 522 159 506 203 q 563 85 537 115 q 626 41 589 54 q 715 38 663 27 q 690 13 704 20 q 658 1 675 5 q 623 -3 640 -3 l 587 -3 q 525 10 552 -3 q 477 42 498 23 q 444 83 457 61 q 420 123 430 104 q 404 155 411 142 q 389 168 396 168 m 339 994 q 365 957 343 982 q 412 902 387 932 q 460 843 437 872 q 492 793 483 814 q 496 767 503 772 q 471 768 490 762 q 428 792 453 774 q 376 831 403 810 q 327 876 350 852 q 290 922 304 901 q 277 961 277 944 q 294 985 277 978 l 339 994 z "},"":{"ha":742,"x_min":60,"x_max":715,"o":"m 389 168 q 385 168 388 168 q 381 165 382 167 q 334 109 357 137 q 286 62 311 81 q 232 29 262 42 q 164 16 202 16 q 125 27 142 16 q 96 54 109 38 q 76 91 84 71 q 66 129 68 111 q 64 172 65 138 q 64 254 64 206 l 64 463 q 64 554 64 514 q 61 610 64 594 q 60 625 61 613 q 60 640 60 636 q 64 671 60 656 q 90 686 68 686 q 105 682 99 686 q 115 665 111 677 q 120 614 118 652 q 124 525 122 576 q 127 416 126 473 q 131 309 129 359 q 135 219 133 258 q 140 165 137 180 q 147 136 142 149 q 158 112 152 122 q 176 96 164 102 q 203 91 187 91 q 218 91 208 91 q 232 92 229 91 q 327 208 286 140 q 393 354 368 277 q 433 511 419 431 q 452 665 448 591 l 456 666 q 460 666 458 666 q 475 662 469 666 q 487 648 481 658 q 488 569 488 616 q 487 471 487 522 q 490 363 487 419 q 499 256 492 308 q 522 159 506 203 q 563 85 537 115 q 626 41 589 54 q 715 38 663 27 q 690 13 704 20 q 658 1 675 5 q 623 -3 640 -3 l 587 -3 q 525 10 552 -3 q 477 42 498 23 q 444 83 457 61 q 420 123 430 104 q 404 155 411 142 q 389 168 396 168 m 456 986 q 477 964 477 979 q 462 928 477 948 q 420 887 446 909 q 364 846 393 865 q 307 811 335 826 q 258 790 278 796 q 231 788 239 784 q 235 812 222 792 q 256 842 241 825 q 289 876 271 859 q 326 911 307 892 q 362 945 346 929 q 391 973 378 960 q 408 994 404 986 l 456 986 z "},"":{"ha":742,"x_min":60,"x_max":715,"o":"m 389 168 q 385 168 388 168 q 381 165 382 167 q 334 109 357 137 q 286 62 311 81 q 232 29 262 42 q 164 16 202 16 q 125 27 142 16 q 96 54 109 38 q 76 91 84 71 q 66 129 68 111 q 64 172 65 138 q 64 254 64 206 l 64 463 q 64 554 64 514 q 61 610 64 594 q 60 625 61 613 q 60 640 60 636 q 64 671 60 656 q 90 686 68 686 q 105 682 99 686 q 115 665 111 677 q 120 614 118 652 q 124 525 122 576 q 127 416 126 473 q 131 309 129 359 q 135 219 133 258 q 140 165 137 180 q 147 136 142 149 q 158 112 152 122 q 176 96 164 102 q 203 91 187 91 q 218 91 208 91 q 232 92 229 91 q 327 208 286 140 q 393 354 368 277 q 433 511 419 431 q 452 665 448 591 l 456 666 q 460 666 458 666 q 475 662 469 666 q 487 648 481 658 q 488 569 488 616 q 487 471 487 522 q 490 363 487 419 q 499 256 492 308 q 522 159 506 203 q 563 85 537 115 q 626 41 589 54 q 715 38 663 27 q 690 13 704 20 q 658 1 675 5 q 623 -3 640 -3 l 587 -3 q 525 10 552 -3 q 477 42 498 23 q 444 83 457 61 q 420 123 430 104 q 404 155 411 142 q 389 168 396 168 m 231 894 q 243 918 233 898 q 264 966 252 939 q 289 1025 275 994 q 316 1080 302 1055 q 341 1122 330 1104 q 362 1139 353 1139 q 370 1137 363 1139 q 380 1134 377 1135 q 382 1116 380 1128 q 387 1088 384 1103 q 393 1059 389 1073 q 399 1042 396 1046 q 414 1006 403 1029 q 439 955 426 982 q 468 901 453 928 l 491 853 q 528 785 521 808 q 528 757 534 762 q 503 761 521 751 q 461 788 484 770 q 415 830 438 806 q 375 880 392 854 q 350 932 358 906 q 350 962 347 947 q 347 955 349 958 q 323 910 338 936 q 292 854 309 884 q 257 801 274 825 q 228 764 240 777 q 210 758 216 751 q 208 797 203 765 q 231 894 213 829 m 354 975 q 350 963 350 968 q 354 975 355 974 z "},"":{"ha":742,"x_min":60,"x_max":715,"o":"m 389 168 q 385 168 388 168 q 381 165 382 167 q 334 109 357 137 q 286 62 311 81 q 232 29 262 42 q 164 16 202 16 q 125 27 142 16 q 96 54 109 38 q 76 91 84 71 q 66 129 68 111 q 64 172 65 138 q 64 254 64 206 l 64 463 q 64 554 64 514 q 61 610 64 594 q 60 625 61 613 q 60 640 60 636 q 64 671 60 656 q 90 686 68 686 q 105 682 99 686 q 115 665 111 677 q 120 614 118 652 q 124 525 122 576 q 127 416 126 473 q 131 309 129 359 q 135 219 133 258 q 140 165 137 180 q 147 136 142 149 q 158 112 152 122 q 176 96 164 102 q 203 91 187 91 q 218 91 208 91 q 232 92 229 91 q 327 208 286 140 q 393 354 368 277 q 433 511 419 431 q 452 665 448 591 l 456 666 q 460 666 458 666 q 475 662 469 666 q 487 648 481 658 q 488 569 488 616 q 487 471 487 522 q 490 363 487 419 q 499 256 492 308 q 522 159 506 203 q 563 85 537 115 q 626 41 589 54 q 715 38 663 27 q 690 13 704 20 q 658 1 675 5 q 623 -3 640 -3 l 587 -3 q 525 10 552 -3 q 477 42 498 23 q 444 83 457 61 q 420 123 430 104 q 404 155 411 142 q 389 168 396 168 m 282 785 q 288 808 282 799 q 302 822 293 817 q 323 830 312 827 q 343 833 334 833 l 343 822 q 341 799 343 811 q 334 777 339 787 q 320 766 330 766 q 312 768 317 766 q 300 774 307 770 q 290 780 294 777 q 282 785 285 783 m 161 785 q 167 808 161 799 q 182 822 172 817 q 202 830 191 827 q 222 833 213 833 l 222 822 q 220 799 222 811 q 213 777 217 787 q 199 766 209 766 q 191 768 197 766 q 180 774 186 770 q 169 780 174 777 q 161 785 164 783 z "},"":{"ha":585,"x_min":-104,"x_max":551,"o":"m -104 -399 q -100 -378 -104 -396 q -88 -341 -95 -361 q -73 -305 -81 -321 q -56 -289 -65 -289 q -33 -408 -56 -351 q 31 -506 -9 -464 q 125 -572 71 -548 q 243 -595 180 -595 q 339 -573 300 -595 q 404 -513 378 -551 q 444 -427 430 -475 q 465 -329 458 -380 q 473 -230 472 -278 q 475 -141 475 -182 q 474 -101 475 -127 q 473 -49 473 -75 q 473 -3 473 -23 q 473 18 473 16 q 471 43 473 23 q 466 87 469 64 q 460 133 463 111 q 456 165 457 155 q 452 184 454 171 q 446 213 450 198 q 435 241 442 228 q 418 260 429 255 q 372 192 401 228 q 306 125 343 156 q 229 75 269 95 q 148 54 189 54 q 96 71 117 54 q 62 114 75 88 q 41 174 49 140 q 31 241 34 208 q 28 303 28 274 q 27 351 27 332 q 33 423 27 384 q 45 505 38 463 q 60 588 53 547 q 75 665 68 629 q 103 686 85 686 q 108 686 104 686 q 113 685 111 685 q 112 641 113 673 q 110 568 111 609 q 106 481 109 528 q 104 393 104 434 q 102 321 103 353 q 103 278 102 290 q 104 239 103 264 q 111 190 106 214 q 128 146 117 165 q 164 127 140 127 q 210 132 184 127 q 250 148 236 136 q 296 191 269 164 q 347 244 323 217 q 390 292 372 271 q 408 316 408 312 l 437 720 q 441 730 437 726 q 451 736 445 734 q 463 739 457 738 q 475 741 469 741 q 501 729 492 741 q 521 701 510 718 q 514 496 510 605 q 526 276 518 387 q 543 56 534 165 q 551 -149 551 -53 q 551 -189 551 -160 q 550 -251 551 -218 q 548 -313 549 -283 q 547 -353 547 -342 q 515 -466 541 -410 q 449 -568 490 -522 q 355 -643 408 -614 q 240 -671 301 -671 q 176 -661 213 -671 q 100 -633 138 -651 q 26 -589 62 -614 q -39 -534 -11 -564 q -86 -470 -68 -505 q -104 -399 -104 -435 m 380 986 q 401 964 401 979 q 386 928 401 948 q 344 887 370 909 q 288 846 317 865 q 231 811 259 826 q 182 790 202 796 q 155 788 163 784 q 159 812 146 792 q 180 842 165 825 q 213 876 195 859 q 250 911 231 892 q 286 945 270 929 q 315 973 302 960 q 332 994 328 986 l 380 986 z "},"":{"ha":631,"x_min":26,"x_max":587,"o":"m 38 -669 q 37 -610 38 -650 q 37 -519 37 -570 q 36 -414 37 -469 q 35 -308 35 -358 l 35 -159 q 35 -63 35 -119 q 32 60 34 -7 q 28 203 30 127 q 26 355 27 278 q 26 510 26 433 q 27 656 26 587 q 31 785 28 726 q 41 887 34 844 q 50 888 42 887 q 60 888 57 888 q 73 873 66 888 q 84 835 79 859 q 95 784 90 811 q 105 731 100 757 q 114 685 110 705 q 122 658 118 665 q 215 663 164 661 q 318 665 266 666 q 418 654 370 663 q 505 622 467 644 q 565 561 543 600 q 587 463 587 522 q 538 235 581 328 q 429 91 495 142 q 283 28 363 39 q 122 42 202 16 l 121 -594 q 117 -614 121 -598 q 107 -646 114 -629 q 90 -675 100 -662 q 66 -689 79 -689 q 38 -669 47 -689 m 102 498 q 104 404 102 456 q 111 298 106 351 q 120 192 115 244 q 129 92 125 140 l 140 92 q 153 92 145 92 q 167 91 161 91 l 176 91 q 299 119 239 91 q 407 197 359 148 q 484 309 454 245 q 513 445 513 373 q 487 540 513 506 q 420 589 461 574 q 327 605 378 604 q 225 606 275 606 q 202 606 216 606 q 176 604 189 605 q 152 603 163 604 q 140 602 141 602 l 103 566 l 103 556 q 102 538 103 548 q 102 515 102 528 l 102 498 z "},"":{"ha":585,"x_min":-104,"x_max":551,"o":"m -104 -399 q -100 -378 -104 -396 q -88 -341 -95 -361 q -73 -305 -81 -321 q -56 -289 -65 -289 q -33 -408 -56 -351 q 31 -506 -9 -464 q 125 -572 71 -548 q 243 -595 180 -595 q 339 -573 300 -595 q 404 -513 378 -551 q 444 -427 430 -475 q 465 -329 458 -380 q 473 -230 472 -278 q 475 -141 475 -182 q 474 -101 475 -127 q 473 -49 473 -75 q 473 -3 473 -23 q 473 18 473 16 q 471 43 473 23 q 466 87 469 64 q 460 133 463 111 q 456 165 457 155 q 452 184 454 171 q 446 213 450 198 q 435 241 442 228 q 418 260 429 255 q 372 192 401 228 q 306 125 343 156 q 229 75 269 95 q 148 54 189 54 q 96 71 117 54 q 62 114 75 88 q 41 174 49 140 q 31 241 34 208 q 28 303 28 274 q 27 351 27 332 q 33 423 27 384 q 45 505 38 463 q 60 588 53 547 q 75 665 68 629 q 103 686 85 686 q 108 686 104 686 q 113 685 111 685 q 112 641 113 673 q 110 568 111 609 q 106 481 109 528 q 104 393 104 434 q 102 321 103 353 q 103 278 102 290 q 104 239 103 264 q 111 190 106 214 q 128 146 117 165 q 164 127 140 127 q 210 132 184 127 q 250 148 236 136 q 296 191 269 164 q 347 244 323 217 q 390 292 372 271 q 408 316 408 312 l 437 720 q 441 730 437 726 q 451 736 445 734 q 463 739 457 738 q 475 741 469 741 q 501 729 492 741 q 521 701 510 718 q 514 496 510 605 q 526 276 518 387 q 543 56 534 165 q 551 -149 551 -53 q 551 -189 551 -160 q 550 -251 551 -218 q 548 -313 549 -283 q 547 -353 547 -342 q 515 -466 541 -410 q 449 -568 490 -522 q 355 -643 408 -614 q 240 -671 301 -671 q 176 -661 213 -671 q 100 -633 138 -651 q 26 -589 62 -614 q -39 -534 -11 -564 q -86 -470 -68 -505 q -104 -399 -104 -435 m 321 760 q 327 782 321 773 q 342 796 332 791 q 362 804 351 802 q 382 807 373 807 l 382 796 q 380 773 382 785 q 374 751 378 761 q 359 741 369 741 q 351 743 357 741 q 340 748 346 745 q 329 754 334 751 q 321 760 324 757 m 201 760 q 206 782 201 773 q 221 796 212 791 q 241 804 231 802 q 262 807 252 807 l 262 796 q 259 773 262 785 q 252 751 256 761 q 239 741 248 741 q 231 743 236 741 q 219 748 225 745 q 208 754 213 751 q 201 760 203 757 z "}}}
